<svg width="356" height="311" viewBox="0 0 356 311" fill="none" xmlns="http://www.w3.org/2000/svg">
<path fill-rule="evenodd" clip-rule="evenodd" d="M44.7872 106.799C38.0303 110.194 33.7656 117.109 33.7656 124.671V290.406C33.7656 301.452 42.7199 310.406 53.7656 310.406H302.32C313.366 310.406 322.32 301.452 322.32 290.406V20.8965C322.32 9.85079 313.366 0.896484 302.32 0.896484H133.926C122.88 0.896484 113.926 9.85079 113.926 20.8965L113.926 59.7303C113.926 67.292 109.661 74.2071 102.904 77.6017L44.7872 106.799Z" fill="#F2FFA2"/>
<path d="M84.7129 178.916C86.7205 183.334 98.3164 208.792 104.137 221.808C106.194 226.264 108.646 229.707 111.334 232.338" stroke="#363636" stroke-linecap="round" stroke-linejoin="round"/>
<path d="M78.9782 153.684C72.5034 154.561 64.4949 157.612 64.7891 162.839C64.7857 162.896 64.7922 162.953 64.8082 163.008" stroke="#363636" stroke-linecap="round" stroke-linejoin="round"/>
<path d="M114.768 189.411L94.1641 160.959" stroke="#363636" stroke-linecap="round" stroke-linejoin="round"/>
<mask id="path-5-inside-1_846_3053" fill="white">
<path d="M82.4983 168.373C82.3948 168.507 82.2804 168.645 82.1523 168.787C82.3056 168.804 82.4575 168.832 82.6072 168.869L82.4983 168.373Z"/>
</mask>
<path d="M82.4983 168.373C82.3948 168.507 82.2804 168.645 82.1523 168.787C82.3056 168.804 82.4575 168.832 82.6072 168.869L82.4983 168.373Z" fill="#CCEA17"/>
<path d="M82.4983 168.373L83.475 168.158L83.0166 166.073L81.7081 167.76L82.4983 168.373ZM82.1523 168.787L81.4105 168.117L80.1039 169.562L82.0401 169.781L82.1523 168.787ZM82.6072 168.869L82.3666 169.839L83.9296 170.227L83.5839 168.654L82.6072 168.869ZM81.7081 167.76C81.6174 167.877 81.5191 167.996 81.4105 168.117L82.8942 169.458C83.0417 169.294 83.1722 169.136 83.2885 168.986L81.7081 167.76ZM82.0401 169.781C82.1501 169.793 82.2591 169.813 82.3666 169.839L82.8479 167.898C82.6559 167.851 82.4611 167.816 82.2645 167.793L82.0401 169.781ZM83.5839 168.654L83.475 168.158L81.5216 168.588L81.6306 169.083L83.5839 168.654Z" fill="#363636" mask="url(#path-5-inside-1_846_3053)"/>
<path d="M80.8597 163.265L81.0152 163.969C80.8035 163.904 80.5882 163.853 80.3706 163.816C80.5407 163.639 80.7038 163.455 80.8597 163.265Z" fill="#CCEA17" stroke="#363636"/>
<path d="M51.3723 117.054C60.9121 111.899 66.1064 113.621 68.249 114.937L68.3513 115L68.4709 115.009C68.814 115.037 69.3163 115.165 69.7467 115.381C70.2032 115.609 70.4297 115.858 70.4746 116.048C70.4747 116.049 70.4749 116.05 70.475 116.05L76.2127 142.136C76.0093 142.375 75.829 142.633 75.6744 142.907C74.5561 144.817 75.0388 147.232 75.9083 149.335C76.7689 151.416 78.0733 153.348 78.9359 154.512L79.7254 158.103C79.5064 158.005 79.2823 157.918 79.054 157.842C78.0768 157.496 77.0467 157.582 76.0881 157.863L70.146 130.623L70.0727 130.287L69.7328 130.235C66.0454 129.674 60.7498 129.909 54.9512 133.024L54.9499 133.024C44.1516 138.868 36.8526 136.708 34.0179 133.668L34.0177 133.668C33.3311 132.932 32.8462 132.032 32.6101 131.053C32.6101 131.053 32.6101 131.053 32.6101 131.053L29.5266 118.251L29.5262 118.249C29.4964 118.128 29.5074 118 29.5573 117.885C29.6072 117.771 29.6934 117.676 29.8025 117.615C29.9117 117.554 30.0378 117.531 30.1615 117.548C30.2852 117.566 30.3996 117.624 30.4872 117.713L30.4872 117.713L30.4893 117.715C34.7732 122.022 41.9042 122.17 51.3723 117.054ZM51.3723 117.054L51.1346 116.614M51.3723 117.054L51.1346 116.614M51.1346 116.614C41.7287 121.697 34.8861 121.427 30.8438 117.363M51.1346 116.614C60.7992 111.392 66.1872 113.083 68.5107 114.511C69.3279 114.576 70.7689 115.096 70.9623 115.938L30.8438 117.363M30.8438 117.363L30.8438 117.363L30.8438 117.363ZM69.6575 130.729L75.6107 158.02L69.6575 130.729ZM69.6575 130.729C66.0619 130.182 60.8782 130.408 55.1878 133.464L69.6575 130.729ZM76.195 158.353C77.1009 158.081 78.0327 158.009 78.8918 158.315C79.2259 158.425 79.5504 158.562 79.862 158.724L76.195 158.353ZM80.3012 158.393L79.4011 154.3C77.6987 152.02 74.1194 146.545 76.1079 143.156L80.3012 158.393Z" fill="#363636" stroke="#363636"/>
<path d="M81.1324 180.949C81.9482 180.758 82.7279 180.432 83.439 179.984C83.7687 179.787 84.0913 179.579 84.4065 179.36L88.7745 199.203L85.2765 199.927L81.1324 180.949Z" fill="#363636" stroke="#363636"/>
<mask id="path-10-inside-2_846_3053" fill="white">
<path d="M83.641 173.561C83.513 173.683 83.3686 173.808 83.2324 173.934C83.4002 173.942 83.5675 173.958 83.7336 173.983L83.641 173.561Z"/>
</mask>
<path d="M83.641 173.561C83.513 173.683 83.3686 173.808 83.2324 173.934C83.4002 173.942 83.5675 173.958 83.7336 173.983L83.641 173.561Z" fill="#CCEA17"/>
<path d="M83.641 173.561L84.6178 173.346L84.2361 171.606L82.9494 172.838L83.641 173.561ZM83.2324 173.934L82.5554 173.198L80.7913 174.821L83.1857 174.933L83.2324 173.934ZM83.7336 173.983L83.5858 174.972L85.0214 175.186L84.7104 173.769L83.7336 173.983ZM82.9494 172.838C82.826 172.956 82.7263 173.041 82.5554 173.198L83.9095 174.67C84.011 174.576 84.1999 174.41 84.3326 174.283L82.9494 172.838ZM83.1857 174.933C83.3197 174.939 83.4532 174.952 83.5858 174.972L83.8814 172.994C83.6818 172.964 83.4808 172.944 83.2791 172.935L83.1857 174.933ZM84.7104 173.769L84.6178 173.346L82.6642 173.775L82.7569 174.197L84.7104 173.769Z" fill="#363636" mask="url(#path-10-inside-2_846_3053)"/>
<path d="M75.2598 177.236C76.2921 180.118 79.392 181.853 83.1783 179.56C87.5748 176.899 86.9401 175.283 84.6111 174.226C84.3326 174.103 84.0383 174.02 83.7367 173.979" stroke="#363636" stroke-linecap="round" stroke-linejoin="round"/>
<path d="M71.123 172.345C71.123 172.451 71.1476 172.557 71.1666 172.669C71.8149 176.874 76.5928 178.749 81.5585 175.243C86.5243 171.737 85.6962 169.939 82.9205 168.959C82.8143 168.923 82.7081 168.891 82.5991 168.863" stroke="#363636" stroke-linecap="round" stroke-linejoin="round"/>
<path d="M68.4266 167.46C68.3734 167.801 68.3734 168.148 68.4266 168.489C69.1048 172.883 74.3076 174.7 79.4968 171.036C84.6859 167.372 83.8197 165.496 80.9296 164.471C80.3544 164.285 79.7474 164.217 79.1454 164.273" stroke="#363636" stroke-linecap="round" stroke-linejoin="round"/>
<path d="M64.7754 162.838C65.5408 167.798 71.4137 169.849 77.2757 165.711C83.1376 161.574 82.1597 159.446 78.8937 158.3C75.6277 157.153 71.3347 161.413 71.3347 161.413" stroke="#363636" stroke-linecap="round" stroke-linejoin="round"/>
<path d="M80.2242 155.336C80.2242 155.336 73.5478 147.505 76.1083 143.141C78.6688 138.777 80.058 146.644 82.4497 147.173C84.8413 147.701 94.1627 160.959 94.1627 160.959" stroke="#363636" stroke-linecap="round" stroke-linejoin="round"/>
<path d="M329.018 263.255C325.3 255.538 301.441 238.818 295.086 234.457" stroke="#363636" stroke-linecap="round" stroke-linejoin="round"/>
<path d="M216.923 175.854C208.678 170.774 202.377 166.969 200.544 165.917C195.497 163.022 184.993 163.305 170.613 168.671" stroke="#363636" stroke-linecap="round" stroke-linejoin="round"/>
<path d="M288.021 243.551L295.904 233.399L272.355 211.909C267.193 207.97 257.918 201.784 247.703 195.203" stroke="#363636" stroke-linecap="round" stroke-linejoin="round"/>
<path d="M218.448 174.33L210.662 183.638C204.125 191.467 204.942 203.182 212.705 209.812C212.839 209.927 212.978 210.039 213.114 210.153C219.379 215.241 227.663 213.174 232.977 210.927C236.096 209.606 238.795 207.46 240.784 204.719L249.092 193.313" stroke="#363636" stroke-linecap="round" stroke-linejoin="round"/>
<path d="M268.25 167.189C269.364 167.707 275.983 171.12 271.924 177.412C268.794 182.264 264.458 179.959 261.998 178.055" stroke="#363636" stroke-linecap="round" stroke-linejoin="round"/>
<path d="M227.823 143.207C224.696 149.889 222.397 156.939 220.877 162.741" stroke="#363636" stroke-linecap="round" stroke-linejoin="round"/>
<path d="M263.067 166.955C261.16 167.797 254.35 174.31 251.999 177.666C251.999 177.666 244.157 170.973 231.237 165.662C231.237 165.662 224.095 163.014 220.932 162.758C220.932 162.758 216.367 176.135 219.431 185.201C222.496 194.266 235.391 197.151 242.699 195.304C250.008 193.457 251.718 191.882 254.761 188.025C257.804 184.168 268.697 167.762 268.697 167.762L263.067 166.955Z" stroke="#363636" stroke-linecap="round" stroke-linejoin="round"/>
<path d="M253.899 147.335C253.665 147.432 253.372 147.674 253.057 148.13C252.682 148.674 252.329 149.449 252.053 150.404C251.502 152.311 251.28 154.861 251.753 157.528C252.225 160.191 253.387 162.958 255.587 165.321C257.751 167.645 260.942 169.602 265.532 170.676C265.559 170.656 265.589 170.634 265.622 170.61C265.798 170.478 266.057 170.282 266.379 170.029C267.025 169.524 267.927 168.79 268.954 167.88C271.011 166.056 273.548 163.536 275.51 160.732L275.51 160.732C279.128 155.568 278.825 148.556 274.569 143.924L253.899 147.335ZM253.899 147.335C253.967 147.316 254.034 147.297 254.101 147.278L253.88 146.304C253.778 146.322 253.678 146.349 253.58 146.386M253.899 147.335L253.58 146.386M253.58 146.386C248.6 147.765 241.56 148.871 229.566 144.422C224.083 142.387 216.782 136.328 212.091 129.441C209.748 126.004 208.085 122.4 207.606 119.031C207.13 115.679 207.825 112.573 210.186 110.049L210.186 110.049C210.98 109.199 212.137 108.175 213.381 107.298C214.633 106.415 215.928 105.714 217 105.463L217.002 105.463C228.374 102.767 235.263 106.531 239.329 110.916C241.374 113.122 242.716 115.5 243.547 117.329C243.962 118.243 244.248 119.017 244.43 119.561C244.521 119.833 244.586 120.047 244.628 120.191C244.649 120.264 244.664 120.319 244.673 120.355L244.684 120.395L244.686 120.404L244.687 120.406L244.687 120.406L244.687 120.406L244.954 121.478L245.583 120.57L245.583 120.57L245.583 120.57L245.583 120.569L245.584 120.568L245.593 120.556C245.601 120.545 245.613 120.527 245.63 120.504C245.665 120.458 245.718 120.388 245.79 120.298C245.934 120.119 246.153 119.862 246.444 119.558C247.027 118.951 247.9 118.161 249.054 117.436C251.354 115.991 254.775 114.798 259.284 115.834C261.108 116.256 262.826 117.045 264.334 118.154C265.842 119.263 267.108 120.668 268.055 122.283C270.766 126.919 270.351 130.974 269.271 133.876C268.728 135.334 268.015 136.505 267.438 137.311C267.15 137.713 266.896 138.023 266.716 138.231C266.627 138.334 266.555 138.413 266.507 138.464C266.483 138.49 266.465 138.508 266.454 138.52L266.441 138.533L266.439 138.536L266.439 138.536L266.438 138.536L266.438 138.536L265.738 139.235L266.716 139.384L266.716 139.384L266.716 139.384L266.717 139.384L266.717 139.384L266.724 139.385L266.755 139.39C266.785 139.396 266.83 139.404 266.89 139.416C267.01 139.441 267.188 139.481 267.415 139.541C267.869 139.662 268.517 139.865 269.279 140.19C270.803 140.84 272.775 141.977 274.569 143.924L253.58 146.386Z" fill="#363636" stroke="#363636"/>
<path d="M232.341 160.252L226.518 169.862L230.958 171.736" stroke="#363636" stroke-linecap="round" stroke-linejoin="round"/>
<path d="M228.346 157.808C228.459 157.853 228.597 157.99 228.659 158.3C228.721 158.605 228.69 159.012 228.522 159.437C228.355 159.862 228.1 160.18 227.847 160.361C227.59 160.545 227.396 160.552 227.282 160.507C227.169 160.462 227.032 160.325 226.969 160.015C226.908 159.711 226.939 159.303 227.106 158.879C227.274 158.454 227.529 158.135 227.781 157.954C228.039 157.77 228.233 157.764 228.346 157.808Z" fill="#363636" stroke="#363636"/>
<path d="M239.715 161.131C239.829 161.175 239.966 161.312 240.029 161.623C240.09 161.927 240.059 162.334 239.892 162.759C239.724 163.184 239.469 163.503 239.216 163.683C238.959 163.868 238.765 163.874 238.652 163.829C238.538 163.785 238.401 163.648 238.338 163.337C238.277 163.033 238.308 162.626 238.475 162.201C238.643 161.776 238.898 161.457 239.15 161.276C239.408 161.092 239.602 161.086 239.715 161.131Z" fill="#363636" stroke="#363636"/>
<path d="M247.024 156.64C246.731 155.648 246.178 154.753 245.421 154.048C244.665 153.343 243.733 152.854 242.723 152.633" stroke="#363636" stroke-linecap="round" stroke-linejoin="round"/>
<path d="M232.808 149.304C232.808 149.304 229.888 147.177 228.027 149.514" stroke="#363636" stroke-linecap="round" stroke-linejoin="round"/>
<path d="M230.809 179.356C234.235 179.283 236.365 178.188 236.365 178.188C236.404 178.335 237.643 183.268 234.412 183.091C231.141 183.276 230.809 179.356 230.809 179.356Z" stroke="#363636" stroke-linecap="round" stroke-linejoin="round"/>
<path d="M266.401 249.906L272.968 263.253H312.891C312.891 263.253 278.372 234.208 267.55 231.061C255.407 226.472 243.222 230.844 241.128 233.333C238.826 236.057 231.371 243.139 227.448 243.698C223.526 244.256 218.897 242.987 218.966 245.365C218.996 246.455 218.5 249.939 224.351 249.489C228.224 249.189 232.166 248.843 235.726 246.855" stroke="#363636" stroke-linecap="round" stroke-linejoin="round"/>
<path d="M242.664 236.83C242.664 236.83 235.955 243.618 236.151 245.857C236.347 248.096 239.403 252.733 241.691 252.733C243.326 252.733 245.554 252.656 246.69 252.613" stroke="#363636" stroke-linecap="round" stroke-linejoin="round"/>
<path d="M248.066 238.699C248.066 238.699 242.928 244.147 242.991 246.144C243.053 248.14 245.606 252.502 248.221 253.144C250.836 253.787 254.995 252.461 254.995 252.461" stroke="#363636" stroke-linecap="round" stroke-linejoin="round"/>
<path d="M253.583 240.988C253.583 240.988 248.339 246.011 251.014 248.787C254.626 252.023 257.415 252.715 259.107 252.715C260.97 252.715 264.255 249.514 264.255 249.514" stroke="#363636" stroke-linecap="round" stroke-linejoin="round"/>
<path d="M256.564 245.611C256.564 245.611 255.828 248.161 266.403 249.907" stroke="#363636" stroke-linecap="round" stroke-linejoin="round"/>
<path d="M213.191 253.432C203.837 241.256 191.26 243.691 191.26 243.691C182.925 221.178 161.871 223.447 161.871 223.447V217.182H135.019V223.447C135.019 223.447 112.993 221.178 104.657 243.691C104.657 243.691 86.3306 240.15 77.4668 263.031" stroke="#363636" stroke-linecap="round" stroke-linejoin="round"/>
<path d="M195.023 254.21C188.191 246.885 179.891 248.489 179.891 248.489C173.626 231.563 158.563 233.268 158.563 233.268V215.943H136.098V233.27C136.098 233.27 121.035 231.565 114.77 248.492C114.77 248.492 100.992 245.822 94.3262 263.03" stroke="#363636" stroke-linecap="round" stroke-linejoin="round"/>
<path d="M181.34 257.674C176.409 251.409 169.861 252.667 169.861 252.667C165.456 240.769 154.879 241.968 154.879 241.968V217.18H139.088V241.968C139.088 241.968 128.5 240.769 124.106 252.667C124.106 252.667 114.423 250.793 109.74 262.885" stroke="#363636" stroke-linecap="round" stroke-linejoin="round"/>
<path d="M136.328 232.992L136.305 233.04L136.294 233.09C136.289 233.112 136.277 233.131 136.26 233.145L136.576 233.532L136.26 233.145C136.243 233.159 136.222 233.166 136.2 233.167C136.178 233.168 136.157 233.161 136.139 233.148C136.123 233.137 136.11 233.12 136.104 233.102L133.132 221.536C132.629 219.256 132.628 216.895 133.127 214.617H163.029C163.574 216.984 163.725 219.425 163.475 221.842L160.456 233.207L160.452 233.22L160.449 233.234C160.445 233.256 160.434 233.275 160.417 233.289C160.401 233.304 160.38 233.312 160.358 233.314C160.336 233.315 160.315 233.309 160.297 233.297L160.018 233.712L160.297 233.297C160.279 233.285 160.265 233.267 160.258 233.246L160.256 233.239L160.253 233.232L158.022 227.201L157.551 225.926L157.084 227.203L157.084 227.204L157.083 227.205L157.081 227.212L157.071 227.239C157.062 227.263 157.048 227.299 157.03 227.347C156.994 227.442 156.941 227.582 156.87 227.76C156.73 228.117 156.524 228.628 156.261 229.241C155.735 230.467 154.984 232.094 154.083 233.706C153.18 235.324 152.139 236.904 151.038 238.05C149.92 239.215 148.836 239.835 147.84 239.763C146.817 239.69 145.794 238.98 144.807 237.807C143.831 236.647 142.959 235.113 142.226 233.564C141.496 232.02 140.915 230.483 140.517 229.33C140.318 228.754 140.165 228.275 140.062 227.941C140.01 227.775 139.971 227.644 139.945 227.555C139.932 227.511 139.923 227.477 139.916 227.455L139.909 227.43L139.907 227.424L139.907 227.422L139.907 227.422L139.907 227.422L139.543 226.128L138.973 227.345L136.328 232.992Z" fill="#CCEA17" stroke="#363636"/>
<path d="M124.392 170.369C124.539 170.155 124.663 169.979 124.759 169.842C124.38 179.978 126.535 192.173 134.171 206.175L112.339 206.162C111.566 197.588 114.649 188.52 117.992 181.514C119.689 177.959 121.444 174.951 122.776 172.834C123.441 171.775 124 170.939 124.392 170.369Z" fill="#363636" stroke="#363636"/>
<path d="M182.761 206.177H161.534C168.886 192.701 171.231 180.885 171.109 170.977C172.5 173.05 175.102 177.182 177.508 182.381C180.693 189.262 183.503 197.947 182.761 206.177Z" fill="#363636" stroke="#363636"/>
<path d="M160.698 206.678C173.071 184.439 171.725 166.785 168.11 154.694C164.496 142.602 156.005 129.129 147.945 129.129C139.885 129.129 131.402 142.613 127.788 154.704C124.173 166.796 122.645 184.45 135.014 206.689L131.552 214.117H164.169L160.698 206.678Z" stroke="#363636" stroke-linecap="round" stroke-linejoin="round"/>
<path d="M148.981 177.969C148.981 178.787 148.439 179.296 147.945 179.296C147.45 179.296 146.908 178.787 146.908 177.969C146.908 177.15 147.45 176.641 147.945 176.641C148.439 176.641 148.981 177.15 148.981 177.969Z" fill="#363636" stroke="#363636"/>
<path d="M154.895 177.969C154.895 178.787 154.353 179.296 153.859 179.296C153.364 179.296 152.822 178.787 152.822 177.969C152.822 177.15 153.364 176.641 153.859 176.641C154.353 176.641 154.895 177.15 154.895 177.969Z" fill="#363636" stroke="#363636"/>
<path d="M142.596 177.969C142.596 178.787 142.054 179.296 141.56 179.296C141.065 179.296 140.523 178.787 140.523 177.969C140.523 177.15 141.065 176.641 141.56 176.641C142.054 176.641 142.596 177.15 142.596 177.969Z" fill="#363636" stroke="#363636"/>
<path d="M147.943 171.095C151.783 171.095 154.897 167.392 154.897 162.825C154.897 158.258 151.783 154.555 147.943 154.555C144.102 154.555 140.988 158.258 140.988 162.825C140.988 167.392 144.102 171.095 147.943 171.095Z" stroke="#363636" stroke-linecap="round" stroke-linejoin="round"/>
<path d="M149.072 128.796V129.199L149.466 129.284C152.514 129.946 155.662 132.433 158.589 135.922C155.347 135.231 152.055 134.796 148.743 134.622C145.079 134.391 141.403 134.622 137.8 135.308C140.603 132.119 143.547 129.851 146.428 129.261L146.828 129.179V128.771V115.843V115.843V115.843V115.842V115.842V115.842V115.842V115.842V115.841V115.841V115.841V115.841V115.84V115.84V115.84V115.84V115.839V115.839V115.839V115.839V115.838V115.838V115.838V115.838V115.837V115.837V115.837V115.837V115.836V115.836V115.836V115.836V115.836V115.835V115.835V115.835V115.835V115.834V115.834V115.834V115.834V115.833V115.833V115.833V115.833V115.832V115.832V115.832V115.832V115.831V115.831V115.831V115.831V115.831V115.83V115.83V115.83V115.83V115.829V115.829V115.829V115.829V115.828V115.828V115.828V115.828V115.827V115.827V115.827V115.827V115.826V115.826V115.826V115.826V115.825V115.825V115.825V115.825V115.825V115.824V115.824V115.824V115.824V115.823V115.823V115.823V115.823V115.822V115.822V115.822V115.822V115.821V115.821V115.821V115.821V115.82V115.82V115.82V115.82V115.82V115.819V115.819V115.819V115.819V115.818V115.818V115.818V115.818V115.817V115.817V115.817V115.817V115.816V115.816V115.816V115.816V115.815V115.815V115.815V115.815V115.815V115.814V115.814V115.814V115.814V115.813V115.813V115.813V115.813V115.812V115.812V115.812V115.812V115.811V115.811V115.811V115.811V115.81V115.81V115.81V115.81V115.809V115.809V115.809V115.809V115.809V115.808V115.808V115.808V115.808V115.807V115.807V115.807V115.807V115.806V115.806V115.806V115.806V115.805V115.805V115.805V115.805V115.804V115.804V115.804V115.804V115.804V115.803V115.803V115.803V115.803V115.802V115.802V115.802V115.802V115.801V115.801V115.801V115.801V115.8V115.8V115.8V115.8V115.8V115.799V115.799V115.799V115.799V115.798V115.798V115.798V115.798V115.797V115.797V115.797V115.797V115.796V115.796V115.796V115.796V115.795V115.795V115.795V115.795V115.795V115.794V115.794V115.794V115.794V115.793V115.793V115.793V115.793V115.792V115.792V115.792V115.792V115.791V115.791V115.791V115.791V115.791V115.79V115.79V115.79V115.79V115.789V115.789V115.789V115.789V115.788V115.788V115.788V115.788V115.787V115.787V115.787V115.787V115.786V115.786V115.786V115.786V115.786V115.785V115.785V115.785V115.785V115.784V115.784V115.784V115.784V115.783V115.783V115.783V115.783V115.782V115.782V115.782V115.782V115.782V115.781V115.781V115.781V115.781V115.78V115.78V115.78V115.78V115.779V115.779V115.779V115.779V115.778V115.778V115.778V115.778V115.778V115.777V115.777V115.777V115.777V115.776V115.776V115.776V115.776V115.775V115.775V115.775V115.775V115.774V115.774V115.774V115.774V115.774V115.773V115.773V115.773V115.773V115.772V115.772V115.772V115.772V115.771V115.771V115.771V115.771V115.771V115.77V115.77V115.77V115.77V115.769V115.769V115.769V115.769V115.768V115.768V115.768V115.768V115.767V115.767V115.767V115.767V115.767V115.766V115.766V115.766V115.766V115.765V115.765V115.765V115.765V115.764V115.764V115.764V115.764V115.764V115.763V115.763V115.763V115.763V115.762V115.762V115.762V115.762V115.761V115.761V115.761V115.761V115.761V115.76V115.76V115.76V115.76V115.759V115.759V115.759V115.759V115.758V115.758V115.758V115.758V115.757V115.757V115.757V115.757V115.757V115.756V115.756V115.756V115.756V115.755V115.755V115.755V115.755V115.754V115.754V115.754V115.754V115.754V115.753V115.753V115.753V115.753V115.752V115.752V115.752V115.752V115.751V115.751V115.751V115.751V115.751V115.75V115.75V115.75V115.75V115.749V115.749V115.749V115.749V115.749V115.748V115.748V115.748V115.748V115.747V115.747V115.747V115.747V115.746V115.746V115.746V115.746V115.746V115.745V115.745V115.745V115.745V115.744V115.744V115.744V115.744V115.743V115.743V115.743V115.743V115.743V115.742V115.742V115.742V115.742V115.741V115.741V115.741V115.741V115.74V115.74V115.74V115.74V115.74V115.739V115.739V115.739V115.739V115.738V115.738V115.738V115.738V115.738V115.737V115.737V115.737V115.737V115.736V115.736V115.736V115.736V115.735V115.735V115.735V115.735V115.735V115.734V115.734V115.734V115.734V115.733V115.733V115.733V115.733V115.733V115.732V115.732V115.732V115.732V115.731V115.731V115.731V115.731V115.731V115.73V115.73V115.73V115.73V115.729V115.729V115.729V115.729V115.728V115.728V115.728V115.728V115.728V115.727V115.727V115.727V115.727V115.726V115.726V115.726V115.726V115.726V115.725V115.725V115.725V115.725V115.724V115.724V115.724V115.724V115.724V115.723V115.56L146.731 115.428C146.566 115.203 146.467 114.937 146.444 114.658C146.422 114.38 146.477 114.101 146.603 113.853C146.729 113.604 146.922 113.395 147.159 113.249C147.397 113.103 147.671 113.026 147.95 113.026C148.229 113.026 148.502 113.103 148.74 113.249C148.978 113.395 149.17 113.604 149.297 113.853C149.423 114.101 149.478 114.38 149.455 114.658C149.432 114.937 149.333 115.203 149.168 115.428L149.072 115.56V115.723V115.724V115.724V115.724V115.724V115.724V115.725V115.725V115.725V115.725V115.726V115.726V115.726V115.726V115.726V115.727V115.727V115.727V115.727V115.728V115.728V115.728V115.728V115.728V115.729V115.729V115.729V115.729V115.73V115.73V115.73V115.73V115.731V115.731V115.731V115.731V115.731V115.732V115.732V115.732V115.732V115.733V115.733V115.733V115.733V115.733V115.734V115.734V115.734V115.734V115.735V115.735V115.735V115.735V115.735V115.736V115.736V115.736V115.736V115.737V115.737V115.737V115.737V115.738V115.738V115.738V115.738V115.738V115.739V115.739V115.739V115.739V115.74V115.74V115.74V115.74V115.74V115.741V115.741V115.741V115.741V115.742V115.742V115.742V115.742V115.743V115.743V115.743V115.743V115.743V115.744V115.744V115.744V115.744V115.745V115.745V115.745V115.745V115.746V115.746V115.746V115.746V115.746V115.747V115.747V115.747V115.747V115.748V115.748V115.748V115.748V115.749V115.749V115.749V115.749V115.749V115.75V115.75V115.75V115.75V115.751V115.751V115.751V115.751V115.751V115.752V115.752V115.752V115.752V115.753V115.753V115.753V115.753V115.754V115.754V115.754V115.754V115.754V115.755V115.755V115.755V115.755V115.756V115.756V115.756V115.756V115.757V115.757V115.757V115.757V115.757V115.758V115.758V115.758V115.758V115.759V115.759V115.759V115.759V115.76V115.76V115.76V115.76V115.761V115.761V115.761V115.761V115.761V115.762V115.762V115.762V115.762V115.763V115.763V115.763V115.763V115.764V115.764V115.764V115.764V115.764V115.765V115.765V115.765V115.765V115.766V115.766V115.766V115.766V115.767V115.767V115.767V115.767V115.767V115.768V115.768V115.768V115.768V115.769V115.769V115.769V115.769V115.77V115.77V115.77V115.77V115.771V115.771V115.771V115.771V115.771V115.772V115.772V115.772V115.772V115.773V115.773V115.773V115.773V115.774V115.774V115.774V115.774V115.774V115.775V115.775V115.775V115.775V115.776V115.776V115.776V115.776V115.777V115.777V115.777V115.777V115.778V115.778V115.778V115.778V115.778V115.779V115.779V115.779V115.779V115.78V115.78V115.78V115.78V115.781V115.781V115.781V115.781V115.782V115.782V115.782V115.782V115.782V115.783V115.783V115.783V115.783V115.784V115.784V115.784V115.784V115.785V115.785V115.785V115.785V115.786V115.786V115.786V115.786V115.786V115.787V115.787V115.787V115.787V115.788V115.788V115.788V115.788V115.789V115.789V115.789V115.789V115.79V115.79V115.79V115.79V115.791V115.791V115.791V115.791V115.791V115.792V115.792V115.792V115.792V115.793V115.793V115.793V115.793V115.794V115.794V115.794V115.794V115.795V115.795V115.795V115.795V115.795V115.796V115.796V115.796V115.796V115.797V115.797V115.797V115.797V115.798V115.798V115.798V115.798V115.799V115.799V115.799V115.799V115.8V115.8V115.8V115.8V115.8V115.801V115.801V115.801V115.801V115.802V115.802V115.802V115.802V115.803V115.803V115.803V115.803V115.804V115.804V115.804V115.804V115.804V115.805V115.805V115.805V115.805V115.806V115.806V115.806V115.806V115.807V115.807V115.807V115.807V115.808V115.808V115.808V115.808V115.809V115.809V115.809V115.809V115.809V115.81V115.81V115.81V115.81V115.811V115.811V115.811V115.811V115.812V115.812V115.812V115.812V115.813V115.813V115.813V115.813V115.814V115.814V115.814V115.814V115.815V115.815V115.815V115.815V115.815V115.816V115.816V115.816V115.816V115.817V115.817V115.817V115.817V115.818V115.818V115.818V115.818V115.819V115.819V115.819V115.819V115.82V115.82V115.82V115.82V115.82V115.821V115.821V115.821V115.821V115.822V115.822V115.822V115.822V115.823V115.823V115.823V115.823V115.824V115.824V115.824V115.824V115.825V115.825V115.825V115.825V115.825V115.826V115.826V115.826V115.826V115.827V115.827V115.827V115.827V115.828V115.828V115.828V115.828V115.829V115.829V115.829V115.829V115.83V115.83V115.83V115.83V115.831V115.831V115.831V115.831V115.831V115.832V115.832V115.832V115.832V115.833V115.833V115.833V115.833V115.834V115.834V115.834V115.834V115.835V115.835V115.835V115.835V115.836V115.836V115.836V115.836V115.836V115.837V115.837V115.837V115.837V115.838V115.838V115.838V115.838V115.839V115.839V115.839V115.839V115.84V115.84V115.84V115.84V115.841V115.841V115.841V115.841V115.842V115.842V115.842V115.842V115.842V115.843V115.843V115.843V128.796Z" fill="#363636" stroke="#363636"/>
<path d="M148.025 141.18L148.027 141.18C152.993 141.351 157.905 142.257 162.605 143.868C163.961 146.395 165.129 149.018 166.099 151.716C161.747 149.893 156.094 148.271 148.179 148.129C139.796 147.978 134.116 150.104 129.518 152.252C130.534 149.343 131.78 146.518 133.243 143.804C137.139 142.3 141.85 140.942 148.025 141.18Z" fill="#363636" stroke="#363636"/>
<path d="M134.558 203.761C137.258 202.724 141.165 201.874 147.909 201.933L147.909 201.933L147.918 201.933C154.589 201.874 158.471 202.693 161.174 203.712C160.778 204.481 160.365 205.255 159.935 206.035C159.753 206.003 159.504 205.959 159.199 205.908C158.507 205.794 157.524 205.642 156.354 205.491C154.017 205.19 150.923 204.894 147.914 204.918C144.855 204.892 141.733 205.191 139.38 205.495C138.202 205.648 137.214 205.801 136.52 205.917C136.212 205.969 135.962 206.013 135.779 206.046C135.355 205.279 134.948 204.517 134.558 203.761Z" fill="#363636" stroke="#363636"/>
<path d="M202.438 253.896V250.418H233.019V253.896H202.438Z" fill="#CCEA17" stroke="#363636"/>
<path d="M227.137 249.918V254.758" stroke="#363636" stroke-miterlimit="10"/>
<path d="M251.165 262.851V254.406H183.175V257.972H167.627C167.34 257.451 166.889 257.041 166.344 256.805C165.798 256.569 165.19 256.522 164.615 256.67C164.039 256.818 163.529 257.153 163.165 257.622C162.801 258.092 162.604 258.669 162.604 259.263C162.604 259.857 162.801 260.434 163.165 260.904C163.529 261.373 164.039 261.709 164.615 261.856C165.19 262.004 165.798 261.957 166.344 261.721C166.889 261.485 167.34 261.075 167.627 260.554H183.175V262.851" stroke="#363636" stroke-linecap="round" stroke-linejoin="round"/>
<path d="M239.029 255.234V262.853" stroke="#363636" stroke-miterlimit="10"/>
<path d="M355.291 263.256H0.802734" stroke="#363636" stroke-linecap="round" stroke-linejoin="round"/>
</svg>
