<svg width="333" height="311" viewBox="0 0 333 311" fill="none" xmlns="http://www.w3.org/2000/svg">
<path fill-rule="evenodd" clip-rule="evenodd" d="M29.584 106.78C22.8272 110.174 18.5625 117.089 18.5625 124.651V290.387C18.5625 301.432 27.5168 310.387 38.5625 310.387H287.117C298.163 310.387 307.117 301.432 307.117 290.387V20.877C307.117 9.83126 298.163 0.876953 287.117 0.876953H118.723C107.677 0.876953 98.7226 9.83126 98.7226 20.877L98.7227 59.7108C98.7227 67.2725 94.458 74.1876 87.7011 77.5822L29.584 106.78Z" fill="#F2FFA2"/>
<path d="M72.8498 167.989H32.8815C30.5134 167.989 28.5938 169.908 28.5938 172.276V186.489C28.5938 188.857 30.5134 190.777 32.8815 190.777H72.8498C75.2178 190.777 77.1375 188.857 77.1375 186.489V172.276C77.1375 169.908 75.2178 167.989 72.8498 167.989Z" stroke="#363636" stroke-linecap="round" stroke-linejoin="round"/>
<path d="M36.9941 173.549H70.0162" stroke="#363636" stroke-linecap="round" stroke-linejoin="round"/>
<path d="M36.9941 177.223H62.9146" stroke="#363636" stroke-linecap="round" stroke-linejoin="round"/>
<path d="M36.9941 181.299H70.0162" stroke="#363636" stroke-linecap="round" stroke-linejoin="round"/>
<path d="M36.9941 184.969H62.9146" stroke="#363636" stroke-linecap="round" stroke-linejoin="round"/>
<path d="M34.7554 170.914C34.7554 173.522 32.6411 175.636 30.033 175.636C27.4249 175.636 25.3105 173.522 25.3105 170.914C25.3105 168.306 27.4249 166.191 30.033 166.191C32.6411 166.191 34.7554 168.306 34.7554 170.914Z" fill="#F8F8EF" stroke="#363636"/>
<path d="M144.926 202.517H140.201V199.166H144.926C145.186 199.166 145.436 199.269 145.62 199.453C145.804 199.637 145.907 199.887 145.907 200.147V201.536C145.907 201.796 145.804 202.046 145.62 202.23C145.436 202.413 145.186 202.517 144.926 202.517Z" fill="#F8F8EF" stroke="#363636"/>
<path d="M198.961 199.166H211.295C211.837 199.166 212.276 199.605 212.276 200.147V201.536C212.276 202.078 211.837 202.517 211.295 202.517H198.961C198.42 202.517 197.98 202.078 197.98 201.536V200.147C197.98 199.605 198.42 199.166 198.961 199.166Z" fill="#F8F8EF" stroke="#363636"/>
<path d="M151.534 199.166H191.98C192.522 199.166 192.961 199.605 192.961 200.147V201.536C192.961 202.078 192.522 202.517 191.98 202.517H151.534C150.992 202.517 150.553 202.078 150.553 201.536V200.147C150.553 199.605 150.992 199.166 151.534 199.166Z" fill="#F8F8EF" stroke="#363636"/>
<path d="M212.624 194.775H139.959C139.852 196.997 139.813 199.097 139.876 201.088C139.91 202.098 140.119 204.174 140.439 207.024H212.624C213.59 207.024 214.516 206.641 215.199 205.958C215.882 205.275 216.266 204.348 216.266 203.382V198.412C216.264 197.447 215.88 196.522 215.197 195.84C214.514 195.158 213.589 194.775 212.624 194.775Z" stroke="#363636" stroke-linecap="round" stroke-linejoin="round"/>
<path d="M60.9473 213.997V190.883" stroke="#363636" stroke-linecap="round" stroke-linejoin="round"/>
<path d="M102.865 245.828H66.2571C63.3242 245.828 60.9473 243.609 60.9473 240.87V237.957" stroke="#363636" stroke-linecap="round" stroke-linejoin="round"/>
<path d="M175.404 245.832H145.883" stroke="#363636" stroke-linecap="round" stroke-linejoin="round"/>
<path d="M274.569 207.484V240.873C274.569 243.612 272.192 245.831 269.259 245.831H242.236" stroke="#363636" stroke-linecap="round" stroke-linejoin="round"/>
<path d="M60.9473 167.767V139.676H274.57V155.112" stroke="#363636" stroke-linecap="round" stroke-linejoin="round"/>
<path d="M171.914 126.959L171.914 126.961C171.914 126.968 171.914 126.976 171.914 126.983H164.08L157.722 116.922C157.702 116.889 157.68 116.858 157.655 116.828C157.501 116.622 157.336 116.424 157.163 116.234H170.588C171.362 116.234 171.914 116.801 171.914 117.407L171.914 126.959ZM167.034 120.158V119.612C167.034 119.286 166.904 118.974 166.674 118.743C166.443 118.513 166.131 118.383 165.805 118.383C165.479 118.383 165.167 118.513 164.937 118.743C164.706 118.974 164.577 119.286 164.577 119.612V120.17H164.018C163.693 120.17 163.38 120.3 163.15 120.53C162.919 120.76 162.79 121.073 162.79 121.399C162.79 121.724 162.919 122.037 163.15 122.267C163.38 122.498 163.692 122.627 164.018 122.627H164.565V123.174C164.565 123.499 164.694 123.812 164.924 124.042C165.155 124.272 165.467 124.402 165.793 124.402C166.119 124.402 166.431 124.272 166.662 124.042C166.892 123.812 167.021 123.499 167.021 123.174V122.615H167.58C167.906 122.615 168.218 122.486 168.449 122.255C168.679 122.025 168.808 121.712 168.808 121.387C168.808 121.061 168.679 120.748 168.449 120.518C168.218 120.288 167.906 120.158 167.58 120.158H167.034Z" fill="#F8F8EF" stroke="#363636"/>
<mask id="path-18-inside-1_846_3052" fill="white">
<path d="M270.04 110.41L65.4274 110.67C62.4726 110.67 60.0859 113.207 60.0859 116.337L60.1976 127.651L96.1842 127.486L102.693 117.186C102.703 117.17 102.713 117.155 102.725 117.14C104.053 115.366 106.076 114.307 108.132 114.307H151.604C151.666 114.288 151.731 114.279 151.796 114.278H170.588C172.396 114.278 173.87 115.681 173.87 117.405V126.959C173.87 127.057 173.85 127.154 173.811 127.244C173.772 127.334 173.715 127.416 173.644 127.483H275.374V128.94H163.403C163.281 128.94 163.16 128.91 163.052 128.851C162.944 128.792 162.853 128.706 162.787 128.603L156.081 117.99C155.027 116.596 153.449 115.764 151.859 115.764H108.125C106.532 115.764 104.956 116.596 103.9 117.99L97.1991 128.603C97.1335 128.706 97.0432 128.79 96.9363 128.849C96.8294 128.908 96.7093 128.94 96.5872 128.94L60.2073 129.108L60.3287 141.441H275.394V116.077C275.389 112.947 272.992 110.41 270.04 110.41ZM68.9818 122.732C68.3367 122.732 67.706 122.541 67.1694 122.183C66.6328 121.825 66.2145 121.316 65.9674 120.72C65.7203 120.124 65.6555 119.468 65.7812 118.836C65.907 118.203 66.2176 117.622 66.6737 117.165C67.1299 116.709 67.7111 116.399 68.3439 116.273C68.9766 116.147 69.6324 116.212 70.2283 116.459C70.8242 116.706 71.3335 117.125 71.6916 117.661C72.0497 118.198 72.2406 118.828 72.2401 119.474C72.2401 120.338 71.8968 121.166 71.2858 121.778C70.6747 122.389 69.846 122.732 68.9818 122.732ZM79.7011 122.732C79.0561 122.732 78.4256 122.541 77.8893 122.182C77.353 121.824 76.9351 121.314 76.6884 120.718C76.4416 120.122 76.3772 119.467 76.5032 118.834C76.6292 118.202 76.94 117.621 77.3963 117.165C77.8525 116.709 78.4338 116.398 79.0664 116.273C79.6991 116.147 80.3548 116.212 80.9506 116.459C81.5463 116.707 82.0554 117.125 82.4134 117.661C82.7714 118.198 82.9622 118.829 82.9618 119.474C82.9618 119.902 82.8774 120.326 82.7135 120.721C82.5496 121.116 82.3094 121.476 82.0066 121.778C81.7038 122.081 81.3443 122.321 80.9487 122.485C80.5531 122.648 80.1292 122.732 79.7011 122.732ZM90.4228 122.732C89.7776 122.732 89.1469 122.541 88.6103 122.183C88.0737 121.825 87.6554 121.316 87.4083 120.72C87.1612 120.124 87.0964 119.468 87.2222 118.836C87.3479 118.203 87.6585 117.622 88.1147 117.165C88.5708 116.709 89.1521 116.399 89.7848 116.273C90.4175 116.147 91.0733 116.212 91.6693 116.459C92.2652 116.706 92.7744 117.125 93.1325 117.661C93.4906 118.198 93.6815 118.828 93.681 119.474C93.681 120.338 93.3377 121.166 92.7267 121.778C92.1157 122.389 91.2869 122.732 90.4228 122.732ZM264.031 120.571L262.649 121.581H262.737C262.93 121.591 263.111 121.678 263.24 121.822C263.37 121.966 263.437 122.155 263.426 122.348C263.416 122.541 263.329 122.723 263.186 122.852C263.042 122.981 262.852 123.048 262.659 123.038H262.581L260.761 122.844H260.676C260.561 122.844 260.447 122.817 260.345 122.765C260.242 122.713 260.153 122.638 260.086 122.545C260.026 122.464 259.984 122.371 259.961 122.273C259.939 122.175 259.938 122.073 259.957 121.974L260.331 120.056C260.368 119.867 260.479 119.7 260.64 119.592C260.8 119.484 260.997 119.445 261.187 119.482C261.376 119.519 261.543 119.631 261.651 119.791C261.759 119.952 261.798 120.148 261.761 120.338L261.737 120.467L263.193 119.408C263.27 119.348 263.358 119.303 263.453 119.278C263.547 119.252 263.646 119.246 263.743 119.259C263.839 119.272 263.933 119.305 264.017 119.355C264.1 119.405 264.174 119.472 264.231 119.551C264.289 119.63 264.33 119.719 264.352 119.815C264.375 119.91 264.378 120.008 264.361 120.105C264.344 120.201 264.309 120.293 264.256 120.375C264.203 120.457 264.134 120.528 264.053 120.583L264.031 120.571ZM269.156 116.81L268.79 118.609C268.756 118.774 268.667 118.922 268.537 119.028C268.407 119.134 268.244 119.192 268.076 119.192C268.026 119.192 267.977 119.187 267.928 119.177C267.739 119.138 267.573 119.026 267.467 118.865C267.361 118.703 267.323 118.507 267.362 118.318L267.379 118.233L265.998 119.243C265.841 119.357 265.646 119.404 265.455 119.374C265.264 119.345 265.093 119.24 264.979 119.084C264.865 118.928 264.818 118.733 264.848 118.542C264.877 118.351 264.982 118.179 265.138 118.065L266.595 117.007L266.464 116.992C266.368 116.981 266.275 116.952 266.191 116.905C266.107 116.858 266.033 116.795 265.973 116.72C265.852 116.567 265.797 116.373 265.819 116.18C265.841 115.987 265.939 115.81 266.092 115.69C266.244 115.569 266.438 115.513 266.631 115.535L268.574 115.759C268.674 115.77 268.771 115.803 268.858 115.854C268.946 115.905 269.022 115.973 269.081 116.055C269.162 116.162 269.211 116.289 269.225 116.422C269.238 116.555 269.214 116.69 269.156 116.81ZM147.884 121.617C147.812 121.554 147.753 121.476 147.711 121.39C147.669 121.303 147.644 121.209 147.638 121.113C147.627 120.919 147.692 120.729 147.821 120.583C147.95 120.438 148.131 120.349 148.325 120.337C148.519 120.326 148.71 120.391 148.855 120.52L149.868 121.404L150.897 120.542C151.046 120.423 151.235 120.367 151.425 120.386C151.614 120.405 151.789 120.497 151.911 120.643C152.033 120.789 152.093 120.977 152.079 121.167C152.064 121.357 151.975 121.533 151.832 121.659L150.977 122.373L151.817 123.101C151.964 123.228 152.054 123.409 152.067 123.603C152.081 123.796 152.017 123.987 151.889 124.134C151.762 124.28 151.581 124.37 151.387 124.384C151.194 124.397 151.003 124.333 150.856 124.206L149.846 123.322L148.814 124.184C148.665 124.303 148.476 124.359 148.287 124.34C148.097 124.321 147.923 124.228 147.801 124.082C147.678 123.936 147.618 123.748 147.633 123.559C147.648 123.369 147.736 123.192 147.879 123.067L148.734 122.353L147.884 121.617ZM76.6832 135.906H72.5339L73.5876 136.862C73.7113 136.996 73.7807 137.17 73.7821 137.352C73.7834 137.534 73.7167 137.71 73.5949 137.845C73.4731 137.981 73.3052 138.065 73.1241 138.083C72.943 138.1 72.7619 138.05 72.6164 137.94L70.3002 135.833C70.1758 135.774 70.0705 135.681 69.9966 135.565C69.9227 135.449 69.8832 135.315 69.8826 135.177C69.8826 135.177 69.8826 135.163 69.8826 135.155C69.8826 135.148 69.8826 135.141 69.8826 135.136C69.8831 135.034 69.905 134.934 69.9468 134.841C69.9887 134.748 70.0495 134.665 70.1254 134.597L72.5314 132.373C72.6734 132.242 72.8616 132.173 73.0547 132.181C73.2478 132.188 73.4298 132.272 73.5609 132.414C73.6919 132.556 73.7612 132.745 73.7534 132.938C73.7457 133.131 73.6616 133.313 73.5196 133.444L72.4319 134.449H76.6832C76.8764 134.449 77.0616 134.526 77.1982 134.662C77.3348 134.799 77.4116 134.984 77.4116 135.177C77.4116 135.371 77.3348 135.556 77.1982 135.692C77.0616 135.829 76.8764 135.906 76.6832 135.906ZM88.1478 135.177C88.1472 135.315 88.1076 135.449 88.0337 135.565C87.9598 135.681 87.8546 135.774 87.7302 135.833L85.414 137.94C85.281 138.061 85.1081 138.129 84.9284 138.13C84.7817 138.129 84.6388 138.084 84.5182 138C84.3976 137.917 84.305 137.799 84.2525 137.662C84.2001 137.525 84.1902 137.375 84.2241 137.233C84.258 137.09 84.3343 136.961 84.4428 136.862L85.4965 135.906H81.3375C81.1443 135.906 80.959 135.829 80.8225 135.692C80.6859 135.556 80.6091 135.371 80.6091 135.177C80.6091 134.984 80.6859 134.799 80.8225 134.662C80.959 134.526 81.1443 134.449 81.3375 134.449H85.6082L84.5205 133.444C84.3785 133.313 84.2944 133.131 84.2866 132.938C84.2789 132.745 84.3482 132.556 84.4792 132.414C84.6103 132.272 84.7923 132.188 84.9854 132.181C85.1784 132.173 85.3667 132.242 85.5087 132.373L87.9147 134.597C87.9906 134.665 88.0514 134.748 88.0933 134.841C88.1351 134.934 88.157 135.034 88.1575 135.136C88.1575 135.136 88.1575 135.148 88.1575 135.155C88.1575 135.163 88.1478 135.17 88.1478 135.177ZM242.515 136.588C242.515 136.91 242.387 137.219 242.159 137.446C241.932 137.674 241.623 137.802 241.301 137.802H97.6701C97.3481 137.802 97.0394 137.674 96.8117 137.446C96.584 137.219 96.4561 136.91 96.4561 136.588V134.311C96.4561 133.989 96.584 133.68 96.8117 133.452C97.0394 133.225 97.3481 133.097 97.6701 133.097H241.303C241.625 133.097 241.934 133.225 242.162 133.452C242.389 133.68 242.517 133.989 242.517 134.311L242.515 136.588ZM255.123 134.461L253.858 135.189L254.344 136.717C254.389 136.857 254.391 137.007 254.35 137.149C254.308 137.29 254.224 137.415 254.11 137.508C253.996 137.601 253.856 137.657 253.709 137.669C253.562 137.68 253.415 137.647 253.287 137.574L251.92 136.785L250.527 137.797C250.402 137.888 250.253 137.936 250.099 137.937C249.945 137.937 249.795 137.888 249.67 137.798C249.546 137.708 249.453 137.58 249.406 137.434C249.358 137.288 249.358 137.13 249.405 136.984L249.92 135.398L248.572 134.427C248.449 134.337 248.357 134.209 248.31 134.063C248.263 133.917 248.263 133.76 248.31 133.615C248.357 133.469 248.45 133.342 248.573 133.251C248.697 133.161 248.846 133.112 249 133.111H250.668L251.182 131.526C251.23 131.38 251.323 131.253 251.447 131.163C251.571 131.073 251.721 131.025 251.874 131.025C252.028 131.025 252.177 131.073 252.301 131.163C252.426 131.253 252.518 131.38 252.566 131.526L253.083 133.111H254.771C254.931 133.111 255.087 133.164 255.215 133.261C255.342 133.359 255.434 133.496 255.475 133.651C255.517 133.806 255.506 133.971 255.444 134.119C255.383 134.267 255.274 134.391 255.135 134.471L255.123 134.461ZM266.719 137.938H262.632C262.439 137.938 262.254 137.861 262.117 137.725C261.981 137.588 261.904 137.403 261.904 137.209C261.904 137.016 261.981 136.831 262.117 136.694C262.254 136.558 262.439 136.481 262.632 136.481H266.719C266.912 136.481 267.097 136.558 267.234 136.694C267.37 136.831 267.447 137.016 267.447 137.209C267.447 137.403 267.37 137.588 267.234 137.725C267.097 137.861 266.912 137.938 266.719 137.938ZM266.719 135.675H262.632C262.439 135.675 262.254 135.598 262.117 135.462C261.981 135.325 261.904 135.14 261.904 134.947C261.904 134.754 261.981 134.568 262.117 134.432C262.254 134.295 262.439 134.218 262.632 134.218H266.719C266.912 134.218 267.097 134.295 267.234 134.432C267.37 134.568 267.447 134.754 267.447 134.947C267.447 135.14 267.37 135.325 267.234 135.462C267.097 135.598 266.912 135.675 266.719 135.675ZM266.719 133.415H262.632C262.439 133.415 262.254 133.338 262.117 133.201C261.981 133.065 261.904 132.879 261.904 132.686C261.904 132.493 261.981 132.308 262.117 132.171C262.254 132.035 262.439 131.958 262.632 131.958H266.719C266.912 131.958 267.097 132.035 267.234 132.171C267.37 132.308 267.447 132.493 267.447 132.686C267.447 132.879 267.37 133.065 267.234 133.201C267.097 133.338 266.912 133.415 266.719 133.415Z"/>
</mask>
<path d="M270.04 110.41L65.4274 110.67C62.4726 110.67 60.0859 113.207 60.0859 116.337L60.1976 127.651L96.1842 127.486L102.693 117.186C102.703 117.17 102.713 117.155 102.725 117.14C104.053 115.366 106.076 114.307 108.132 114.307H151.604C151.666 114.288 151.731 114.279 151.796 114.278H170.588C172.396 114.278 173.87 115.681 173.87 117.405V126.959C173.87 127.057 173.85 127.154 173.811 127.244C173.772 127.334 173.715 127.416 173.644 127.483H275.374V128.94H163.403C163.281 128.94 163.16 128.91 163.052 128.851C162.944 128.792 162.853 128.706 162.787 128.603L156.081 117.99C155.027 116.596 153.449 115.764 151.859 115.764H108.125C106.532 115.764 104.956 116.596 103.9 117.99L97.1991 128.603C97.1335 128.706 97.0432 128.79 96.9363 128.849C96.8294 128.908 96.7093 128.94 96.5872 128.94L60.2073 129.108L60.3287 141.441H275.394V116.077C275.389 112.947 272.992 110.41 270.04 110.41ZM68.9818 122.732C68.3367 122.732 67.706 122.541 67.1694 122.183C66.6328 121.825 66.2145 121.316 65.9674 120.72C65.7203 120.124 65.6555 119.468 65.7812 118.836C65.907 118.203 66.2176 117.622 66.6737 117.165C67.1299 116.709 67.7111 116.399 68.3439 116.273C68.9766 116.147 69.6324 116.212 70.2283 116.459C70.8242 116.706 71.3335 117.125 71.6916 117.661C72.0497 118.198 72.2406 118.828 72.2401 119.474C72.2401 120.338 71.8968 121.166 71.2858 121.778C70.6747 122.389 69.846 122.732 68.9818 122.732ZM79.7011 122.732C79.0561 122.732 78.4256 122.541 77.8893 122.182C77.353 121.824 76.9351 121.314 76.6884 120.718C76.4416 120.122 76.3772 119.467 76.5032 118.834C76.6292 118.202 76.94 117.621 77.3963 117.165C77.8525 116.709 78.4338 116.398 79.0664 116.273C79.6991 116.147 80.3548 116.212 80.9506 116.459C81.5463 116.707 82.0554 117.125 82.4134 117.661C82.7714 118.198 82.9622 118.829 82.9618 119.474C82.9618 119.902 82.8774 120.326 82.7135 120.721C82.5496 121.116 82.3094 121.476 82.0066 121.778C81.7038 122.081 81.3443 122.321 80.9487 122.485C80.5531 122.648 80.1292 122.732 79.7011 122.732ZM90.4228 122.732C89.7776 122.732 89.1469 122.541 88.6103 122.183C88.0737 121.825 87.6554 121.316 87.4083 120.72C87.1612 120.124 87.0964 119.468 87.2222 118.836C87.3479 118.203 87.6585 117.622 88.1147 117.165C88.5708 116.709 89.1521 116.399 89.7848 116.273C90.4175 116.147 91.0733 116.212 91.6693 116.459C92.2652 116.706 92.7744 117.125 93.1325 117.661C93.4906 118.198 93.6815 118.828 93.681 119.474C93.681 120.338 93.3377 121.166 92.7267 121.778C92.1157 122.389 91.2869 122.732 90.4228 122.732ZM264.031 120.571L262.649 121.581H262.737C262.93 121.591 263.111 121.678 263.24 121.822C263.37 121.966 263.437 122.155 263.426 122.348C263.416 122.541 263.329 122.723 263.186 122.852C263.042 122.981 262.852 123.048 262.659 123.038H262.581L260.761 122.844H260.676C260.561 122.844 260.447 122.817 260.345 122.765C260.242 122.713 260.153 122.638 260.086 122.545C260.026 122.464 259.984 122.371 259.961 122.273C259.939 122.175 259.938 122.073 259.957 121.974L260.331 120.056C260.368 119.867 260.479 119.7 260.64 119.592C260.8 119.484 260.997 119.445 261.187 119.482C261.376 119.519 261.543 119.631 261.651 119.791C261.759 119.952 261.798 120.148 261.761 120.338L261.737 120.467L263.193 119.408C263.27 119.348 263.358 119.303 263.453 119.278C263.547 119.252 263.646 119.246 263.743 119.259C263.839 119.272 263.933 119.305 264.017 119.355C264.1 119.405 264.174 119.472 264.231 119.551C264.289 119.63 264.33 119.719 264.352 119.815C264.375 119.91 264.378 120.008 264.361 120.105C264.344 120.201 264.309 120.293 264.256 120.375C264.203 120.457 264.134 120.528 264.053 120.583L264.031 120.571ZM269.156 116.81L268.79 118.609C268.756 118.774 268.667 118.922 268.537 119.028C268.407 119.134 268.244 119.192 268.076 119.192C268.026 119.192 267.977 119.187 267.928 119.177C267.739 119.138 267.573 119.026 267.467 118.865C267.361 118.703 267.323 118.507 267.362 118.318L267.379 118.233L265.998 119.243C265.841 119.357 265.646 119.404 265.455 119.374C265.264 119.345 265.093 119.24 264.979 119.084C264.865 118.928 264.818 118.733 264.848 118.542C264.877 118.351 264.982 118.179 265.138 118.065L266.595 117.007L266.464 116.992C266.368 116.981 266.275 116.952 266.191 116.905C266.107 116.858 266.033 116.795 265.973 116.72C265.852 116.567 265.797 116.373 265.819 116.18C265.841 115.987 265.939 115.81 266.092 115.69C266.244 115.569 266.438 115.513 266.631 115.535L268.574 115.759C268.674 115.77 268.771 115.803 268.858 115.854C268.946 115.905 269.022 115.973 269.081 116.055C269.162 116.162 269.211 116.289 269.225 116.422C269.238 116.555 269.214 116.69 269.156 116.81ZM147.884 121.617C147.812 121.554 147.753 121.476 147.711 121.39C147.669 121.303 147.644 121.209 147.638 121.113C147.627 120.919 147.692 120.729 147.821 120.583C147.95 120.438 148.131 120.349 148.325 120.337C148.519 120.326 148.71 120.391 148.855 120.52L149.868 121.404L150.897 120.542C151.046 120.423 151.235 120.367 151.425 120.386C151.614 120.405 151.789 120.497 151.911 120.643C152.033 120.789 152.093 120.977 152.079 121.167C152.064 121.357 151.975 121.533 151.832 121.659L150.977 122.373L151.817 123.101C151.964 123.228 152.054 123.409 152.067 123.603C152.081 123.796 152.017 123.987 151.889 124.134C151.762 124.28 151.581 124.37 151.387 124.384C151.194 124.397 151.003 124.333 150.856 124.206L149.846 123.322L148.814 124.184C148.665 124.303 148.476 124.359 148.287 124.34C148.097 124.321 147.923 124.228 147.801 124.082C147.678 123.936 147.618 123.748 147.633 123.559C147.648 123.369 147.736 123.192 147.879 123.067L148.734 122.353L147.884 121.617ZM76.6832 135.906H72.5339L73.5876 136.862C73.7113 136.996 73.7807 137.17 73.7821 137.352C73.7834 137.534 73.7167 137.71 73.5949 137.845C73.4731 137.981 73.3052 138.065 73.1241 138.083C72.943 138.1 72.7619 138.05 72.6164 137.94L70.3002 135.833C70.1758 135.774 70.0705 135.681 69.9966 135.565C69.9227 135.449 69.8832 135.315 69.8826 135.177C69.8826 135.177 69.8826 135.163 69.8826 135.155C69.8826 135.148 69.8826 135.141 69.8826 135.136C69.8831 135.034 69.905 134.934 69.9468 134.841C69.9887 134.748 70.0495 134.665 70.1254 134.597L72.5314 132.373C72.6734 132.242 72.8616 132.173 73.0547 132.181C73.2478 132.188 73.4298 132.272 73.5609 132.414C73.6919 132.556 73.7612 132.745 73.7534 132.938C73.7457 133.131 73.6616 133.313 73.5196 133.444L72.4319 134.449H76.6832C76.8764 134.449 77.0616 134.526 77.1982 134.662C77.3348 134.799 77.4116 134.984 77.4116 135.177C77.4116 135.371 77.3348 135.556 77.1982 135.692C77.0616 135.829 76.8764 135.906 76.6832 135.906ZM88.1478 135.177C88.1472 135.315 88.1076 135.449 88.0337 135.565C87.9598 135.681 87.8546 135.774 87.7302 135.833L85.414 137.94C85.281 138.061 85.1081 138.129 84.9284 138.13C84.7817 138.129 84.6388 138.084 84.5182 138C84.3976 137.917 84.305 137.799 84.2525 137.662C84.2001 137.525 84.1902 137.375 84.2241 137.233C84.258 137.09 84.3343 136.961 84.4428 136.862L85.4965 135.906H81.3375C81.1443 135.906 80.959 135.829 80.8225 135.692C80.6859 135.556 80.6091 135.371 80.6091 135.177C80.6091 134.984 80.6859 134.799 80.8225 134.662C80.959 134.526 81.1443 134.449 81.3375 134.449H85.6082L84.5205 133.444C84.3785 133.313 84.2944 133.131 84.2866 132.938C84.2789 132.745 84.3482 132.556 84.4792 132.414C84.6103 132.272 84.7923 132.188 84.9854 132.181C85.1784 132.173 85.3667 132.242 85.5087 132.373L87.9147 134.597C87.9906 134.665 88.0514 134.748 88.0933 134.841C88.1351 134.934 88.157 135.034 88.1575 135.136C88.1575 135.136 88.1575 135.148 88.1575 135.155C88.1575 135.163 88.1478 135.17 88.1478 135.177ZM242.515 136.588C242.515 136.91 242.387 137.219 242.159 137.446C241.932 137.674 241.623 137.802 241.301 137.802H97.6701C97.3481 137.802 97.0394 137.674 96.8117 137.446C96.584 137.219 96.4561 136.91 96.4561 136.588V134.311C96.4561 133.989 96.584 133.68 96.8117 133.452C97.0394 133.225 97.3481 133.097 97.6701 133.097H241.303C241.625 133.097 241.934 133.225 242.162 133.452C242.389 133.68 242.517 133.989 242.517 134.311L242.515 136.588ZM255.123 134.461L253.858 135.189L254.344 136.717C254.389 136.857 254.391 137.007 254.35 137.149C254.308 137.29 254.224 137.415 254.11 137.508C253.996 137.601 253.856 137.657 253.709 137.669C253.562 137.68 253.415 137.647 253.287 137.574L251.92 136.785L250.527 137.797C250.402 137.888 250.253 137.936 250.099 137.937C249.945 137.937 249.795 137.888 249.67 137.798C249.546 137.708 249.453 137.58 249.406 137.434C249.358 137.288 249.358 137.13 249.405 136.984L249.92 135.398L248.572 134.427C248.449 134.337 248.357 134.209 248.31 134.063C248.263 133.917 248.263 133.76 248.31 133.615C248.357 133.469 248.45 133.342 248.573 133.251C248.697 133.161 248.846 133.112 249 133.111H250.668L251.182 131.526C251.23 131.38 251.323 131.253 251.447 131.163C251.571 131.073 251.721 131.025 251.874 131.025C252.028 131.025 252.177 131.073 252.301 131.163C252.426 131.253 252.518 131.38 252.566 131.526L253.083 133.111H254.771C254.931 133.111 255.087 133.164 255.215 133.261C255.342 133.359 255.434 133.496 255.475 133.651C255.517 133.806 255.506 133.971 255.444 134.119C255.383 134.267 255.274 134.391 255.135 134.471L255.123 134.461ZM266.719 137.938H262.632C262.439 137.938 262.254 137.861 262.117 137.725C261.981 137.588 261.904 137.403 261.904 137.209C261.904 137.016 261.981 136.831 262.117 136.694C262.254 136.558 262.439 136.481 262.632 136.481H266.719C266.912 136.481 267.097 136.558 267.234 136.694C267.37 136.831 267.447 137.016 267.447 137.209C267.447 137.403 267.37 137.588 267.234 137.725C267.097 137.861 266.912 137.938 266.719 137.938ZM266.719 135.675H262.632C262.439 135.675 262.254 135.598 262.117 135.462C261.981 135.325 261.904 135.14 261.904 134.947C261.904 134.754 261.981 134.568 262.117 134.432C262.254 134.295 262.439 134.218 262.632 134.218H266.719C266.912 134.218 267.097 134.295 267.234 134.432C267.37 134.568 267.447 134.754 267.447 134.947C267.447 135.14 267.37 135.325 267.234 135.462C267.097 135.598 266.912 135.675 266.719 135.675ZM266.719 133.415H262.632C262.439 133.415 262.254 133.338 262.117 133.201C261.981 133.065 261.904 132.879 261.904 132.686C261.904 132.493 261.981 132.308 262.117 132.171C262.254 132.035 262.439 131.958 262.632 131.958H266.719C266.912 131.958 267.097 132.035 267.234 132.171C267.37 132.308 267.447 132.493 267.447 132.686C267.447 132.879 267.37 133.065 267.234 133.201C267.097 133.338 266.912 133.415 266.719 133.415Z" fill="#F8F8EF" stroke="#363636" stroke-width="2" mask="url(#path-18-inside-1_846_3052)"/>
<path d="M215.823 172.552V172.553V184.659C215.821 185.642 215.428 186.584 214.732 187.278C214.036 187.971 213.094 188.361 212.111 188.361H140.883C140.991 187.012 141.11 185.616 141.232 184.171C141.558 180.326 141.914 176.129 142.188 171.51C142.244 170.626 142.312 169.733 142.39 168.838H212.111C212.599 168.838 213.082 168.934 213.532 169.121C213.983 169.307 214.392 169.581 214.737 169.926C215.082 170.271 215.355 170.68 215.541 171.131C215.728 171.582 215.824 172.065 215.823 172.552Z" fill="#F8F8EF" stroke="#363636"/>
<path d="M237.435 227.443H180.291C177.61 227.443 175.436 229.617 175.436 232.299V257.108C175.436 259.789 177.61 261.963 180.291 261.963H237.435C240.117 261.963 242.291 259.789 242.291 257.108V232.299C242.291 229.617 240.117 227.443 237.435 227.443Z" stroke="#363636" stroke-linecap="round" stroke-linejoin="round"/>
<path d="M191.77 248.83C195.587 248.83 198.682 245.736 198.682 241.918C198.682 238.101 195.587 235.006 191.77 235.006C187.952 235.006 184.857 238.101 184.857 241.918C184.857 245.736 187.952 248.83 191.77 248.83Z" stroke="#363636" stroke-linecap="round" stroke-linejoin="round"/>
<path d="M230.502 248.982H221.854C220.987 248.982 220.285 249.685 220.285 250.551V251.425C220.285 252.291 220.987 252.993 221.854 252.993H230.502C231.368 252.993 232.07 252.291 232.07 251.425V250.551C232.07 249.685 231.368 248.982 230.502 248.982Z" stroke="#363636" stroke-linecap="round" stroke-linejoin="round"/>
<path d="M181.627 229.146C181.627 231.754 179.512 233.869 176.904 233.869C174.296 233.869 172.182 231.754 172.182 229.146C172.182 226.538 174.296 224.424 176.904 224.424C179.512 224.424 181.627 226.538 181.627 229.146Z" fill="#F8F8EF" stroke="#363636"/>
<path d="M203.203 240.836L231.382 240.916" stroke="#363636" stroke-linecap="round" stroke-linejoin="round"/>
<path d="M203.512 244.391L231.69 244.471" stroke="#363636" stroke-linecap="round" stroke-linejoin="round"/>
<path d="M295.365 155.229L245.059 155.098C242.151 155.09 239.787 157.442 239.779 160.35L239.67 202.047C239.662 204.955 242.014 207.319 244.922 207.327L295.229 207.459C298.137 207.466 300.501 205.115 300.509 202.206L300.618 160.509C300.625 157.601 298.274 155.237 295.365 155.229Z" stroke="#363636" stroke-linecap="round" stroke-linejoin="round"/>
<path d="M290.336 180.137H279.544C278.797 180.137 278.191 180.742 278.191 181.489V192.475C278.191 193.222 278.797 193.828 279.544 193.828H290.336C291.083 193.828 291.688 193.222 291.688 192.475V181.489C291.688 180.742 291.083 180.137 290.336 180.137Z" stroke="#363636" stroke-linecap="round" stroke-linejoin="round"/>
<path d="M287.911 166.535L252.774 166.443C251.641 166.44 250.72 167.356 250.717 168.489L250.703 174.02C250.7 175.153 251.616 176.074 252.749 176.077L287.886 176.169C289.019 176.172 289.94 175.256 289.943 174.123L289.957 168.592C289.96 167.459 289.044 166.538 287.911 166.535Z" stroke="#363636" stroke-linecap="round" stroke-linejoin="round"/>
<path d="M251.193 193.375L273.414 193.438" stroke="#363636" stroke-linecap="round" stroke-linejoin="round"/>
<path d="M251.209 187.578L273.429 187.641" stroke="#363636" stroke-linecap="round" stroke-linejoin="round"/>
<path d="M251.225 181.777L273.445 181.843" stroke="#363636" stroke-linecap="round" stroke-linejoin="round"/>
<path d="M246.923 156.662C246.923 159.27 244.809 161.384 242.201 161.384C239.593 161.384 237.479 159.27 237.479 156.662C237.479 154.054 239.593 151.939 242.201 151.939C244.809 151.939 246.923 154.054 246.923 156.662Z" fill="#F8F8EF" stroke="#363636"/>
<path d="M69.1812 213.932H8.05108C6.04241 213.932 4.41406 215.56 4.41406 217.569V234.154C4.41406 236.162 6.04241 237.791 8.05108 237.791H69.1812C71.1898 237.791 72.8182 236.162 72.8182 234.154V217.569C72.8182 215.56 71.1898 213.932 69.1812 213.932Z" stroke="#363636" stroke-linecap="round" stroke-linejoin="round"/>
<path d="M13.5645 223.111H62.5768" stroke="#363636" stroke-linecap="round" stroke-linejoin="round"/>
<path d="M13.5645 228.375H56.8372" stroke="#363636" stroke-linecap="round" stroke-linejoin="round"/>
<path d="M10.7476 214.824C10.7476 217.432 8.63332 219.546 6.02518 219.546C3.41705 219.546 1.30273 217.432 1.30273 214.824C1.30273 212.216 3.41705 210.102 6.02518 210.102C8.63332 210.102 10.7476 212.216 10.7476 214.824Z" fill="#F8F8EF" stroke="#363636"/>
<path d="M126.243 142.929L121.852 150.102C125.53 153.03 128.592 156.5 130.279 158.566M126.243 142.929L103.196 104.846C100.938 77.9446 120.895 54.2967 147.796 52.029C174.698 49.7614 198.346 69.731 200.621 96.6323C202.881 123.534 182.914 147.179 156.013 149.447C151.591 149.823 147.138 149.594 142.778 148.767M126.243 142.929C126.243 142.93 126.244 142.93 126.244 142.93L126.504 142.503L126.243 142.929ZM130.279 158.566L131.197 159.467C131.201 159.267 131.208 159.04 131.219 158.788M130.279 158.566L130.629 158.209L130.649 158.228M130.279 158.566L130.666 158.25C130.661 158.243 130.655 158.235 130.649 158.228M131.219 158.788L131.702 159.262C131.793 156.024 132.608 146.815 138.716 146.023M131.219 158.788L130.649 158.228M131.219 158.788C131.287 157.218 131.516 154.714 132.239 152.307C133.178 149.179 135.023 145.998 138.651 145.528M138.716 146.023C140.952 145.732 142.176 146.798 142.778 148.767M138.716 146.023L138.651 145.528M138.716 146.023L138.652 145.528C138.652 145.528 138.652 145.528 138.651 145.528M142.778 148.767L142.871 148.276C142.968 148.294 143.064 148.312 143.161 148.33M142.778 148.767L143.256 148.621C143.226 148.522 143.194 148.425 143.161 148.33M130.649 158.228C129 156.212 126.059 152.876 122.508 149.988L126.93 142.764L127.192 142.336L126.763 142.075C120.251 138.122 114.767 132.685 110.757 126.207C106.748 119.73 104.328 112.396 103.694 104.804L103.694 104.804C101.459 78.1776 121.213 54.7717 147.838 52.5273C174.465 50.2828 197.871 70.048 200.122 96.6741C202.36 123.3 182.597 146.704 155.971 148.949L155.97 148.949C151.691 149.312 147.384 149.104 143.161 148.33M138.651 145.528C139.861 145.37 140.863 145.573 141.652 146.142C142.359 146.651 142.839 147.414 143.161 148.33M133.341 134.325C139.984 137.997 147.566 139.616 155.13 138.978C165.271 138.123 174.658 133.274 181.224 125.498C187.791 117.723 190.999 107.657 190.145 97.5153C189.507 89.9521 186.641 82.7478 181.909 76.8134C177.177 70.879 170.792 66.481 163.561 64.1757C156.329 61.8704 148.576 61.7613 141.283 63.8621C133.989 65.963 127.483 70.1794 122.586 75.9783C117.688 81.7771 114.621 88.898 113.771 96.4402C112.921 103.983 114.326 111.607 117.81 118.351C121.293 125.094 126.698 130.653 133.341 134.325Z" fill="#CCEA17" stroke="#363636"/>
<path d="M131.694 160.383C131.694 160.383 131.289 146.988 138.714 146.027C146.138 145.065 142.426 159.05 141.69 171.484C140.955 183.917 139.624 193.26 139.872 201.104C140.119 208.949 150.666 281.085 150.666 281.085L102.475 281.242L103.016 212.367C103.016 212.367 81.4342 196.899 82.1893 174.465C83.6703 156.36 96.4533 147.984 107.544 145.184C118.635 142.385 131.694 160.383 131.694 160.383Z" stroke="#363636" stroke-linecap="round" stroke-linejoin="round"/>
<path d="M80.1746 212.048L80.1744 212.048C79.798 212.658 79.8381 213.557 80.3985 214.599C80.9517 215.629 81.9703 216.702 83.338 217.547L83.3384 217.547L84.8287 218.469L80.1746 212.048ZM80.1746 212.048L93.0988 191.09M80.1746 212.048L93.0988 191.09M93.0988 191.09L103.306 198.804L91.1597 218.841C91.1594 218.841 91.159 218.842 91.1587 218.842C90.782 219.451 89.9614 219.816 88.7797 219.78C87.6122 219.745 86.1968 219.314 84.8291 218.47L93.0988 191.09Z" fill="#CCEA17" stroke="#363636"/>
<path d="M90.7148 188.807C90.7148 188.807 105.989 201 111.838 202.248C117.687 203.496 121.909 202.124 122.712 198.222C123.516 194.32 110.658 182.81 98.8629 178.09" stroke="#363636" stroke-linecap="round" stroke-linejoin="round"/>
<path d="M102.225 165.453C102.225 165.453 117.319 172.477 125.29 181.88C132.938 190.298 129.043 200.243 122.342 196.307" stroke="#363636" stroke-linecap="round" stroke-linejoin="round"/>
<path d="M104.061 154.654C104.061 154.654 122.887 160.646 130.501 173.981C138.115 187.315 129.238 189.276 129.238 189.276" stroke="#363636" stroke-linecap="round" stroke-linejoin="round"/>
<path d="M131.627 159.926C140.297 175.547 132.598 178.565 132.598 178.565" stroke="#363636" stroke-linecap="round" stroke-linejoin="round"/>
<path d="M1.96875 281.418H331.91" stroke="#363636" stroke-linecap="round" stroke-linejoin="round"/>
</svg>
