<svg width="303" height="310" viewBox="0 0 303 310" fill="none" xmlns="http://www.w3.org/2000/svg">
<path fill-rule="evenodd" clip-rule="evenodd" d="M11.7071 105.957C4.9502 109.352 0.685547 116.267 0.685547 123.829V289.564C0.685547 300.61 9.63986 309.564 20.6856 309.564H269.24C280.286 309.564 289.24 300.61 289.24 289.564V20.0547C289.24 9.00899 280.286 0.0546875 269.24 0.0546875H100.846C89.8 0.0546875 80.8457 9.00899 80.8457 20.0547L80.8457 58.8885C80.8457 66.4502 76.581 73.3653 69.8242 76.7599L11.7071 105.957Z" fill="#F2FFA2"/>
<path d="M163.93 215.3H17.1881C14.3486 215.3 12.0488 213.136 12.0488 210.459V111.711H218.847V118.644" stroke="#363636" stroke-linecap="round" stroke-linejoin="round"/>
<path d="M207.291 104.369H211.247" stroke="#FEFFF5" stroke-linecap="round" stroke-linejoin="round"/>
<path d="M207.291 106.557H211.247" stroke="#FEFFF5" stroke-linecap="round" stroke-linejoin="round"/>
<path d="M207.291 108.748H211.247" stroke="#FEFFF5" stroke-linecap="round" stroke-linejoin="round"/>
<path d="M118.185 89.6016H104.244C104.64 89.9282 104.995 90.3013 105.302 90.7127C105.314 90.7283 105.325 90.7444 105.336 90.7611L111.63 100.72H119.984C119.949 100.633 119.931 100.54 119.931 100.447V91.1968C119.933 90.3181 119.149 89.6016 118.185 89.6016ZM115.28 96.5056H114.276V97.5102C114.276 97.7028 114.199 97.8875 114.063 98.0237C113.927 98.1599 113.742 98.2364 113.55 98.2364C113.357 98.2364 113.172 98.1599 113.036 98.0237C112.9 97.8875 112.823 97.7028 112.823 97.5102V96.5177H111.838C111.645 96.5177 111.461 96.4412 111.325 96.305C111.188 96.1688 111.112 95.9841 111.112 95.7914C111.112 95.5988 111.188 95.4141 111.325 95.2779C111.461 95.1417 111.645 95.0652 111.838 95.0652H112.843V94.063C112.843 93.8704 112.919 93.6857 113.055 93.5495C113.192 93.4133 113.376 93.3368 113.569 93.3368C113.762 93.3368 113.946 93.4133 114.082 93.5495C114.219 93.6857 114.295 93.8704 114.295 94.063V95.0531H115.285C115.478 95.0531 115.663 95.1296 115.799 95.2658C115.935 95.402 116.011 95.5867 116.011 95.7793C116.011 95.972 115.935 96.1567 115.799 96.2929C115.663 96.4291 115.478 96.5056 115.285 96.5056H115.28Z" fill="#363636"/>
<path d="M219.624 102.173H111.23C111.109 102.172 110.991 102.14 110.885 102.08C110.78 102.021 110.691 101.937 110.627 101.835L104.125 91.5633C103.325 90.513 102.153 89.8108 100.849 89.6025H99.9948C99.8921 89.602 99.7906 89.5797 99.6971 89.5371H57.7187C56.9298 89.5389 56.1521 89.7226 55.4458 90.074C54.7396 90.4255 54.124 90.9351 53.6469 91.5633L47.1544 101.835C47.0894 101.938 46.9994 102.023 46.8928 102.082C46.7862 102.141 46.6664 102.173 46.5444 102.173L11.332 102.333L11.4434 113.394H219.629V102.171L219.624 102.173ZM96.1942 95.0782C96.1184 95.0168 96.0558 94.9407 96.0101 94.8546C95.9643 94.7684 95.9364 94.6739 95.928 94.5767C95.9196 94.4795 95.9309 94.3816 95.9611 94.2889C95.9914 94.1961 96.04 94.1104 96.1041 94.0369C96.1682 93.9633 96.2465 93.9035 96.3342 93.8609C96.422 93.8182 96.5174 93.7937 96.6148 93.7888C96.7123 93.7838 96.8097 93.7986 96.9013 93.8321C96.9929 93.8657 97.0768 93.9174 97.148 93.984L98.1163 94.8265L99.1016 94.0034C99.2498 93.8848 99.4386 93.829 99.6274 93.8478C99.8163 93.8667 99.9903 93.9588 100.112 94.1044C100.234 94.2499 100.294 94.4374 100.279 94.6267C100.265 94.816 100.176 94.9919 100.034 95.117L99.225 95.7924L100.019 96.4847C100.131 96.5823 100.21 96.7118 100.246 96.8557C100.282 96.9997 100.273 97.1512 100.22 97.2899C100.168 97.4286 100.074 97.5478 99.951 97.6315C99.8285 97.7152 99.6833 97.7594 99.5349 97.758C99.357 97.7596 99.1847 97.6959 99.0507 97.5789L98.0824 96.7365L97.0996 97.5595C96.9514 97.6781 96.7626 97.734 96.5737 97.7151C96.3848 97.6962 96.2108 97.6041 96.089 97.4586C95.9671 97.313 95.9071 97.1255 95.9218 96.9362C95.9365 96.747 96.0247 96.571 96.1676 96.446L96.9761 95.7706L96.1942 95.0782ZM27.28 108.472H23.3196L24.2879 109.363C24.3699 109.423 24.4384 109.5 24.4889 109.588C24.5394 109.676 24.5709 109.774 24.5813 109.875C24.5916 109.976 24.5806 110.078 24.549 110.175C24.5174 110.271 24.4659 110.36 24.3978 110.436C24.3297 110.511 24.2465 110.571 24.1537 110.613C24.0608 110.654 23.9603 110.675 23.8587 110.675C23.7571 110.675 23.6566 110.654 23.5637 110.613C23.4709 110.571 23.3877 110.511 23.3196 110.436L21.078 108.4C20.9549 108.34 20.851 108.248 20.7782 108.132C20.7054 108.017 20.6667 107.883 20.6665 107.746C20.6665 107.746 20.6665 107.732 20.6665 107.724C20.6665 107.717 20.6665 107.724 20.6665 107.705C20.6674 107.604 20.6894 107.504 20.731 107.412C20.7727 107.32 20.8332 107.237 20.9086 107.17L23.2373 105.015C23.3822 104.914 23.5592 104.868 23.7352 104.888C23.9111 104.907 24.0739 104.991 24.1928 105.122C24.3117 105.253 24.3787 105.423 24.381 105.6C24.3834 105.777 24.321 105.949 24.2056 106.083L23.1938 107.02H27.28C27.4726 107.02 27.6573 107.096 27.7935 107.233C27.9297 107.369 28.0062 107.553 28.0062 107.746C28.0062 107.939 27.9297 108.123 27.7935 108.26C27.6573 108.396 27.4726 108.472 27.28 108.472ZM38.401 107.746C38.4006 107.883 38.3615 108.017 38.2883 108.133C38.215 108.248 38.1106 108.341 37.987 108.4L35.7454 110.436C35.614 110.558 35.441 110.626 35.2613 110.627C35.1593 110.627 35.0586 110.605 34.9656 110.563C34.8726 110.521 34.7894 110.461 34.7214 110.385C34.5927 110.242 34.5258 110.054 34.5353 109.862C34.5448 109.67 34.63 109.49 34.7723 109.361L35.7406 108.47H31.7875C31.5949 108.47 31.4101 108.393 31.2739 108.257C31.1377 108.121 31.0612 107.936 31.0612 107.744C31.0612 107.551 31.1377 107.366 31.2739 107.23C31.4101 107.094 31.5949 107.017 31.7875 107.017H35.8664L34.857 106.083C34.7154 105.952 34.6315 105.771 34.6238 105.578C34.6161 105.386 34.6852 105.198 34.8158 105.057C34.9465 104.915 35.128 104.831 35.3205 104.823C35.513 104.816 35.7007 104.885 35.8422 105.015L38.171 107.17C38.2464 107.237 38.3068 107.32 38.3485 107.412C38.3902 107.504 38.4122 107.604 38.4131 107.705C38.4131 107.705 38.4131 107.719 38.4131 107.724C38.4131 107.729 38.401 107.739 38.401 107.746ZM187.815 109.082C187.815 109.403 187.688 109.711 187.461 109.938C187.234 110.165 186.926 110.293 186.605 110.293H47.6338C47.3127 110.293 47.0049 110.165 46.7779 109.938C46.5509 109.711 46.4234 109.403 46.4234 109.082V106.947C46.4234 106.626 46.5509 106.318 46.7779 106.091C47.0049 105.864 47.3127 105.737 47.6338 105.737H186.607C186.928 105.737 187.236 105.864 187.463 106.091C187.69 106.318 187.818 106.626 187.818 106.947L187.815 109.082ZM200.03 107.076L198.82 107.773L199.304 109.225C199.35 109.365 199.352 109.515 199.31 109.656C199.269 109.797 199.185 109.922 199.071 110.014C198.957 110.107 198.818 110.163 198.671 110.174C198.525 110.186 198.378 110.153 198.251 110.08L196.939 109.324L195.6 110.293C195.476 110.383 195.327 110.432 195.173 110.432C195.02 110.432 194.87 110.383 194.746 110.293C194.622 110.203 194.53 110.076 194.482 109.93C194.435 109.784 194.435 109.627 194.482 109.482L194.966 107.962L193.673 107.022C193.549 106.932 193.456 106.805 193.409 106.659C193.361 106.513 193.361 106.356 193.408 106.21C193.456 106.064 193.548 105.937 193.672 105.847C193.796 105.756 193.946 105.708 194.099 105.708H195.697L196.181 104.188C196.229 104.041 196.321 103.914 196.445 103.823C196.569 103.733 196.719 103.684 196.872 103.684C197.026 103.684 197.176 103.733 197.3 103.823C197.424 103.914 197.516 104.041 197.564 104.188L198.048 105.708H199.645C199.805 105.708 199.961 105.76 200.088 105.858C200.215 105.955 200.306 106.092 200.348 106.246C200.389 106.401 200.378 106.565 200.317 106.712C200.256 106.86 200.147 106.984 200.009 107.063L200.03 107.076Z" fill="#363636"/>
<path d="M46.141 100.721L52.435 90.7615C52.4455 90.7448 52.4568 90.7287 52.4689 90.7131C53.0813 89.8988 53.8741 89.2376 54.7852 88.7814C55.6962 88.3253 56.7007 88.0866 57.7195 88.0842H100.054C100.354 88.0852 100.654 88.107 100.952 88.1495H118.185C119.95 88.1495 121.386 89.5172 121.386 91.1973V100.447C121.386 100.541 121.367 100.634 121.33 100.721H219.639V89.5366C219.639 86.5954 217.32 84.2109 214.461 84.2109L16.385 84.453C13.5261 84.453 11.207 86.8399 11.207 89.7787L11.3184 100.875L46.141 100.721ZM209.702 91.6064L211.063 90.6139H210.988C210.892 90.6029 210.8 90.5732 210.716 90.5266C210.632 90.48 210.558 90.4173 210.499 90.3421C210.378 90.1902 210.323 89.9967 210.345 89.8041C210.367 89.6115 210.465 89.4356 210.617 89.315C210.768 89.1945 210.962 89.1392 211.155 89.1614L213.033 89.3793C213.133 89.3907 213.23 89.4228 213.317 89.4736C213.404 89.5245 213.48 89.5929 213.539 89.6746C213.615 89.7782 213.661 89.9 213.674 90.0276C213.688 90.1552 213.667 90.2839 213.614 90.4008L213.268 92.1535C213.235 92.3171 213.146 92.4642 213.017 92.57C212.887 92.6758 212.726 92.7339 212.559 92.7344C212.509 92.7343 212.46 92.7294 212.411 92.7199C212.318 92.7009 212.229 92.6636 212.15 92.6102C212.071 92.5568 212.003 92.4884 211.95 92.4088C211.898 92.3292 211.861 92.24 211.843 92.1464C211.825 92.0527 211.825 91.9564 211.845 91.863V91.8339L210.552 92.7804C210.396 92.8944 210.202 92.9418 210.011 92.9123C209.82 92.8828 209.649 92.7788 209.535 92.6231C209.421 92.4674 209.374 92.2728 209.403 92.0821C209.433 91.8915 209.537 91.7203 209.692 91.6064H209.702ZM204.667 95.39L205.03 93.5357C205.048 93.4421 205.085 93.353 205.138 93.2735C205.19 93.194 205.258 93.1256 205.337 93.0724C205.416 93.0191 205.505 92.9819 205.599 92.963C205.692 92.944 205.789 92.9437 205.882 92.962C205.976 92.9803 206.065 93.0168 206.144 93.0695C206.224 93.1222 206.292 93.1901 206.346 93.2692C206.399 93.3483 206.436 93.4372 206.455 93.5307C206.474 93.6242 206.474 93.7205 206.456 93.8141L206.441 93.8867L207.802 92.8942C207.958 92.7884 208.148 92.7471 208.334 92.7792C208.519 92.8113 208.685 92.9141 208.796 93.0661C208.907 93.218 208.955 93.4072 208.93 93.5938C208.904 93.7803 208.807 93.9495 208.659 94.0659L207.364 95.0124H207.393C207.585 95.0223 207.766 95.1084 207.895 95.2516C208.024 95.3948 208.091 95.5835 208.081 95.7761C208.072 95.9687 207.985 96.1495 207.842 96.2787C207.699 96.4078 207.51 96.4748 207.318 96.4648H207.238L205.478 96.276H205.396C205.282 96.2762 205.169 96.2496 205.067 96.1983C204.966 96.147 204.877 96.0724 204.81 95.9807C204.745 95.8984 204.698 95.803 204.674 95.701C204.649 95.599 204.647 95.4929 204.667 95.39ZM40.5805 89.8223C41.203 89.8223 41.8114 90.0068 42.3289 90.3526C42.8464 90.6984 43.2498 91.1899 43.488 91.7649C43.7262 92.34 43.7885 92.9727 43.6671 93.5832C43.5456 94.1937 43.2459 94.7544 42.8058 95.1945C42.3657 95.6346 41.8049 95.9343 41.1945 96.0558C40.584 96.1772 39.9513 96.1149 39.3762 95.8767C38.8012 95.6385 38.3097 95.2351 37.9639 94.7176C37.6181 94.2001 37.4336 93.5917 37.4336 92.9693C37.4355 92.1359 37.7679 91.3373 38.3578 90.7487C38.9478 90.1601 39.7472 89.8295 40.5805 89.8295V89.8223ZM30.2027 89.8223C30.8252 89.8223 31.4336 90.0068 31.9511 90.3526C32.4686 90.6984 32.872 91.1899 33.1102 91.7649C33.3484 92.34 33.4107 92.9727 33.2893 93.5832C33.1678 94.1937 32.8681 94.7544 32.428 95.1945C31.9879 95.6346 31.4271 95.9343 30.8167 96.0558C30.2062 96.1772 29.5735 96.1149 28.9984 95.8767C28.4234 95.6385 27.9319 95.2351 27.5861 94.7176C27.2403 94.2001 27.0557 93.5917 27.0557 92.9693C27.0577 92.1359 27.3901 91.3373 27.98 90.7487C28.57 90.1601 29.3694 89.8295 30.2027 89.8295V89.8223ZM19.8249 89.8223C20.4474 89.8223 21.0558 90.0068 21.5733 90.3526C22.0908 90.6984 22.4942 91.1899 22.7324 91.7649C22.9706 92.34 23.0329 92.9727 22.9115 93.5832C22.79 94.1937 22.4903 94.7544 22.0502 95.1945C21.6101 95.6346 21.0493 95.9343 20.4389 96.0558C19.8284 96.1772 19.1957 96.1149 18.6206 95.8767C18.0456 95.6385 17.5541 95.2351 17.2083 94.7176C16.8625 94.2001 16.6779 93.5917 16.6779 92.9693C16.6799 92.1359 17.0123 91.3373 17.6022 90.7487C18.1922 90.1601 18.9916 89.8295 19.8249 89.8295V89.8223Z" fill="#363636"/>
<path d="M77.7946 153.758H40.1687C38.6981 153.758 37.5059 154.95 37.5059 156.421V177.196C37.5059 178.666 38.6981 179.858 40.1687 179.858H77.7946C79.2652 179.858 80.4574 178.666 80.4574 177.196V156.421C80.4574 154.95 79.2652 153.758 77.7946 153.758Z" stroke="#363636" stroke-linecap="round" stroke-linejoin="round"/>
<path d="M181.898 132.91H39.3466C38.7988 132.91 38.2733 133.128 37.8857 133.515C37.498 133.902 37.2799 134.427 37.2793 134.975V145.077C37.2799 145.625 37.498 146.15 37.8857 146.537C38.2733 146.924 38.7988 147.142 39.3466 147.142H181.898C182.445 147.141 182.97 146.923 183.357 146.536C183.744 146.149 183.962 145.624 183.963 145.077V134.975C183.962 134.428 183.744 133.903 183.357 133.516C182.97 133.129 182.445 132.911 181.898 132.91ZM146.177 145.697H39.3466C39.184 145.697 39.0279 145.632 38.9127 145.517C38.7975 145.403 38.7324 145.247 38.7318 145.084V134.975C38.7324 134.812 38.7975 134.657 38.9127 134.542C39.0279 134.427 39.184 134.363 39.3466 134.363H146.177V145.697ZM170.162 144.97C170.121 145.136 170.037 145.287 169.92 145.411L169.816 145.525C169.742 145.615 169.651 145.69 169.547 145.744C169.443 145.798 169.33 145.831 169.213 145.839C169.105 145.841 169.001 145.802 168.92 145.731L165.584 142.826C165.185 143.047 164.754 143.205 164.306 143.295C163.729 143.414 163.135 143.418 162.556 143.306C161.978 143.194 161.428 142.969 160.936 142.644C160.445 142.319 160.023 141.901 159.694 141.412C159.365 140.923 159.136 140.375 159.019 139.797C158.889 139.215 158.876 138.614 158.981 138.027C159.086 137.44 159.308 136.88 159.632 136.38C159.956 135.879 160.377 135.449 160.869 135.113C161.362 134.777 161.917 134.543 162.501 134.424C163.085 134.305 163.687 134.304 164.272 134.421C164.856 134.538 165.412 134.77 165.906 135.104C166.4 135.438 166.822 135.867 167.148 136.366C167.474 136.865 167.697 137.424 167.804 138.011C167.936 138.665 167.92 139.34 167.759 139.987C167.598 140.634 167.295 141.237 166.872 141.753L170.019 144.498C170.081 144.556 170.126 144.628 170.151 144.708C170.176 144.788 170.18 144.874 170.162 144.956V144.97Z" fill="#363636"/>
<path d="M163.423 136.139C163.238 136.138 163.054 136.157 162.873 136.194C162.207 136.331 161.615 136.709 161.211 137.257C160.808 137.804 160.622 138.482 160.689 139.159C160.757 139.836 161.073 140.463 161.576 140.92C162.08 141.378 162.735 141.632 163.415 141.634C163.601 141.633 163.786 141.615 163.967 141.578C164.634 141.442 165.226 141.063 165.629 140.515C166.033 139.967 166.219 139.289 166.151 138.612C166.083 137.936 165.767 137.308 165.263 136.851C164.759 136.394 164.103 136.14 163.423 136.139Z" fill="#363636"/>
<path d="M83.6456 137.135H43.7054C43.1907 137.135 42.7734 137.552 42.7734 138.067V141.85C42.7734 142.365 43.1907 142.782 43.7054 142.782H83.6456C84.1603 142.782 84.5776 142.365 84.5776 141.85V138.067C84.5776 137.552 84.1603 137.135 83.6456 137.135Z" fill="#363636"/>
<path d="M78.9746 184.17H38.3422C37.8274 184.17 37.4102 184.587 37.4102 185.102V186.317C37.4102 186.832 37.8274 187.249 38.3422 187.249H78.9746C79.4893 187.249 79.9066 186.832 79.9066 186.317V185.102C79.9066 184.587 79.4893 184.17 78.9746 184.17Z" stroke="#363636" stroke-linecap="round" stroke-linejoin="round"/>
<path d="M129.687 153.758H92.0613C90.5906 153.758 89.3984 154.95 89.3984 156.421V177.196C89.3984 178.666 90.5906 179.858 92.0613 179.858H129.687C131.158 179.858 132.35 178.666 132.35 177.196V156.421C132.35 154.95 131.158 153.758 129.687 153.758Z" fill="#CCEA17"/>
<path d="M130.865 184.17H90.2328C89.718 184.17 89.3008 184.587 89.3008 185.102V186.317C89.3008 186.832 89.718 187.249 90.2328 187.249H130.865C131.38 187.249 131.797 186.832 131.797 186.317V185.102C131.797 184.587 131.38 184.17 130.865 184.17Z" fill="#CCEA17"/>
<path d="M181.578 153.758H143.952C142.481 153.758 141.289 154.95 141.289 156.421V177.196C141.289 178.666 142.481 179.858 143.952 179.858H181.578C183.048 179.858 184.241 178.666 184.241 177.196V156.421C184.241 154.95 183.048 153.758 181.578 153.758Z" stroke="#363636" stroke-linecap="round" stroke-linejoin="round"/>
<path d="M182.754 184.17H142.121C141.607 184.17 141.189 184.587 141.189 185.102V186.317C141.189 186.832 141.607 187.249 142.121 187.249H182.754C183.269 187.249 183.686 186.832 183.686 186.317V185.102C183.686 184.587 183.269 184.17 182.754 184.17Z" stroke="#363636" stroke-linecap="round" stroke-linejoin="round"/>
<path d="M37.5059 214.574V199.565C37.5059 198.859 37.7864 198.182 38.2858 197.682C38.7852 197.183 39.4625 196.902 40.1687 196.902H77.797C78.5032 196.902 79.1805 197.183 79.6799 197.682C80.1793 198.182 80.4598 198.859 80.4598 199.565V214.574" stroke="#363636" stroke-linecap="round" stroke-linejoin="round"/>
<path d="M89.3984 214.574V199.565C89.3984 198.859 89.679 198.182 90.1784 197.682C90.6778 197.183 91.355 196.902 92.0613 196.902H129.687C130.393 196.902 131.071 197.183 131.57 197.682C132.069 198.182 132.35 198.859 132.35 199.565V214.574" stroke="#363636" stroke-linecap="round" stroke-linejoin="round"/>
<path d="M141.289 214.574V199.565C141.289 198.859 141.57 198.182 142.069 197.682C142.568 197.183 143.246 196.902 143.952 196.902H181.578C182.134 196.902 182.677 197.075 183.13 197.399" stroke="#363636" stroke-linecap="round" stroke-linejoin="round"/>
<path d="M205.129 178.638C205.528 180.913 206.051 183.903 206.581 186.927C213.996 186.125 224.89 183.424 231.387 180.8C229.92 173.353 228.288 165.065 228.288 165.065" stroke="#363636" stroke-linecap="round" stroke-linejoin="round"/>
<path d="M100.913 238.489C94.4202 249.671 103.055 268.124 103.055 268.124L286.135 267.725C287.851 267.725 289.548 267.373 291.122 266.689C292.696 266.006 294.113 265.006 295.284 263.752C296.455 262.498 297.356 261.016 297.931 259.399C298.505 257.782 298.741 256.064 298.623 254.353C297.512 238.305 279.703 215.09 273.15 206.218C265.357 195.661 253.133 188.593 238.494 187.336C237.666 181.676 236.821 177.033 236.821 177.033C237.148 181.098 204.478 189.268 199.372 186.695L199.922 190.631C197.247 191.304 194.272 192.2 190.832 193.415C174.034 199.346 141.448 241.082 141.448 241.082C141.448 241.082 138.079 231.656 126.638 229.704" stroke="#363636" stroke-linecap="round" stroke-linejoin="round"/>
<path d="M204.881 249.651C204.881 249.651 243.402 238.758 251.977 238.06C251.977 238.06 267.796 234.981 274.621 243.064" stroke="#363636" stroke-linecap="round" stroke-linejoin="round"/>
<path d="M242.596 222.799L251.364 237.762" stroke="#363636" stroke-linecap="round" stroke-linejoin="round"/>
<path d="M141.45 241.076C141.45 241.076 144.425 258.295 125.957 264.386" stroke="#363636" stroke-linecap="round" stroke-linejoin="round"/>
<path d="M143.166 240.649C143.166 240.649 160.595 247.158 158.494 258.497" stroke="#363636" stroke-linecap="round" stroke-linejoin="round"/>
<path d="M185.099 224.094C184.658 225.5 179.65 243.112 184.07 255.712" stroke="#363636" stroke-linecap="round" stroke-linejoin="round"/>
<path d="M239.273 190.389C239.273 190.389 241.531 194.262 233.463 198.377" stroke="#363636" stroke-linecap="round" stroke-linejoin="round"/>
<path d="M237.313 189.131C237.313 189.131 235.913 196.551 219.184 198.86" stroke="#363636" stroke-linecap="round" stroke-linejoin="round"/>
<path d="M198.091 257.342C198.091 257.342 193.007 258.794 189.678 260.871C186.35 262.948 181.871 265.926 182.075 266.667C182.278 267.407 185.885 268.267 188.047 267.165C192.973 262.537 199.531 261.53 199.531 261.53C198.834 261.387 193.343 263.708 190.918 265.161C186.364 267.908 186.377 267.996 193.288 268.03L214.874 267.727C215.401 255.894 204.878 249.641 204.878 249.641C204.878 249.641 194.852 249.351 188.018 253.452C183.941 255.899 178.032 260.162 177.727 261.651C177.466 262.931 178.676 263.045 180.16 262.76C180.16 262.76 176.829 265.957 182.3 265.749" stroke="#363636" stroke-linecap="round" stroke-linejoin="round"/>
<path d="M183.53 265.086C180.514 266.187 178.631 265.403 179.672 263.558C180.301 262.44 192.018 255.175 196.029 254.473" stroke="#363636" stroke-linecap="round" stroke-linejoin="round"/>
<path d="M228.763 164.729C220.257 177.617 209.346 179.738 202.108 177.864C191.058 175.063 187.027 155.605 195.778 139.231C200.394 130.591 206.105 125.455 212.133 123.416" stroke="#363636" stroke-linecap="round" stroke-linejoin="round"/>
<path d="M226.971 151.644C226.971 151.644 237.364 150.872 234.718 159.173C232.072 167.474 224.279 163.571 224.279 163.571" stroke="#363636" stroke-linecap="round" stroke-linejoin="round"/>
<path d="M198.708 148.717C199.014 147.433 198.589 146.232 197.759 146.035C196.929 145.838 196.009 146.718 195.703 148.002C195.398 149.286 195.823 150.486 196.653 150.684C197.483 150.881 198.403 150.001 198.708 148.717Z" fill="#363636"/>
<path d="M211.527 150.42C211.832 149.136 211.407 147.935 210.577 147.738C209.747 147.541 208.827 148.421 208.522 149.705C208.216 150.989 208.641 152.19 209.471 152.387C210.301 152.584 211.221 151.704 211.527 150.42Z" fill="#363636"/>
<path d="M202.972 160.007L197.777 158.963L204.623 144.059" stroke="#363636" stroke-linecap="round" stroke-linejoin="round"/>
<path d="M216.126 144.569C216.126 144.569 212.979 140.304 209.438 142.018" stroke="#363636" stroke-linecap="round" stroke-linejoin="round"/>
<path d="M201.199 165.361C201.199 165.361 205.658 167.499 208.27 164.032C209.943 161.815 211.395 168.433 205.583 169.963C199.596 170.164 201.199 165.361 201.199 165.361Z" stroke="#363636" stroke-linecap="round" stroke-linejoin="round"/>
<path d="M200.002 140.743C200.002 140.743 196.039 137.061 192.844 139.999" stroke="#363636" stroke-linecap="round" stroke-linejoin="round"/>
<path d="M267.195 113.262C265.62 113.518 264.071 113.916 262.567 114.451C251.228 118.474 244.694 129.229 247.974 138.472C251.208 147.591 262.787 151.832 273.985 148.082C275.736 154.34 276.048 165.103 265.091 177.742C263.208 179.92 265.549 183.135 268.188 181.992C278.747 177.42 292.966 169.448 297.687 158.291C305.046 140.893 304.23 103.281 267.195 113.262Z" fill="#363636"/>
<path d="M254.536 136.987L254.479 136.802C253.769 134.494 251.323 133.199 249.015 133.909L246.477 134.69C244.169 135.4 242.873 137.846 243.583 140.154L243.64 140.339C244.35 142.647 246.797 143.942 249.105 143.232L251.643 142.451C253.95 141.741 255.246 139.295 254.536 136.987Z" fill="#CCEA17"/>
<path d="M245.236 134.044C243.299 128.038 236.436 120.972 216.429 116.651C216.185 116.622 215.938 116.641 215.703 116.709C205.567 114.53 189.219 120.214 189.544 139.258C189.616 142.728 190.461 146.137 192.018 149.239C192.824 145.753 194.086 142.388 195.772 139.232C200.089 131.153 205.363 126.145 210.958 123.86C209.731 130.396 212.267 140.752 226.693 152.243L226.78 152.401L226.952 151.645C226.952 151.645 232.258 151.253 234.318 154.066L234.403 154.185L234.461 154.274L234.534 154.393C234.553 154.424 234.572 154.456 234.589 154.487L234.66 154.62C234.681 154.666 234.706 154.712 234.727 154.761C234.749 154.809 234.776 154.87 234.798 154.925L234.846 155.049L234.887 155.165L234.931 155.303C234.931 155.339 234.95 155.378 234.962 155.414L234.998 155.564C234.998 155.598 235.013 155.635 235.02 155.669C235.063 155.87 235.091 156.075 235.105 156.281V156.371C235.105 156.436 235.105 156.501 235.105 156.569C235.105 156.637 235.105 156.637 235.105 156.671C235.105 156.705 235.105 156.809 235.105 156.879C235.105 156.91 235.105 156.942 235.105 156.973C235.105 157.048 235.105 157.123 235.105 157.203C235.09 157.39 235.066 157.581 235.035 157.779C234.957 158.254 234.844 158.721 234.696 159.179C233.454 163.052 231.094 164.262 228.932 164.463C228.951 164.376 229.242 169.305 229.174 169.387C232.033 168.419 235.139 166.55 238.446 163.408C248.129 154.211 249.339 142.48 245.236 134.044Z" fill="#363636"/>
<path d="M198.79 186.639C200.066 187.283 202.932 187.305 206.58 186.905C206.338 185.496 206.096 184.092 205.854 182.756C200.872 184.187 198.197 185.334 198.79 186.639Z" fill="#363636"/>
<path d="M237.571 176.789C237.186 175.7 235.658 175.134 230.551 176.095C230.856 177.646 231.168 179.242 231.473 180.786C235.002 179.358 237.367 177.944 237.571 176.789Z" fill="#363636"/>
<path d="M229.139 181.639C228.897 181.724 228.67 181.806 228.428 181.881C228.67 181.806 228.907 181.724 229.139 181.639Z" fill="#363636"/>
<path d="M231.331 180.797C231.14 180.875 230.947 180.952 230.748 181.027C230.939 180.962 231.14 180.884 231.331 180.797Z" fill="#363636"/>
<path d="M116.923 226.222C116.923 226.222 112.397 220.49 115.471 219.371C122.334 216.88 141.015 250.817 121.017 251.909C120.022 251.947 110.274 253.845 104.488 245.888C100.131 239.236 99.8111 232.141 102.888 228.185C105.965 224.23 116.923 226.222 116.923 226.222Z" stroke="#363636" stroke-linecap="round" stroke-linejoin="round"/>
<path d="M109.62 226.289C111.611 226.158 113.611 226.288 115.568 226.674L111.196 209.406L121.138 212.246C121.435 212.331 121.752 212.323 122.044 212.222C122.336 212.121 122.59 211.933 122.772 211.683C122.954 211.433 123.054 211.133 123.059 210.824C123.064 210.515 122.974 210.212 122.801 209.956L104.404 182.715C104.201 182.413 103.913 182.179 103.577 182.041C103.24 181.902 102.871 181.867 102.514 181.939C102.158 182.011 101.831 182.186 101.574 182.444C101.318 182.701 101.143 183.029 101.073 183.385L94.8731 214.637C94.8139 214.933 94.8447 215.239 94.9616 215.517C95.0785 215.795 95.2761 216.031 95.5287 216.196C95.7814 216.36 96.0775 216.444 96.3788 216.439C96.6801 216.433 96.9727 216.337 97.2188 216.163L105.566 210.283L109.62 226.289Z" fill="#363636"/>
<path d="M111.74 247.338C111.74 247.338 119.569 247.97 122.137 246.721C124.706 245.472 124.979 244.707 124.134 243.012C123.289 241.318 115.071 240.749 109.244 242.436" stroke="#363636" stroke-linecap="round" stroke-linejoin="round"/>
<path d="M106.801 236.692C106.801 236.692 114.547 234.905 120.306 236.103C125.656 237.026 127.111 241.913 123.431 242.397" stroke="#363636" stroke-linecap="round" stroke-linejoin="round"/>
<path d="M104.32 232.086C104.32 232.086 113.168 228.813 119.949 231.602C126.729 234.391 123.962 237.724 123.962 237.724" stroke="#363636" stroke-linecap="round" stroke-linejoin="round"/>
<path d="M116.244 225.977C124.095 229.31 122.088 232.704 122.088 232.704" stroke="#363636" stroke-linecap="round" stroke-linejoin="round"/>
<path d="M301.685 267.936H15.8145" stroke="#363636" stroke-linecap="round" stroke-linejoin="round"/>
</svg>
