<svg width="354" height="310" viewBox="0 0 354 310" fill="none" xmlns="http://www.w3.org/2000/svg">
<path fill-rule="evenodd" clip-rule="evenodd" d="M43.8204 106.312C37.0635 109.707 32.7988 116.622 32.7988 124.184V289.919C32.7988 300.965 41.7531 309.919 52.7988 309.919H301.354C312.399 309.919 321.354 300.965 321.354 289.919V20.4097C321.354 9.36397 312.399 0.409668 301.354 0.409668H132.959C121.913 0.409668 112.959 9.36397 112.959 20.4097L112.959 59.2435C112.959 66.8052 108.694 73.7203 101.937 77.1149L43.8204 106.312Z" fill="#F2FFA2"/>
<path d="M16.9785 251.054V194.304H41.3527" stroke="#363636" stroke-linecap="round" stroke-linejoin="round"/>
<path d="M253.066 194.304H337.969V251.054" stroke="#363636" stroke-linecap="round" stroke-linejoin="round"/>
<path d="M101.123 194.304H186.855" stroke="#363636" stroke-linecap="round" stroke-linejoin="round"/>
<path d="M208.993 104.027H137.468C136.894 104.028 136.344 104.256 135.938 104.66C135.531 105.064 135.301 105.613 135.297 106.187V150.207C135.299 150.782 135.528 151.333 135.935 151.74C136.342 152.146 136.893 152.375 137.468 152.376H140.538L140.68 152.277C142.118 151.046 143.702 149.596 145.233 148.149H141.355C140.711 148.149 140.094 147.894 139.639 147.439C139.184 146.983 138.928 146.366 138.928 145.723V109.359C138.928 108.715 139.184 108.098 139.639 107.643C140.094 107.188 140.711 106.932 141.355 106.932H202.24C202.884 106.932 203.501 107.188 203.956 107.643C204.411 108.098 204.667 108.715 204.667 109.359V145.723C204.667 146.366 204.411 146.983 203.956 147.439C203.501 147.894 202.884 148.149 202.24 148.149H153.993L150.96 152.376H165.411L161.193 168.539H187.529L183.463 152.376H208.993C209.568 152.375 210.119 152.146 210.526 151.74C210.933 151.333 211.162 150.782 211.164 150.207V106.187C211.16 105.613 210.929 105.064 210.523 104.66C210.116 104.256 209.566 104.028 208.993 104.027Z" fill="#CCEA17"/>
<path d="M174.002 163.093C175.76 163.093 177.185 161.606 177.185 159.771C177.185 157.936 175.76 156.449 174.002 156.449C172.244 156.449 170.818 157.936 170.818 159.771C170.818 161.606 172.244 163.093 174.002 163.093Z" stroke="#363636" stroke-linecap="round" stroke-linejoin="round"/>
<path d="M181.037 152.431L184.558 168.081" stroke="#363636" stroke-linecap="round" stroke-linejoin="round"/>
<path d="M165.48 152.337H183.303" stroke="#363636" stroke-linecap="round" stroke-linejoin="round"/>
<path d="M205.242 104.701C205.846 104.711 206.422 104.96 206.843 105.393C207.264 105.826 207.497 106.408 207.49 107.013V150.041" stroke="#363636" stroke-linecap="round" stroke-linejoin="round"/>
<path d="M165.021 115.933H164.34C163.936 115.933 163.609 116.26 163.609 116.663V118.265C163.609 118.668 163.936 118.995 164.34 118.995H165.021C165.424 118.995 165.751 118.668 165.751 118.265V116.663C165.751 116.26 165.424 115.933 165.021 115.933Z" fill="#CCEA17"/>
<path d="M161.784 115.933H149.064C148.511 115.933 148.062 116.382 148.062 116.935V117.994C148.062 118.547 148.511 118.995 149.064 118.995H161.784C162.337 118.995 162.785 118.547 162.785 117.994V116.935C162.785 116.382 162.337 115.933 161.784 115.933Z" fill="#363636"/>
<path d="M163.116 130.154H149.064C148.511 130.154 148.062 130.602 148.062 131.156V132.214C148.062 132.768 148.511 133.216 149.064 133.216H163.116C163.669 133.216 164.118 132.768 164.118 132.214V131.156C164.118 130.602 163.669 130.154 163.116 130.154Z" fill="#363636"/>
<path d="M176.021 125.419H153.123C152.569 125.419 152.121 125.868 152.121 126.421V127.48C152.121 128.033 152.569 128.481 153.123 128.481H176.021C176.574 128.481 177.023 128.033 177.023 127.48V126.421C177.023 125.868 176.574 125.419 176.021 125.419Z" fill="#CCEA17"/>
<path d="M190.863 125.419H179.416C178.862 125.419 178.414 125.868 178.414 126.421V127.48C178.414 128.033 178.862 128.481 179.416 128.481H190.863C191.416 128.481 191.864 128.033 191.864 127.48V126.421C191.864 125.868 191.416 125.419 190.863 125.419Z" fill="#CCEA17"/>
<path d="M195.689 120.685H195.008C194.604 120.685 194.277 121.012 194.277 121.415V123.017C194.277 123.42 194.604 123.747 195.008 123.747H195.689C196.092 123.747 196.419 123.42 196.419 123.017V121.415C196.419 121.012 196.092 120.685 195.689 120.685Z" fill="#363636"/>
<path d="M172.81 120.675H149.064C148.511 120.675 148.062 121.124 148.062 121.677V122.736C148.062 123.289 148.511 123.737 149.064 123.737H172.81C173.363 123.737 173.811 123.289 173.811 122.736V121.677C173.811 121.124 173.363 120.675 172.81 120.675Z" fill="#363636"/>
<path d="M180.413 115.933H167.693C167.14 115.933 166.691 116.382 166.691 116.935V117.994C166.691 118.547 167.14 118.995 167.693 118.995H180.413C180.966 118.995 181.414 118.547 181.414 117.994V116.935C181.414 116.382 180.966 115.933 180.413 115.933Z" fill="#363636"/>
<path d="M192.117 120.667H175.971C175.414 120.667 174.963 121.119 174.963 121.676V122.739C174.963 123.296 175.414 123.747 175.971 123.747H192.117C192.674 123.747 193.125 123.296 193.125 122.739V121.676C193.125 121.119 192.674 120.667 192.117 120.667Z" fill="#CCEA17"/>
<path d="M137.799 168.347L137.579 167.292H137.552C131.636 167.246 135.713 158.314 138.876 154.158C137.81 149.66 136.48 144.231 135.457 140.628C133.643 134.255 129.412 132.687 126.251 133.593L121.757 134.354L121.435 135.069L123.67 134.579C123.913 135.021 126.809 141.266 119.794 142.87C115.19 143.92 109.867 140.183 107.456 136.779L107.745 136.726L103.745 137.403C103.58 137.385 103.414 137.372 103.253 137.368C99.3134 137.28 92.788 151.548 91.2637 159.858C93.3131 159.196 97.9236 158.504 103.785 159.296C103.957 158.951 104.586 157.904 105.413 156.428C105.51 156.595 105.605 156.759 105.7 156.917C106.183 157.723 107.811 160.425 107.811 160.425L132.077 163.057L130.961 165.086L127.612 168.175L137.799 168.347Z" fill="#363636"/>
<path d="M112.923 126.924C112.065 127.308 109.051 128.367 107.999 124.985C107.474 123.293 108.156 122.254 109.102 121.619" stroke="#363636" stroke-linecap="round" stroke-linejoin="round"/>
<path d="M122.728 132.197L121.431 135.065L123.665 134.575C123.908 135.016 126.804 141.261 119.789 142.865C115.185 143.915 109.862 140.178 107.451 136.774L111.343 136.069L114.274 129.009" stroke="#363636" stroke-linecap="round" stroke-linejoin="round"/>
<path d="M127.872 118.896C128.406 120.714 129.935 129.342 124.402 131.471C118.869 133.599 113.679 129.315 111.711 124.003C109.743 118.691 110.976 113.496 114.448 112.06C117.921 110.624 123.985 105.744 127.872 118.896Z" stroke="#363636" stroke-linecap="round" stroke-linejoin="round"/>
<path d="M122.208 125.9C123.042 126.053 123.904 125.931 124.663 125.552C124.713 125.527 124.767 125.514 124.823 125.515C124.878 125.516 124.933 125.53 124.982 125.556C125.031 125.581 125.073 125.618 125.105 125.664C125.137 125.709 125.158 125.761 125.166 125.816C125.283 126.498 125.25 127.685 123.758 128.044C122.201 128.419 121.87 127.052 121.804 126.28C121.8 126.227 121.807 126.173 121.827 126.124C121.846 126.074 121.876 126.029 121.915 125.993C121.953 125.957 122 125.929 122.051 125.913C122.101 125.897 122.155 125.893 122.208 125.9Z" fill="#363636"/>
<path d="M123.169 123.447L124.883 122.999L122.512 116.427" stroke="#363636" stroke-linecap="round" stroke-linejoin="round"/>
<path d="M117.461 118.54C117.461 118.54 118.319 116.908 119.645 117.51" stroke="#363636" stroke-linecap="round" stroke-linejoin="round"/>
<path d="M122.76 114.676C122.76 114.676 123.83 113.18 125.061 113.966" stroke="#363636" stroke-linecap="round" stroke-linejoin="round"/>
<path d="M121.186 121.512C121.504 121.446 121.677 120.985 121.574 120.481C121.47 119.978 121.129 119.623 120.811 119.688C120.494 119.753 120.32 120.214 120.424 120.718C120.528 121.222 120.869 121.577 121.186 121.512Z" fill="#363636"/>
<path d="M126.827 120.387C127.144 120.321 127.318 119.86 127.214 119.356C127.11 118.853 126.769 118.498 126.452 118.563C126.134 118.628 125.961 119.089 126.065 119.593C126.168 120.097 126.51 120.452 126.827 120.387Z" fill="#363636"/>
<path d="M119.678 125.454C121.706 125.11 122.974 122.607 122.508 119.863C122.043 117.12 120.021 115.175 117.992 115.519C115.963 115.863 114.696 118.366 115.161 121.11C115.627 123.853 117.649 125.798 119.678 125.454Z" stroke="#CCEA17" stroke-linecap="round" stroke-linejoin="round"/>
<path d="M129.34 123.596C131.368 123.252 132.636 120.749 132.17 118.006C131.705 115.262 129.683 113.317 127.654 113.661C125.625 114.006 124.358 116.509 124.823 119.252C125.289 121.996 127.311 123.941 129.34 123.596Z" stroke="#CCEA17" stroke-linecap="round" stroke-linejoin="round"/>
<path d="M124.618 118.011L122.33 118.446" stroke="#CCEA17" stroke-linecap="round" stroke-linejoin="round"/>
<path d="M115.015 119.367L109.838 121.112" stroke="#CCEA17" stroke-linecap="round" stroke-linejoin="round"/>
<path d="M108.919 121.747L108.957 121.719C109.301 121.825 109.755 121.772 110.347 121.498C113.245 120.175 114.302 116.881 114.686 114.807L128.451 111.234C128.681 111.174 128.894 111.064 129.075 110.911C129.257 110.759 129.402 110.569 129.501 110.353C129.6 110.138 129.649 109.903 129.646 109.666C129.643 109.43 129.588 109.196 129.484 108.984C125.262 100.334 118.024 105.255 113.177 110.179C109.407 110.115 104.618 113.929 103.596 116.998C102.368 120.684 102.796 125.983 105.361 129.378C108.086 132.374 110.592 133.362 112.8 133.205C112.729 133.148 114.26 129.321 114.587 128.732C114.038 128.14 113.543 127.502 113.106 126.824C112.665 127.044 109.151 128.69 107.995 124.973C107.505 123.398 108.063 122.387 108.915 121.743" fill="#363636"/>
<path d="M122.276 161.997C116.397 161.708 102.874 159.826 102.874 159.826L103.095 159.222C98.1886 158.646 94.2288 159.098 92.0228 159.663C91.3412 161.595 91.0698 163.254 91.4449 164.357C91.9368 165.815 93.6067 167.046 95.1289 167.267C107.794 169.105 122.863 167.728 122.863 167.728" stroke="#363636" stroke-linecap="round" stroke-linejoin="round"/>
<path d="M120.992 161.997C122.976 161.93 124.962 162.041 126.926 162.33C128.749 162.61 131.848 163.08 132.159 163.497C132.891 164.479 130.101 164.971 128.782 164.159" stroke="#363636" stroke-linecap="round" stroke-linejoin="round"/>
<path d="M128.794 165.629C130.612 166.035 131.486 165.967 131.022 165.128C130.702 164.555 126.39 162.58 125.547 162.36C124.704 162.139 120.094 161.841 120.094 161.841" stroke="#363636" stroke-linecap="round" stroke-linejoin="round"/>
<path d="M124.429 163.794C125.485 164.117 126.522 164.498 127.536 164.935C128.888 165.544 129.7 166.219 129.605 166.479C129.51 166.739 128.502 167.271 127.619 166.958C126.38 166.274 123.596 165.572 123.596 165.572C123.887 165.506 125.826 166.307 126.889 166.647C127.952 166.987 128.806 168.003 126.227 167.858L122.336 167.734" stroke="#363636" stroke-linecap="round" stroke-linejoin="round"/>
<path d="M157.137 145.056C157.137 145.056 161.258 144.935 163.956 143.357C165.564 142.418 167.648 141.127 167.75 140.571C167.94 139.525 165.396 140.593 164.992 140.73" stroke="#363636" stroke-linecap="round" stroke-linejoin="round"/>
<path d="M160.056 142.144C160.056 142.144 162.262 140.992 163.237 139.829C164.213 138.667 164.877 137.756 164.696 137.524C164.515 137.293 163.26 137.328 162.593 137.994C161.753 139.194 159.176 140.474 159.176 140.474C159.461 140.432 161.131 139.285 161.949 138.521C162.768 137.758 163.134 136.348 160.888 137.484C160.888 137.484 158.497 138.771 157.61 139.115C157.61 139.115 153.86 139.587 152.642 140.849C151.826 141.7 145.457 148.192 140.681 152.282C137.919 154.069 130.357 167.244 137.544 167.301C139.031 167.356 140.946 166.379 141.707 165.291L156.03 145.311C158.322 144.943 159.957 144.356 161.056 143.767C162.479 142.993 166.813 139.401 166.895 138.929C167.116 137.67 164.969 137.707 163.385 139.717" stroke="#363636" stroke-linecap="round" stroke-linejoin="round"/>
<path d="M111.627 135.23C113.342 132.173 112.575 128.485 109.914 126.993C107.254 125.5 103.707 126.768 101.992 129.826C100.277 132.883 101.044 136.571 103.704 138.063C106.365 139.556 109.912 138.287 111.627 135.23Z" fill="#363636"/>
<path d="M117.386 138.945C117.819 136.448 116.408 134.119 114.235 133.742C112.063 133.366 109.95 135.085 109.518 137.582C109.085 140.079 110.496 142.408 112.669 142.785C114.841 143.161 116.954 141.442 117.386 138.945Z" fill="#363636"/>
<path d="M120.415 146.443C121.702 144.582 121.432 142.165 119.812 141.046C118.193 139.926 115.837 140.527 114.55 142.388C113.264 144.249 113.534 146.665 115.153 147.785C116.772 148.904 119.128 148.303 120.415 146.443Z" fill="#363636"/>
<path d="M122.845 152.078C124.278 150.876 124.592 148.891 123.546 147.643C122.5 146.396 120.49 146.36 119.057 147.562C117.624 148.763 117.311 150.749 118.357 151.996C119.403 153.243 121.413 153.28 122.845 152.078Z" fill="#363636"/>
<path d="M121.6 157.26C123.069 158.037 123.308 159.08 123.193 159.908C123.181 159.993 123.195 160.081 123.234 160.158C123.273 160.235 123.335 160.299 123.411 160.34C123.487 160.382 123.573 160.399 123.659 160.39C123.745 160.381 123.827 160.346 123.892 160.289C125.573 158.774 128.148 155.829 126.03 153.464C125.031 152.348 123.23 152.213 121.874 153.276C120.517 154.34 120.277 156.559 121.6 157.26Z" fill="#363636"/>
<path d="M109.668 137.755L112.057 134.15" stroke="#CCEA17" stroke-linecap="round" stroke-linejoin="round"/>
<path d="M114.48 142.769L117.461 140.638" stroke="#CCEA17" stroke-linecap="round" stroke-linejoin="round"/>
<path d="M119.057 147.526L120.076 147.019" stroke="#CCEA17" stroke-linecap="round" stroke-linejoin="round"/>
<path d="M122.105 152.999L123.125 152.492" stroke="#CCEA17" stroke-linecap="round" stroke-linejoin="round"/>
<path d="M117.098 226.701L112.509 241.616C112.509 241.616 120.581 243.601 119.734 250.455L99.8555 250.354L105.543 224.894L117.098 226.701Z" stroke="#363636" stroke-linecap="round" stroke-linejoin="round"/>
<path d="M144.671 226.138L139.928 241.54C139.928 241.54 148.282 243.641 147.402 250.753L126.791 250.647L132.683 224.265L144.671 226.138Z" stroke="#363636" stroke-linecap="round" stroke-linejoin="round"/>
<path d="M137.8 169.168L88.4797 177.22C88.3937 177.522 92.8322 180.088 97.0413 186.214C101.25 192.34 99.7701 194.061 99.3951 194.711C102.609 195.139 106.454 195.258 110.445 195.19L102.201 236.562H123.321L129.209 211.001L125.697 236.712H146.818L148.609 177.725C148.609 177.725 148.609 168.396 137.8 169.168Z" fill="#363636"/>
<path d="M52.1691 233.679L50.9492 240.443L51.0463 251.135H56.1025L56.3936 240.564C56.3936 240.564 58.443 250.904 65.5067 251.374C72.5703 251.843 78.6743 249.902 78.6258 249.626C78.6038 249.487 78.8464 247.407 79.067 245.391C79.2744 243.626 77.5934 241.914 75.7845 242.018C73.0689 242.177 69.5062 241.961 67.3443 240.16C66.2677 239.263 65.9236 236.957 65.9854 234.103" fill="#363636"/>
<path d="M81.4004 234.718L81.5482 251.136H86.6022L86.9022 240.564C86.9022 240.564 88.9538 250.904 96.0174 251.374C103.081 251.844 109.183 249.902 109.137 249.627C109.112 249.488 109.357 247.407 109.578 245.391C109.785 243.626 108.102 241.914 106.293 242.018C103.577 242.177 100.017 241.961 97.855 240.161C96.8094 239.289 96.0902 236.942 95.5806 233.984" fill="#363636"/>
<path d="M83.9822 147.549C83.53 146.76 83.0689 145.941 82.6189 145.123C82.3453 141.792 81.6637 138.849 80.3268 136.916C78.9834 135.306 77.3509 134.666 75.4141 134.029" stroke="#363636" stroke-linecap="round" stroke-linejoin="round"/>
<path d="M58.179 132.584L51.5256 132.084L51.4286 132.031C48.5894 132.031 44.8723 134.457 44.4488 137.727C43.659 143.826 45.5804 151.942 46.3989 158.977C46.2555 159.701 46.1408 160.274 46.0591 160.654C46.0591 160.654 29.9773 183.02 41.228 194.28C41.2876 194.368 58.9025 194.163 58.9025 194.163L51.8433 233.77L95.5995 234.577C95.5995 234.577 100.371 195.026 99.3806 190.64C97.3731 181.741 76.2307 169.213 76.2307 169.213L77.8257 169.05C82.4583 170.929 87.7527 169.654 92.5177 166.775C91.9155 166.275 90.8279 164.962 90.8279 164.25C90.785 161.476 91.257 158.718 92.2199 156.116" stroke="#363636" stroke-linecap="round" stroke-linejoin="round"/>
<path d="M62.0958 131.286C60.6861 131.46 59.2743 129.797 58.9257 127.536C58.7301 126.45 58.863 125.33 59.3074 124.32" stroke="#CCEA17" stroke-linecap="round" stroke-linejoin="round"/>
<path d="M81.5762 130.6C80.1908 130.77 78.8011 129.164 78.4238 126.96" stroke="#CCEA17" stroke-linecap="round" stroke-linejoin="round"/>
<path d="M60.585 108.172C63.294 105.611 63.8609 93.846 54.8384 87.1044C45.7055 80.2857 39.875 89.1097 38.6198 91.4062C37.3646 93.7026 36.9322 99.6257 44.6709 104.234C52.4096 108.842 57.4966 111.104 60.585 108.172Z" fill="#363636"/>
<path d="M61.864 112.628L59.3161 109.851C59.0997 109.624 58.9322 109.355 58.8241 109.061C58.7159 108.766 58.6694 108.453 58.6874 108.14C58.7054 107.827 58.7875 107.521 58.9287 107.241C59.0698 106.961 59.267 106.713 59.508 106.513L59.6779 106.37C60.1851 105.962 60.8285 105.762 61.4774 105.812C62.1263 105.861 62.7322 106.155 63.1722 106.634L65.7179 109.412L61.864 112.628Z" fill="#CCEA17"/>
<path d="M62.2922 124C61.9025 124.203 61.4706 124.311 61.0313 124.317C60.5919 124.324 60.1572 124.227 59.762 124.035C58.381 123.373 57.7765 121.776 58.3942 120.459C58.6807 119.89 59.1606 119.441 59.748 119.193C60.3353 118.945 60.9917 118.915 61.5996 119.107" stroke="#363636" stroke-linecap="round" stroke-linejoin="round"/>
<path d="M79.1738 118.176C79.8125 118.025 80.4837 118.097 81.0754 118.381C82.4564 119.043 83.0608 120.64 82.4431 121.955C82.1804 122.483 81.7501 122.909 81.2196 123.166C80.6891 123.423 80.0883 123.497 79.5113 123.376" stroke="#363636" stroke-linecap="round" stroke-linejoin="round"/>
<path d="M72.2568 132.022L72.312 133.431L75.621 134.157C75.8063 134.693 76.0092 143.985 67.5183 142.829C61.9481 142.07 59.3428 137.093 57.8516 132.525L62.5768 132.855L62.5945 124.111" stroke="#363636" stroke-linecap="round" stroke-linejoin="round"/>
<path d="M72.5657 131.713C77.3241 130.839 80.2707 125.172 79.1471 119.056C78.0235 112.94 73.2551 108.691 68.4967 109.565C63.7383 110.439 60.7917 116.106 61.9153 122.222C63.039 128.338 67.8073 132.588 72.5657 131.713Z" stroke="#363636" stroke-linecap="round" stroke-linejoin="round"/>
<path d="M71.3242 123.314L72.992 123.259C73.0324 123.258 73.072 123.247 73.1078 123.228C73.1437 123.21 73.1748 123.183 73.199 123.151C73.2232 123.118 73.2397 123.081 73.2474 123.041C73.2551 123.001 73.2537 122.96 73.2434 122.921L72.0412 118.373" stroke="#363636" stroke-linecap="round" stroke-linejoin="round"/>
<path d="M66.6914 116.157C66.6914 116.157 68.1694 114.833 69.4026 115.936" stroke="#363636" stroke-linecap="round" stroke-linejoin="round"/>
<path d="M73.4355 115.739C73.4355 115.739 75.3239 115.031 76.0828 116.476" stroke="#363636" stroke-linecap="round" stroke-linejoin="round"/>
<path d="M69.8568 119.898C69.8747 119.347 69.59 118.892 69.2211 118.88C68.8521 118.868 68.5385 119.304 68.5206 119.854C68.5028 120.405 68.7874 120.861 69.1563 120.873C69.5253 120.885 69.8389 120.448 69.8568 119.898Z" fill="#363636"/>
<path d="M75.4907 121.117C75.8577 121.091 76.1228 120.622 76.0829 120.07C76.043 119.519 75.7131 119.093 75.3461 119.119C74.9791 119.146 74.714 119.615 74.7539 120.166C74.7939 120.718 75.1237 121.144 75.4907 121.117Z" fill="#363636"/>
<path d="M67.3674 106.951L67.3476 106.977C64.4974 107.392 61.3141 108.7 59.5427 110.604C56.4035 113.979 57.8463 121.23 61.045 121.722C61.3095 121.763 61.5761 121.79 61.8436 121.802C61.8149 121.619 61.7906 121.435 61.7686 121.25C61.6942 120.591 61.6654 119.928 61.6825 119.265C66.0416 117.637 66.0328 111.102 66.0262 110.558C66.9505 111.294 68.1616 112.556 67.8483 113.937L77.4908 114.546C78.4636 116.229 79.0766 118.096 79.2909 120.028C79.2909 120.054 79.2909 120.079 79.2909 120.105C80.1932 118.815 80.2373 116.796 79.4806 114.672L82.7345 114.877C82.7345 114.877 85.7346 103.867 67.3674 106.951Z" fill="#363636"/>
<path d="M80.5977 122.093C82.0205 121.873 83.214 123.768 83.5669 126.053C83.9199 128.338 83.0507 130.372 81.6257 130.593H81.5771" stroke="#CCEA17" stroke-linecap="round" stroke-linejoin="round"/>
<path d="M60.8652 122.998C62.2903 122.777 63.733 124.451 64.086 126.748C64.439 129.044 63.5698 131.067 62.1447 131.286H62.0962" stroke="#CCEA17" stroke-linecap="round" stroke-linejoin="round"/>
<path d="M71.6462 126.606C71.6462 126.606 67.8387 128.969 67.6445 123.835L71.6462 126.606Z" stroke="#363636" stroke-linecap="round" stroke-linejoin="round"/>
<path d="M60.3031 155.732C60.3031 155.732 57.3074 154.362 55.7676 157.186" stroke="#363636" stroke-linecap="round" stroke-linejoin="round"/>
<path d="M60.0449 154.536C60.0449 154.536 57.4352 151.54 54.2695 155.478" stroke="#363636" stroke-linecap="round" stroke-linejoin="round"/>
<path d="M78.5957 150.966L82.0613 149.643C82.0613 149.643 84.7747 146.649 85.9726 145.751C87.1705 144.853 89.5265 144.964 87.9404 146.351C86.3542 147.739 86.127 148.575 86.127 148.575C86.127 148.575 90.3008 147.359 92.595 145.928C94.94 144.465 94.4304 146.976 94.4304 146.976C94.4304 146.976 96.1952 147.218 95.518 148.127C95.518 148.127 96.8747 148.904 95.518 149.682C95.518 149.682 97.4416 149.885 96.3408 151.035C95.5401 152.671 89.9853 155.773 86.577 155.522L84.6711 156.36L82.2687 157.545" stroke="#363636" stroke-linecap="round" stroke-linejoin="round"/>
<path d="M88.7793 149.422C88.7793 149.422 93.0126 148.381 94.4311 146.996L88.7793 149.422Z" fill="white"/>
<path d="M88.7793 149.422C88.7793 149.422 93.0126 148.381 94.4311 146.996" stroke="#363636" stroke-linecap="round" stroke-linejoin="round"/>
<path d="M89.332 150.878C89.7909 150.675 93.1705 150.053 95.3125 147.986L89.332 150.878Z" fill="white"/>
<path d="M89.332 150.878C89.7909 150.675 93.1705 150.053 95.3125 147.986" stroke="#363636" stroke-linecap="round" stroke-linejoin="round"/>
<path d="M89.877 152.385C90.8366 151.977 92.9433 152.096 95.5332 149.806L89.877 152.385Z" fill="white"/>
<path d="M89.877 152.385C90.8366 151.977 92.9433 152.096 95.5332 149.806" stroke="#363636" stroke-linecap="round" stroke-linejoin="round"/>
<path d="M58.4888 143.027C60.0794 149.217 60.4323 155.906 60.4323 155.906L78.4201 151.002L82.2034 157.54C82.2034 157.54 77.8598 159.636 68.7909 164.233C60.761 168.303 50.6266 171.703 46.8301 161.083" stroke="#363636" stroke-linecap="round" stroke-linejoin="round"/>
<path d="M225.079 236.506V250.712H198.082C198.082 250.712 197.998 243.053 210.436 241.641V236.316L225.079 236.506Z" fill="#363636"/>
<path d="M202.764 236.54V250.714H175.77C175.77 250.714 175.684 243.054 188.123 241.643V236.253L202.764 236.54Z" fill="#363636"/>
<path d="M210.876 175.737L190.29 189.217C187.831 192.002 186.426 195.561 186.319 199.275L184.984 236.51H201.971L225.354 236.572C225.354 236.572 226.854 208.966 227.406 199.131C227.467 198.047 227.927 197.023 228.698 196.258C229.47 195.493 230.497 195.041 231.582 194.988C235.588 194.792 241.557 194.512 244.178 194.43C264.745 193.713 259.245 185.227 256.814 179.187C255.874 176.855 254.966 174.634 254.249 172.953" stroke="#363636" stroke-linecap="round" stroke-linejoin="round"/>
<path d="M231.966 174.22L208.346 183.997C205.388 185.799 205.357 191.149 205.22 194.935L203.896 236.511" stroke="#363636" stroke-linecap="round" stroke-linejoin="round"/>
<path d="M259.074 161.879C257.203 159.488 254.08 155.493 251.836 152.614C251.747 152.611 251.659 152.591 251.578 152.554C251.459 152.499 248.748 151.336 244.898 153.794C244.834 153.947 244.714 154.071 244.563 154.14C238.386 156.966 229.302 161.118 227.411 162.007C229.291 163.785 231.627 166.249 232.099 167.908C226.222 168.285 224.989 168.115 224.742 168.047L221.212 168.446C218.565 168.812 219.364 167.69 220.425 167.253C220.923 167.05 221.609 166.726 222.231 166.441H222.218C221.344 166.766 220.501 167.169 219.699 167.645C218.817 168.043 217.74 167.566 217.621 167.317C217.548 167.162 217.817 166.812 218.347 166.392C216.533 166.951 215.64 166.948 216.046 166.053C216.239 165.796 216.479 165.579 216.754 165.413C215.514 165.567 214.274 165.208 214.738 164.469C215.022 164.012 218.179 163.269 220.032 162.825C221.615 162.46 223.222 162.208 224.841 162.071L226.138 161.824C226.084 161.676 226.084 161.514 226.138 161.367C226.192 161.219 226.297 161.096 226.434 161.019C226.875 160.772 239.749 154.893 243.281 153.28C242.178 151.295 238.549 144.427 239.026 140.37C239.046 140.195 239.136 140.035 239.274 139.925C239.413 139.815 239.589 139.765 239.765 139.786C239.94 139.806 240.101 139.896 240.21 140.034C240.32 140.173 240.37 140.349 240.349 140.525C239.93 144.099 243.303 150.558 244.404 152.554C247.001 150.961 249.182 150.811 250.561 150.97C249.932 150.158 249.471 149.556 249.271 149.287C248.093 147.701 249.681 146.785 248.946 145.495C248.212 144.204 248.143 143.593 248.143 143.593L248.225 143.562C246.82 142.934 243.976 140.068 243.636 139.294C243.259 138.501 243.131 137.612 243.272 136.745C243.412 135.878 243.813 135.074 244.422 134.441C240.387 132.202 240.559 130.644 241.867 130.977C243.175 131.31 248.201 134.507 248.368 134.624C250.252 135.881 251.627 136.761 252.577 138.416C252.577 138.383 252.593 138.365 252.593 138.365C252.593 138.365 253.047 138.559 254.384 139.248C254.632 139.376 254.915 139.422 255.191 139.38C249.507 124.582 242.787 127.613 238.911 127.745L237.667 127.794L238.329 129.462L226.255 140.364L226.535 129.775L225.735 126.078C225.41 126.168 225.104 126.247 224.852 126.314V126.329C225.432 126.598 225.882 126.938 225.977 127.359C226.282 128.729 225.126 128.806 225.126 128.806L224.387 128.112L224.36 128.217C224.824 128.515 225.172 128.866 225.243 129.272C225.446 130.662 224.285 130.653 224.285 130.653L223.833 130.123L223.8 130.254C224.241 130.637 224.407 131.11 223.824 131.646C222.172 133.172 221.338 133.002 221.338 133.002C221.338 133.002 220.273 132.323 221.806 131.251C221.731 131.282 221.66 131.315 221.596 131.348C220.206 132.107 218.834 133.362 217.833 133.252C217.833 133.252 217.786 133.71 217.658 134.524C217.776 134.512 217.894 134.529 218.003 134.575L220.089 135.502C220.242 135.569 220.363 135.692 220.428 135.845C220.494 135.998 220.5 136.17 220.445 136.327L213.685 155.537C213.64 155.666 213.555 155.778 213.443 155.857C213.332 155.936 213.198 155.978 213.061 155.978C212.986 155.978 212.911 155.966 212.84 155.94C212.675 155.882 212.54 155.76 212.465 155.602C212.389 155.444 212.379 155.263 212.437 155.098L218.98 136.464L217.451 135.784C217.309 135.721 217.194 135.61 217.126 135.47C217.058 135.331 217.041 135.172 217.078 135.021L211.841 132.815C211.861 132.771 211.876 132.727 211.894 132.682L209.494 131.608C209.494 131.608 202.512 147.573 200.891 151.727C200.711 152.245 200.559 152.772 200.436 153.306C197.012 163.544 204.222 168.857 204.222 168.857L239.368 169.214L235.291 172.677C234.693 173.361 254.459 171.821 255.145 171.907C255.496 171.949 253.718 169.24 251.9 166.582C254.781 165.395 257.625 163.822 259.074 161.879Z" fill="#363636"/>
<path d="M226.271 128.609L226.52 129.763L226.24 140.345L238.314 129.443L235.971 123.46" stroke="#363636" stroke-linecap="round" stroke-linejoin="round"/>
<path d="M220.838 118.075C220.767 115.289 220.93 111.697 221.682 108.397C221.726 108.204 221.78 108.013 221.844 107.826C219.882 106.996 218.7 110.116 219.454 115.284C219.821 117.797 218.387 119.884 218.387 119.884C219.49 120.166 220.319 119.976 220.928 119.566C220.844 118.673 220.838 118.081 220.838 118.075Z" fill="#363636"/>
<path d="M226.306 128.395C228.313 128.836 230.566 128.395 232.042 127.548C234.484 126.127 234.934 125.384 235.626 123.685C236.319 121.986 237.459 115.448 237.459 115.448V115.428C237.459 115.428 238.968 106.204 229.637 104.546C228.768 104.391 222.798 103.443 221.682 108.397C220.93 111.706 220.767 115.289 220.837 118.075C220.837 118.088 220.868 121.197 221.817 123.965" stroke="#363636" stroke-linecap="round" stroke-linejoin="round"/>
<path d="M224.691 116.056L223.738 120.581L225.388 120.32" stroke="#363636" stroke-linecap="round" stroke-linejoin="round"/>
<path d="M223.074 115.743C223.111 115.343 222.932 114.999 222.674 114.974C222.415 114.95 222.175 115.255 222.138 115.656C222.101 116.056 222.28 116.4 222.538 116.424C222.797 116.448 223.036 116.143 223.074 115.743Z" fill="#363636"/>
<path d="M227.125 116.92C227.384 116.895 227.562 116.551 227.524 116.151C227.486 115.751 227.246 115.446 226.987 115.471C226.729 115.495 226.55 115.84 226.589 116.24C226.627 116.64 226.867 116.945 227.125 116.92Z" fill="#363636"/>
<path d="M229.721 112.952C229.495 112.639 229.19 112.391 228.836 112.236C228.483 112.081 228.094 112.024 227.711 112.07" stroke="#363636" stroke-linecap="round" stroke-linejoin="round"/>
<path d="M223.613 111.702C223.613 111.702 222 110.961 221.281 111.922" stroke="#363636" stroke-linecap="round" stroke-linejoin="round"/>
<path d="M230.182 108.491C230.182 108.491 226.562 120.845 234.784 122.168C234.784 122.168 239.573 123.051 240.679 121.363C240.679 121.363 237.22 119.495 237.672 117.516C237.672 117.516 241.546 121.824 244.967 118.775C244.967 118.775 239.3 117.789 239.84 112.687C240.229 109.031 231.469 105.524 230.182 108.491Z" fill="#363636"/>
<path d="M245.212 110.342L240.206 109.548C239.712 106.169 237.78 101.322 230.868 100.468C220.059 99.1447 219.666 109.654 219.666 109.654L244.7 113.57C245.121 113.623 245.547 113.511 245.886 113.256C246.226 113.001 246.453 112.624 246.52 112.204C246.586 111.785 246.487 111.356 246.243 111.008C245.999 110.661 245.629 110.422 245.212 110.342Z" fill="#363636"/>
<path d="M228.701 121.429C228.701 121.429 228.006 123.024 225.752 122.654" stroke="#363636" stroke-linecap="round" stroke-linejoin="round"/>
<path d="M221.589 131.345C220.2 132.104 218.827 133.359 217.826 133.249C217.826 133.249 217.755 133.966 217.539 135.208" stroke="#363636" stroke-linecap="round" stroke-linejoin="round"/>
<path d="M211.848 132.822C211.962 132.542 212.068 132.273 212.15 132.017C212.615 130.801 213.017 129.835 213.363 129.068C213.769 128.163 214.356 127.351 215.088 126.684C215.821 126.016 216.683 125.506 217.621 125.185C219.075 124.686 220.782 124.164 221.671 124.108C223.405 124.003 229.052 123.57 229.101 124.47C229.132 125.075 226.626 125.836 225.099 126.235" stroke="#363636" stroke-linecap="round" stroke-linejoin="round"/>
<path d="M221.551 125.458C221.551 125.458 225.641 125.977 225.947 127.347C226.254 128.717 225.096 128.794 225.096 128.794" stroke="#363636" stroke-linecap="round" stroke-linejoin="round"/>
<path d="M221.406 127.101C221.406 127.101 225.009 127.871 225.212 129.261C225.415 130.651 224.254 130.642 224.254 130.642" stroke="#363636" stroke-linecap="round" stroke-linejoin="round"/>
<path d="M221.154 129.13C221.154 129.13 225.472 130.127 223.817 131.652C222.163 133.176 221.331 133.009 221.331 133.009C221.331 133.009 220.148 132.256 222.057 131.087" stroke="#363636" stroke-linecap="round" stroke-linejoin="round"/>
<path d="M224.678 168.014C224.678 168.014 225.02 168.353 232.099 167.899C231.594 166.134 228.957 163.43 227.025 161.638L224.799 162.062" stroke="#363636" stroke-linecap="round" stroke-linejoin="round"/>
<path d="M226.127 161.97C224.075 162.067 222.036 162.347 220.034 162.809C218.177 163.25 215.02 163.995 214.74 164.452C214.323 165.114 215.285 165.476 216.383 165.427" stroke="#363636" stroke-linecap="round" stroke-linejoin="round"/>
<path d="M217.957 166.492C216.412 166.933 215.667 166.865 216.044 166.035C216.324 165.416 220.606 163.02 221.46 162.726C222.313 162.433 227.039 161.736 227.039 161.736" stroke="#363636" stroke-linecap="round" stroke-linejoin="round"/>
<path d="M222.729 164.107C221.668 164.528 220.631 165.007 219.623 165.541C218.279 166.282 217.498 167.048 217.617 167.306C217.737 167.564 218.813 168.031 219.695 167.634C220.918 166.825 223.728 165.87 223.728 165.87C223.424 165.828 221.491 166.816 220.419 167.253C219.347 167.69 218.555 168.812 221.207 168.446L225.217 167.992" stroke="#363636" stroke-linecap="round" stroke-linejoin="round"/>
<path d="M272.101 221.758L272.397 239.762C272.397 239.762 262.029 242.188 259.291 250.816L282.234 250.798L285.887 217.388L272.101 221.758Z" stroke="#363636" stroke-linecap="round" stroke-linejoin="round"/>
<path d="M247.767 222.665L245.14 240.22C245.14 240.22 235.394 242.567 232.812 250.666L254.367 250.65L261.195 220.593L247.767 222.665Z" stroke="#363636" stroke-linecap="round" stroke-linejoin="round"/>
<path d="M321.753 183.338C318.166 184.152 311.563 178.264 311.563 178.264L277.951 170.962L277.136 175.767L270.534 175.591C253.81 174.832 251.139 187.446 251.139 187.446L237.406 241.136L257.845 241.235L268.246 203.322L263.517 240.88L284.304 241.189L288.367 202.559C293.267 201.443 309.179 197.706 313.251 195.515C317.37 193.987 321.945 188.745 321.753 183.338Z" fill="#363636"/>
<path d="M282.526 126.185C278.791 127.773 278.205 130.196 278.189 132.282C272.401 136.886 268.873 141.801 266.782 146.449C264.263 144.122 259.606 139.858 258.417 139.066C256.762 137.963 255.712 139.906 254.378 139.227C253.043 138.548 252.586 138.345 252.586 138.345C252.586 138.345 251.426 142.45 248.137 143.566C248.137 143.566 248.203 144.179 248.94 145.468C249.677 146.756 248.086 147.674 249.264 149.26C250.442 150.846 260.673 163.921 260.673 163.921C261.556 164.803 263.307 167.29 265.381 168.112" stroke="#363636" stroke-linecap="round" stroke-linejoin="round"/>
<path d="M311.458 178.162C317.498 181.875 318.674 185.147 323.272 182.171L322.442 165.237C325.109 162.052 326.192 156.387 321.143 148.553C317.309 142.648 312.247 137.637 306.303 133.863C308.882 129.657 308.425 125.381 297.578 124.521" stroke="#363636" stroke-linecap="round" stroke-linejoin="round"/>
<path d="M289.397 164.712L289.236 168.473L284.387 169.157L284.643 162.894" fill="#363636"/>
<path d="M299.598 129.238H299.093L299.567 129.783C295.805 132.272 292.392 135.252 289.42 138.644C287.378 136.266 285.916 133.447 285.146 130.409C283.92 132.075 282.59 137.744 284.341 142.84C285.06 144.938 285.279 150.506 285.27 156.617L290.417 156.233C290.472 155.454 290.534 154.689 290.598 153.914C291.961 137.504 302.404 131.126 302.404 131.126L299.598 129.238Z" fill="#363636"/>
<path d="M248.362 134.612C248.194 134.499 243.167 131.303 241.861 130.965C240.555 130.628 240.381 132.19 244.416 134.429C243.807 135.062 243.406 135.866 243.265 136.733C243.125 137.6 243.252 138.489 243.63 139.282C244.005 140.136 247.427 143.533 248.603 143.67C249.778 143.806 254.173 142.655 253.248 139.92C252.324 137.184 250.747 136.207 248.362 134.612Z" stroke="#363636" stroke-linecap="round" stroke-linejoin="round"/>
<path d="M250.857 136.446C250.857 136.446 246.514 134.73 246.072 134.979C245.459 135.33 246.139 137.099 248.058 137.955C248.058 137.955 246.721 139.691 247.458 141.044" stroke="#363636" stroke-linecap="round" stroke-linejoin="round"/>
<path d="M248.589 145.451C247.72 144.148 247.588 143.556 247.588 143.556C250.736 142.848 252.304 138.187 252.304 138.187C252.304 138.187 252.92 138.339 254.321 139.129C254.885 139.447 255.402 139.193 255.805 139.129C256.368 143.488 250.767 146.905 248.843 147.845C248.609 146.947 249.251 146.442 248.589 145.451Z" fill="#363636"/>
<path d="M285.626 156.868C283.611 156.469 281.565 156.251 279.511 156.217C277.601 156.199 274.358 156.162 273.972 156.534C273.411 157.075 274.239 157.648 275.295 157.871" stroke="#363636" stroke-linecap="round" stroke-linejoin="round"/>
<path d="M276.716 159.288C275.026 159.354 274.29 159.12 274.861 158.388C275.282 157.854 280.014 156.559 280.914 156.473C281.814 156.387 288.527 157.135 288.527 157.135" stroke="#363636" stroke-linecap="round" stroke-linejoin="round"/>
<path d="M281.814 158.126C280.683 158.281 279.561 158.496 278.454 158.771C276.971 159.168 276.027 159.724 276.085 159.995C276.142 160.266 277.071 160.985 278.024 160.813C279.405 160.321 282.363 160.07 282.363 160.07C282.076 159.955 279.963 160.449 278.82 160.617C277.677 160.785 276.636 161.683 279.296 161.965L289.003 163.675" stroke="#363636" stroke-linecap="round" stroke-linejoin="round"/>
<path d="M289.386 164.799C288.077 164.305 287.658 163.916 287.658 163.916C289.355 161.269 287.658 156.879 287.658 156.879C287.658 156.879 288.099 156.762 289.476 156.484C289.69 156.443 289.894 156.358 290.073 156.235C290.253 156.111 290.405 155.951 290.519 155.765C293.334 158.955 291.644 164.56 290.894 166.592C290.235 166.005 290.378 165.172 289.386 164.799Z" fill="#363636"/>
<path d="M307.707 152.136C307.707 152.136 304.91 152.41 304.199 156.083" stroke="#363636" stroke-linecap="round" stroke-linejoin="round"/>
<path d="M295.835 141.572C295.835 141.572 292.968 147.515 292.586 151.554" stroke="#363636" stroke-linecap="round" stroke-linejoin="round"/>
<path d="M282.596 141.832C282.596 141.832 283.919 147.519 283.478 151.553" stroke="#363636" stroke-linecap="round" stroke-linejoin="round"/>
<path d="M308.417 168.173C308.417 168.173 293.522 167.16 291.852 166.732C290.182 166.304 290.8 165.082 289.591 164.617C288.382 164.151 287.994 163.778 287.994 163.778C289.563 161.277 287.994 157.132 287.994 157.132C287.994 157.132 288.407 157.019 289.675 156.759C290.944 156.498 290.533 155.19 292.252 155.04C293.97 154.89 308.715 156.571 308.715 156.571" stroke="#363636" stroke-linecap="round" stroke-linejoin="round"/>
<path d="M267.039 146.595C267.039 146.595 270.469 149.128 272.651 152.331" stroke="#363636" stroke-linecap="round" stroke-linejoin="round"/>
<path d="M305.918 133.222C303.383 137.458 298.155 142.172 296.825 142.785C296.824 142.791 296.824 142.797 296.825 142.803C300.621 142.988 309.487 138.089 310.985 137.228C309.145 135.852 307.168 134.049 305.918 133.222Z" fill="#363636"/>
<path d="M278.911 134.25C278.884 133.628 278.818 132.911 278.831 132.152C277.746 133.008 276.085 133.877 275.125 134.753C276.272 136.976 278.597 140.347 281.134 141.913C280.364 140.33 279.083 138.223 278.911 134.25Z" fill="#363636"/>
<path d="M298.838 117.509C298.838 117.509 302.147 117.573 301.556 120.536C301.137 122.625 299.193 122.387 298.086 122.065" stroke="#363636" stroke-linecap="round" stroke-linejoin="round"/>
<path d="M281.91 112.71C281.469 116.163 281.657 119.865 282.005 122.649" stroke="#363636" stroke-linecap="round" stroke-linejoin="round"/>
<path d="M297.7 124.335L297.815 127.759L299.58 129.775C295.818 132.264 292.405 135.245 289.432 138.637C287.562 136.465 286.178 133.918 285.371 131.167" stroke="#363636" stroke-linecap="round" stroke-linejoin="round"/>
<path d="M297.1 118.136C296.555 118.686 295.095 121.851 294.737 123.327C294.737 123.327 291.119 122.087 285.938 122.003C285.938 122.003 283.112 122.061 281.984 122.4C281.984 122.4 282.229 127.629 284.519 130.342C286.809 133.055 291.656 132.292 293.928 130.664C296.2 129.036 296.575 128.26 297.1 126.519C297.625 124.779 299.015 118.286 299.015 118.286L297.1 118.136Z" stroke="#363636" stroke-linecap="round" stroke-linejoin="round"/>
<path d="M298.544 119.254C298.544 119.254 300.089 116.847 300.7 114.345C300.984 113.205 300.871 112.003 300.38 110.936C299.888 109.869 299.047 109.001 297.995 108.477C296.173 107.595 294.823 108.288 294.823 108.288C294.823 108.288 296.755 104.998 293.854 102.091C293.347 101.583 292.741 101.183 292.074 100.918C291.407 100.652 290.692 100.526 289.974 100.547C288.985 100.556 288.021 100.852 287.198 101.401C286.375 101.949 285.73 102.726 285.341 103.635C285.341 103.635 281.549 96.6708 273.778 100.792C272.994 101.209 272.11 102.367 271.689 103.148C269.121 107.877 277.581 113.481 281.986 113.924C286.822 114.412 289.652 113.611 291.209 112.426C290.049 113.13 291.353 120.366 298.544 119.254Z" fill="#363636"/>
<path d="M285.585 119.996L285.062 124.551L286.668 124.141" stroke="#363636" stroke-linecap="round" stroke-linejoin="round"/>
<path d="M283.68 120.403C283.939 120.403 284.148 120.08 284.148 119.682C284.148 119.284 283.939 118.961 283.68 118.961C283.422 118.961 283.213 119.284 283.213 119.682C283.213 120.08 283.422 120.403 283.68 120.403Z" fill="#363636"/>
<path d="M287.975 120.284C288.234 120.284 288.443 119.961 288.443 119.563C288.443 119.164 288.234 118.841 287.975 118.841C287.717 118.841 287.508 119.164 287.508 119.563C287.508 119.961 287.717 120.284 287.975 120.284Z" fill="#363636"/>
<path d="M290.422 116.657C290.186 116.355 289.874 116.122 289.518 115.982C289.162 115.842 288.774 115.8 288.396 115.86" stroke="#363636" stroke-linecap="round" stroke-linejoin="round"/>
<path d="M284.111 115.784C284.111 115.784 282.818 115.449 282.494 116.506" stroke="#363636" stroke-linecap="round" stroke-linejoin="round"/>
<path d="M289.132 125.628C289.132 125.628 288.911 127.009 287.643 126.787" stroke="#363636" stroke-linecap="round" stroke-linejoin="round"/>
<path d="M325.543 168.568H28.127V251.009H325.543V168.568Z" stroke="#363636" stroke-linecap="round" stroke-linejoin="round"/>
<path d="M325.901 168.396H27.5625V179.007H325.901V168.396Z" fill="#363636"/>
<path d="M1.4668 251.125H352.686" stroke="#363636" stroke-linecap="round" stroke-linejoin="round"/>
</svg>
