<svg width="644" height="321" viewBox="0 0 644 321" fill="none" xmlns="http://www.w3.org/2000/svg">
<g clip-path="url(#clip0_637_1202)">
<path d="M168.469 126.552V13.7352C168.469 7.13731 173.812 1.80194 180.42 1.80194H463.782C470.39 1.80194 475.734 7.13731 475.734 13.7352V192.205" stroke="#8A8A8A" stroke-width="2" stroke-linecap="round" stroke-linejoin="round"/>
<path d="M183.072 195.016V14.3462C183.072 8.19623 187.844 3.22742 193.758 3.22742" stroke="#8A8A8A" stroke-width="2" stroke-linecap="round" stroke-linejoin="round"/>
<path d="M286.635 240.224V273.173" stroke="#8A8A8A" stroke-width="2" stroke-linecap="round" stroke-linejoin="round"/>
<path d="M286.635 2.41284V187.97" stroke="#8A8A8A" stroke-width="2" stroke-linecap="round" stroke-linejoin="round"/>
<path d="M347.656 21.5143H349.858C351 21.5143 351.898 22.4103 351.898 23.5507V27.8679C351.898 29.0082 351 29.9043 349.858 29.9043H347.656C346.514 29.9043 345.616 29.0082 345.616 27.8679V23.5507C345.616 22.4103 346.514 21.5143 347.656 21.5143Z" fill="#8A8A8A"/>
<path d="M302.053 21.5143H341.129C342.271 21.5143 343.169 22.4103 343.169 23.5507V27.8679C343.169 29.0082 342.271 29.9043 341.129 29.9043H302.053C300.911 29.9043 300.014 29.0082 300.014 27.8679V23.5507C300.014 22.4103 300.952 21.5143 302.053 21.5143Z" fill="#8A8A8A"/>
<path d="M302.053 60.491H345.045C346.187 60.491 347.085 61.387 347.085 62.5274V66.8445C347.085 67.9849 346.187 68.8809 345.045 68.8809H302.053C300.911 68.8809 300.014 67.9849 300.014 66.8445V62.5274C300.014 61.4277 300.952 60.491 302.053 60.491Z" fill="#8A8A8A"/>
<path d="M313.964 47.4988H382.897C384.04 47.4988 384.937 48.3948 384.937 49.5352V53.8524C384.937 54.9927 384.04 55.8888 382.897 55.8888H313.964C312.822 55.8888 311.924 54.9927 311.924 53.8524V49.5352C311.924 48.4355 312.862 47.4988 313.964 47.4988Z" fill="#8A8A8A"/>
<path d="M436.168 108.061H438.371C439.513 108.061 440.41 108.957 440.41 110.098V114.415C440.41 115.555 439.513 116.451 438.371 116.451H436.168C435.026 116.451 434.129 115.555 434.129 114.415V110.098C434.129 108.957 435.026 108.061 436.168 108.061Z" fill="#8A8A8A"/>
<path d="M302.053 34.5065H373.475C374.617 34.5065 375.515 35.4025 375.515 36.5429V40.8601C375.515 42.0005 374.617 42.8965 373.475 42.8965H302.053C300.911 42.8965 300.014 42.0005 300.014 40.8601V36.5429C300.014 35.4433 300.952 34.5065 302.053 34.5065Z" fill="#8A8A8A"/>
<path d="M356.67 21.5143H395.746C396.888 21.5143 397.786 22.4103 397.786 23.5507V27.8679C397.786 29.0082 396.888 29.9043 395.746 29.9043H356.67C355.528 29.9043 354.631 29.0082 354.631 27.8679V23.5507C354.631 22.4103 355.569 21.5143 356.67 21.5143Z" fill="#8A8A8A"/>
<path d="M380.94 34.5065H426.909C428.051 34.5065 428.948 35.4025 428.948 36.5429V40.9008C428.948 42.0412 428.051 42.9372 426.909 42.9372H380.94C379.798 42.9372 378.9 42.0412 378.9 40.9008V36.5429C378.9 35.4025 379.798 34.5065 380.94 34.5065Z" fill="#8A8A8A"/>
<path d="M302.053 94.7433H341.129C342.271 94.7433 343.169 95.6393 343.169 96.7797V101.097C343.169 102.237 342.271 103.133 341.129 103.133H302.053C300.911 103.133 300.014 102.237 300.014 101.097V96.7797C300.014 95.68 300.952 94.7433 302.053 94.7433Z" fill="#8A8A8A"/>
<path d="M391.055 120.768H426.42C427.562 120.768 428.459 121.665 428.459 122.805V127.122C428.459 128.262 427.562 129.158 426.42 129.158H391.055C389.913 129.158 389.016 128.262 389.016 127.122V122.805C389.016 121.665 389.913 120.768 391.055 120.768Z" fill="#8A8A8A"/>
<path d="M302.053 107.736H373.475C374.617 107.736 375.515 108.632 375.515 109.772V114.089C375.515 115.229 374.617 116.126 373.475 116.126H302.053C300.911 116.126 300.014 115.229 300.014 114.089V109.772C300.014 108.672 300.952 107.736 302.053 107.736Z" fill="#8A8A8A"/>
<path d="M347.656 94.7433H395.787C396.929 94.7433 397.826 95.6393 397.826 96.7797V101.097C397.826 102.237 396.929 103.133 395.787 103.133H347.656C346.514 103.133 345.616 102.237 345.616 101.097V96.7797C345.616 95.68 346.514 94.7433 347.656 94.7433Z" fill="#8A8A8A"/>
<path d="M403.17 94.7433H442.246C443.388 94.7433 444.285 95.6393 444.285 96.7797V101.097C444.285 102.237 443.388 103.133 442.246 103.133H403.17C402.027 103.133 401.13 102.237 401.13 101.097V96.7797C401.13 95.68 402.068 94.7433 403.17 94.7433Z" fill="#8A8A8A"/>
<path d="M347.656 82.1583H349.858C351 82.1583 351.898 83.0543 351.898 84.1947V88.5119C351.898 89.6523 351 90.5483 349.858 90.5483H347.656C346.514 90.5483 345.616 89.6523 345.616 88.5119V84.1947C345.616 83.0951 346.514 82.1583 347.656 82.1583Z" fill="#8A8A8A"/>
<path d="M302.053 82.1583H341.129C342.271 82.1583 343.169 83.0543 343.169 84.1947V88.5119C343.169 89.6523 342.271 90.5483 341.129 90.5483H302.053C300.911 90.5483 300.014 89.6523 300.014 88.5119V84.1947C300.014 83.0951 300.952 82.1583 302.053 82.1583Z" fill="#8A8A8A"/>
<path d="M356.67 82.1583H395.746C396.888 82.1583 397.786 83.0543 397.786 84.1947V88.5119C397.786 89.6523 396.888 90.5483 395.746 90.5483H356.67C355.528 90.5483 354.631 89.6523 354.631 88.5119V84.1947C354.631 83.0951 355.569 82.1583 356.67 82.1583Z" fill="#8A8A8A"/>
<path d="M380.94 107.736H430.091C431.233 107.736 432.13 108.632 432.13 109.772V114.13C432.13 115.27 431.233 116.166 430.091 116.166H380.94C379.798 116.166 378.9 115.27 378.9 114.13V109.772C378.9 108.632 379.798 107.736 380.94 107.736Z" fill="#8A8A8A"/>
<path d="M207.871 87.2493H215.988C217.13 87.2493 218.028 88.1453 218.028 89.2857V93.6029C218.028 94.7433 217.13 95.6393 215.988 95.6393H207.871C206.729 95.6393 205.832 94.7433 205.832 93.6029V89.2857C205.832 88.1453 206.729 87.2493 207.871 87.2493Z" fill="#8A8A8A"/>
<path d="M207.871 72.9131H231.896C233.038 72.9131 233.936 73.8091 233.936 74.9495V79.2667C233.936 80.407 233.038 81.3031 231.896 81.3031H207.871C206.729 81.3031 205.832 80.407 205.832 79.2667V74.9495C205.832 73.8091 206.729 72.9131 207.871 72.9131Z" fill="#8A8A8A"/>
<path d="M207.871 60.3688H240.87C242.012 60.3688 242.909 61.2649 242.909 62.4052V66.7224C242.909 67.8628 242.012 68.7588 240.87 68.7588H207.871C206.729 68.7588 205.832 67.8628 205.832 66.7224V62.4052C205.832 61.2649 206.729 60.3688 207.871 60.3688Z" fill="#8A8A8A"/>
<path d="M207.871 47.621H231.896C233.038 47.621 233.936 48.517 233.936 49.6574V53.9338C233.936 55.0742 233.038 55.9702 231.896 55.9702H207.871C206.729 55.9702 205.832 55.0742 205.832 53.9338V49.6574C205.832 48.517 206.729 47.621 207.871 47.621Z" fill="#8A8A8A"/>
<path d="M207.871 34.14H222.229C223.371 34.14 224.268 35.036 224.268 36.1764V40.4529C224.268 41.5932 223.371 42.4893 222.229 42.4893H207.871C206.729 42.4893 205.832 41.5932 205.832 40.4529V36.1764C205.832 35.036 206.729 34.14 207.871 34.14Z" fill="#8A8A8A"/>
<path d="M229 34.14H232.467C233.201 34.14 233.813 34.7509 233.813 35.484V41.1452C233.813 41.8783 233.201 42.4893 232.467 42.4893H229C228.266 42.4893 227.654 41.8783 227.654 41.1452V35.484C227.654 34.7509 228.225 34.14 229 34.14Z" fill="#8A8A8A"/>
<path d="M238.341 47.4581H241.808C242.542 47.4581 243.154 48.069 243.154 48.8021V54.4633C243.154 55.1964 242.542 55.8073 241.808 55.8073H238.341C237.606 55.8073 236.995 55.1964 236.995 54.4633V48.8021C236.995 48.069 237.606 47.4581 238.341 47.4581Z" fill="#8A8A8A"/>
<path d="M248.293 60.3688H251.76C252.495 60.3688 253.106 60.9798 253.106 61.7129V67.3741C253.106 68.1072 252.495 68.7181 251.76 68.7181H248.293C247.559 68.7181 246.947 68.1072 246.947 67.3741V61.7129C246.947 60.9798 247.559 60.3688 248.293 60.3688Z" fill="#8A8A8A"/>
<path d="M238.667 72.9945H242.134C242.868 72.9945 243.48 73.6054 243.48 74.3385V79.9997C243.48 80.7328 242.868 81.3438 242.134 81.3438H238.667C237.933 81.3438 237.321 80.7328 237.321 79.9997V74.3385C237.321 73.6054 237.892 72.9945 238.667 72.9945Z" fill="#8A8A8A"/>
<path d="M222.351 87.2493H225.818C226.553 87.2493 227.165 87.8603 227.165 88.5934V94.2545C227.165 94.9876 226.553 95.5986 225.818 95.5986H222.351C221.617 95.5986 221.005 94.9876 221.005 94.2545V88.5934C221.005 87.8603 221.617 87.2493 222.351 87.2493Z" fill="#8A8A8A"/>
<path d="M259.062 99.427H262.529C263.263 99.427 263.875 100.038 263.875 100.771V106.473C263.875 107.206 263.263 107.817 262.529 107.817H259.062C258.327 107.817 257.716 107.206 257.716 106.473V100.771C257.716 100.038 258.287 99.427 259.062 99.427Z" fill="#8A8A8A"/>
<path d="M207.341 20.6183H237.239C238.382 20.6183 239.279 21.5143 239.279 22.6547V26.9311C239.279 28.0715 238.382 28.9675 237.239 28.9675H207.341C206.199 28.9675 205.302 28.0715 205.302 26.9311V22.6547C205.302 21.555 206.24 20.6183 207.341 20.6183Z" fill="#8A8A8A"/>
<path d="M253.473 99.4677H233.528C233.079 100.242 232.345 101.3 231.488 102.482C232.589 101.748 236.26 99.2233 236.342 101.097C236.424 102.156 233.201 105.373 230.672 107.817H253.473C254.616 107.817 255.513 106.921 255.513 105.781V101.463C255.513 100.364 254.616 99.4677 253.473 99.4677Z" fill="#8A8A8A"/>
<path d="M207.871 107.817H208.605C210.726 105.129 216.763 102.848 216.763 102.848C217.742 102.197 219.659 100.527 220.924 99.427H207.871C206.729 99.427 205.832 100.323 205.832 101.463V105.781C205.832 106.921 206.729 107.817 207.871 107.817Z" fill="#8A8A8A"/>
<path d="M405.576 53.1192C403.007 54.1782 397.908 55.2371 397.337 53.5672C397.092 52.9156 403.129 49.861 404.312 49.6981C405.495 49.5352 413.326 47.9875 413.326 47.9875C413.326 47.9875 417.201 47.9468 420.505 47.906C420.791 47.906 421.076 47.906 421.362 47.9468C420.995 47.6617 420.587 47.5395 420.138 47.5395H391.096C389.954 47.5395 389.057 48.4355 389.057 49.5759V53.8931C389.057 55.0334 389.954 55.9295 391.096 55.9295H414.713C414.427 54.5854 408.146 52.0196 405.576 53.1192Z" fill="#8A8A8A"/>
<path d="M122.214 300.99L122.173 214.036C122.173 214.036 90.4803 214.198 90.3987 214.036L90.3171 213.954H55.9727V318.747H149.38V300.99H122.214Z" fill="#363636"/>
<path d="M175.852 318.34L175.444 318.503H166.266C165.369 318.584 160.637 318.381 164.676 315.856C165.491 315.53 172.262 311.172 174.954 310.683C177.647 310.194 187.966 310.194 188.17 310.194C188.293 310.194 189.394 307.181 190.414 304.33C188.578 303.922 186.375 302.415 184.499 300.705C184.662 301.031 127.884 299.849 127.884 299.849L128.373 319.562H136.776L137.265 302.008C137.265 302.008 140.692 319.155 152.398 319.928C156.11 320.173 170.304 319.317 181.562 318.462C178.911 318.421 176.749 318.34 175.852 318.34Z" fill="#CCEA17"/>
<path d="M218.558 114.17C218.558 114.17 226.186 112.093 230.55 107.98C233.12 105.495 236.465 102.196 236.383 101.097C236.261 99.0604 231.978 102.196 231.284 102.604" stroke="#363636" stroke-width="2" stroke-linecap="round" stroke-linejoin="round"/>
<path d="M215.907 116.777L216.6 115.107C220.72 113.397 223.494 111.564 225.288 109.976C227.613 107.898 234.099 99.264 234.058 98.368C233.895 95.9243 229.897 96.9425 227.858 101.382" stroke="#363636" stroke-width="2" stroke-linecap="round" stroke-linejoin="round"/>
<path d="M222.678 107.45C222.678 107.45 226.308 104.314 227.573 101.708C228.837 99.1011 229.734 97.1054 229.286 96.7796C228.837 96.4538 226.512 97.0647 225.574 98.5716C224.554 101.178 220.312 104.722 220.312 104.722C220.842 104.518 223.453 101.626 224.636 99.8342C225.819 98.0422 225.859 95.2727 222.188 98.368C222.188 98.368 218.313 101.83 216.804 102.848C216.804 102.848 209.992 105.414 208.279 108.306C207.912 108.957 206.688 110.953 204.975 113.722" stroke="#363636" stroke-width="2" stroke-linecap="round" stroke-linejoin="round"/>
<path d="M191.556 131.398L201.467 113.397L217.09 117.103L200.774 156.813L191.556 131.398Z" stroke="#363636" stroke-width="2" stroke-linecap="round" stroke-linejoin="round"/>
<path d="M118.38 110.872L109.57 110.912C104.96 110.912 98.6789 115.8 97.9854 121.135C96.721 130.91 92.9276 144.391 90.3171 155.632C84.1987 174.367 77.9988 202.306 90.4394 213.995C90.521 214.158 122.214 213.995 122.214 213.995L122.255 300.949H185.437C185.437 300.949 197.919 212.447 194.941 205.564C191.964 198.681 155.335 178.399 155.335 178.399C155.335 178.399 171.61 136.53 162.473 123.742C157.905 117.592 151.746 115.515 146.892 114.578" stroke="#363636" stroke-width="2" stroke-linecap="round" stroke-linejoin="round"/>
<path d="M124.702 108.754C122.581 108.998 120.46 106.514 119.93 103.092C119.645 101.463 119.849 99.7528 120.501 98.2458" stroke="#CCEA17" stroke-width="2" stroke-linecap="round" stroke-linejoin="round"/>
<path d="M157.946 106.554C155.825 106.799 153.704 104.314 153.173 100.893" stroke="#CCEA17" stroke-width="2" stroke-linecap="round" stroke-linejoin="round"/>
<path d="M122.785 71.4061C127.762 67.7406 131.065 48.4762 117.564 35.5654C103.859 22.4917 92.4789 35.8505 89.95 39.3531C87.4211 42.8557 85.504 52.549 97.3328 61.7128C109.162 70.8766 117.116 75.6011 122.785 71.4061Z" fill="#363636"/>
<path d="M130.046 79.9182L129.719 80.1219C127.802 81.303 125.314 80.8143 124.009 78.9815L120.379 73.8905C119.114 72.2206 119.481 69.8177 121.154 68.5551C121.235 68.5144 121.276 68.4737 121.358 68.4329L121.684 68.2293C123.601 67.0482 126.089 67.5369 127.394 69.3697L131.025 74.4607C132.289 76.1305 131.922 78.5335 130.25 79.7961C130.168 79.8368 130.127 79.8775 130.046 79.9182Z" fill="#CCEA17"/>
<path d="M125.926 97.8385C124.58 98.6531 122.908 98.6938 121.48 98.0015C119.196 96.9833 118.176 94.3359 119.196 92.0959C119.196 92.0959 119.196 92.0959 119.196 92.0552C120.052 90.3039 121.969 89.3264 123.927 89.6929" stroke="#363636" stroke-width="2" stroke-linecap="round" stroke-linejoin="round"/>
<path d="M153.5 88.3896C154.642 88.0638 155.865 88.1453 156.926 88.634C159.21 89.6522 160.23 92.2995 159.21 94.5803C158.272 96.4538 156.151 97.4313 154.111 96.9018" stroke="#363636" stroke-width="2" stroke-linecap="round" stroke-linejoin="round"/>
<path d="M142.282 111.075L142.364 113.6L147.83 114.822C148.156 115.718 148.482 131.113 134.369 129.199C125.11 127.937 121.113 118.366 118.625 110.79L127.027 111.768L127.068 101.463" stroke="#363636" stroke-width="2" stroke-linecap="round" stroke-linejoin="round"/>
<path d="M142.806 110.76C150.715 109.309 155.613 99.9009 153.744 89.7467C151.876 79.5926 143.949 72.5373 136.04 73.9884C128.13 75.4394 123.233 84.8473 125.101 95.0014C126.97 105.156 134.896 112.211 142.806 110.76Z" stroke="#363636" stroke-width="2" stroke-linecap="round" stroke-linejoin="round"/>
<path d="M140.732 96.8203L143.506 96.7389C143.751 96.7389 143.955 96.5352 143.914 96.2909C143.914 96.2502 143.914 96.2094 143.914 96.2094L141.915 88.6747" stroke="#363636" stroke-width="2" stroke-linecap="round" stroke-linejoin="round"/>
<path d="M133.023 84.9278C133.023 84.9278 135.471 82.7284 137.51 84.5612" stroke="#363636" stroke-width="2" stroke-linecap="round" stroke-linejoin="round"/>
<path d="M144.24 84.2354C144.24 84.2354 147.381 83.0543 148.645 85.4572" stroke="#363636" stroke-width="2" stroke-linecap="round" stroke-linejoin="round"/>
<path d="M138.297 91.1458C138.327 90.2241 137.858 89.4609 137.25 89.4411C136.642 89.4214 136.125 90.1527 136.095 91.0745C136.065 91.9962 136.534 92.7594 137.142 92.7792C137.75 92.7989 138.267 92.0676 138.297 91.1458Z" fill="#363636"/>
<path d="M147.667 93.1919C148.274 93.148 148.712 92.3668 148.645 91.447C148.578 90.5271 148.032 89.817 147.426 89.8609C146.819 89.9047 146.381 90.6859 146.448 91.6058C146.515 92.5256 147.061 93.2357 147.667 93.1919Z" fill="#363636"/>
<path d="M156.763 93.8065C158.925 93.4807 160.719 96.3316 161.25 99.7528C161.78 103.174 160.475 106.269 158.313 106.595H158.231" stroke="#CCEA17" stroke-width="2" stroke-linecap="round" stroke-linejoin="round"/>
<path d="M122.826 96.2502C124.988 95.9243 127.15 98.4495 127.68 101.871C128.21 105.333 126.905 108.387 124.743 108.713H124.662" stroke="#CCEA17" stroke-width="2" stroke-linecap="round" stroke-linejoin="round"/>
<path d="M141.263 102.278C141.263 102.278 134.94 106.188 134.614 97.6757L141.263 102.278Z" stroke="#363636" stroke-width="2" stroke-linecap="round" stroke-linejoin="round"/>
<path d="M134.165 69.6548L134.125 69.6955C129.393 70.3879 124.09 72.5465 121.154 75.7232C115.933 81.3437 118.339 93.3585 123.642 94.173C124.09 94.2545 124.539 94.2952 124.947 94.2952C124.906 94.0101 124.865 93.6843 124.825 93.3992C124.702 92.2995 124.662 91.1999 124.662 90.1002C131.922 87.4122 131.881 76.5378 131.881 75.6418C133.431 76.8636 135.43 78.9408 134.9 81.2623L150.93 82.2805C152.561 85.0907 153.581 88.186 153.907 91.3628V91.485C155.417 89.3264 155.457 86.0274 154.234 82.4841L159.659 82.8099C159.699 82.8099 164.676 64.5638 134.165 69.6548Z" fill="#363636"/>
<path d="M150.522 151.722L116.422 151.64L118.339 136.937" stroke="#363636" stroke-width="2" stroke-linecap="round" stroke-linejoin="round"/>
<path d="M89.9091 157.179C88.3999 163.126 93.3354 170.294 99.4946 170.416L148.972 170.375" stroke="#363636" stroke-width="2" stroke-linecap="round" stroke-linejoin="round"/>
<path d="M116.748 151.681C116.748 151.681 111.65 149.4 107.938 154.898" stroke="#363636" stroke-width="2" stroke-linecap="round" stroke-linejoin="round"/>
<path d="M116.626 149.93C116.626 149.93 111.894 145.653 105.939 150.581" stroke="#363636" stroke-width="2" stroke-linecap="round" stroke-linejoin="round"/>
<path d="M109.488 164.755L134.492 164.999L142.731 126.307C142.854 125.493 143.588 124.882 144.404 124.841L205.343 125.778C206.444 125.778 207.26 126.959 207.015 128.181L199.265 169.438C198.735 172.004 195.512 173.959 193.187 173.919C178.218 173.674 117.931 172.819 116.137 172.778C108.101 172.697 109.488 164.755 109.488 164.755Z" fill="#363636"/>
<path d="M76.0818 317.525V172.982H214.642V317.525" stroke="#363636" stroke-width="2" stroke-linecap="round" stroke-linejoin="round"/>
<path d="M175.444 318.503H166.266C165.369 318.584 160.638 318.381 164.676 315.856C165.491 315.53 172.262 311.172 174.954 310.683C177.647 310.194 187.966 310.194 188.17 310.194C188.374 310.194 191.964 300.012 192.045 299.442L206.648 300.094C205.873 302.049 201.304 316.426 197.96 317.688C194.615 318.951 175.403 318.299 175.403 318.299C175.403 318.299 175.729 315.448 179.523 315.041C183.316 314.634 184.907 314.634 184.907 314.634" stroke="#363636" stroke-width="2" stroke-linecap="round" stroke-linejoin="round"/>
<path d="M261.672 198.03L259.551 206.827C260.897 214.158 252.413 219.249 246.539 214.606L236.138 206.379L241.93 194.812" stroke="#363636" stroke-width="2" stroke-linecap="round" stroke-linejoin="round"/>
<path d="M264.405 196.889C261.795 198.274 258.817 198.926 255.839 198.681C250.7 198.111 249.395 197.215 246.988 194.853C244.582 192.491 237.851 182.471 237.851 182.471V182.431C237.851 182.431 228.551 168.135 242.909 158.523C244.255 157.627 253.514 151.681 259.062 159.094C262.733 164.062 265.67 169.927 267.587 174.611C267.587 174.611 269.83 179.865 270.279 185.16" stroke="#363636" stroke-width="2" stroke-linecap="round" stroke-linejoin="round"/>
<path d="M259.633 173.552L264.364 179.946L261.631 181.616" stroke="#363636" stroke-width="2" stroke-linecap="round" stroke-linejoin="round"/>
<path d="M262.94 171.808C263.353 171.579 263.395 170.867 263.034 170.218C262.672 169.57 262.044 169.23 261.631 169.46C261.217 169.689 261.175 170.401 261.537 171.05C261.898 171.699 262.527 172.038 262.94 171.808Z" fill="#363636"/>
<path d="M256.904 176.994C257.353 176.846 257.527 176.154 257.294 175.449C257.06 174.745 256.507 174.294 256.058 174.442C255.608 174.591 255.434 175.282 255.667 175.987C255.901 176.692 256.455 177.143 256.904 176.994Z" fill="#363636"/>
<path d="M249.436 173.633C249.721 172.249 250.782 171.108 252.168 170.701" stroke="#363636" stroke-width="2" stroke-linecap="round" stroke-linejoin="round"/>
<path d="M258.246 166.017C258.246 166.017 260.408 163.614 262.325 164.714" stroke="#363636" stroke-width="2" stroke-linecap="round" stroke-linejoin="round"/>
<path d="M242.746 165.895C242.746 165.895 259.184 185.363 245.316 194.364C245.316 194.364 239.238 198.03 235.894 195.83C235.894 195.83 239.972 192.368 237.566 189.151C237.566 189.151 233.283 199.74 224.677 196.971C224.677 196.971 233.079 190.495 229.612 184.101C226.145 177.706 238.055 161.578 242.746 165.895Z" fill="#363636"/>
<path d="M260.367 158.279C260.367 158.279 248.212 142.314 232.834 156.202C223.942 164.185 224.921 172.819 227.328 178.724L219.986 186.463C218.476 188.214 218.68 190.861 220.434 192.368C222.066 193.753 224.513 193.712 226.063 192.246L260.367 158.279Z" fill="#CCEA17"/>
<path d="M260.122 185.893L263.712 184.915" stroke="#363636" stroke-width="2" stroke-linecap="round" stroke-linejoin="round"/>
<path d="M274.276 198.111C277.213 198.274 280.476 199.292 282.067 198.315C284.147 201.614 286.431 204.709 288.96 207.682" stroke="#363636" stroke-width="2" stroke-linecap="round" stroke-linejoin="round"/>
<path d="M299.81 198.803C295.935 196.319 292.631 193.875 290.632 191.757C288.878 190.088 287.451 188.784 286.268 187.807C283.454 185.404 279.742 184.263 276.071 184.671C273.256 184.997 269.993 185.445 268.443 186.055C265.466 187.237 255.676 190.984 256.329 192.531C256.777 193.631 262.162 192.776 264.894 192.205" stroke="#363636" stroke-width="2" stroke-linecap="round" stroke-linejoin="round"/>
<path d="M268.688 188.988C268.688 188.988 263.304 192.328 263.875 194.853C264.446 197.378 266.444 196.604 266.444 196.604" stroke="#363636" stroke-width="2" stroke-linecap="round" stroke-linejoin="round"/>
<path d="M271.257 190.861C271.257 190.861 265.833 194.975 266.608 197.459C267.383 199.944 269.3 199.007 269.3 199.007" stroke="#363636" stroke-width="2" stroke-linecap="round" stroke-linejoin="round"/>
<path d="M273.256 194.038C273.256 194.038 266.811 199.088 270.809 200.351C274.806 201.614 276.03 200.636 276.03 200.636C276.03 200.636 277.417 198.437 273.297 197.989" stroke="#363636" stroke-width="2" stroke-linecap="round" stroke-linejoin="round"/>
<path d="M284.881 268.367C299.198 253.216 317.635 233.544 323.59 226.824C333.339 215.868 350.878 217.131 358.914 225.439" stroke="#363636" stroke-width="2" stroke-linecap="round" stroke-linejoin="round"/>
<path d="M266.689 287.672L338.233 277.531C341.293 277.246 344.393 277.286 347.493 277.571L415.855 286.043L415.692 319.195L246.621 319.318L266.689 287.672Z" stroke="#363636" stroke-width="2" stroke-linecap="round" stroke-linejoin="round"/>
<path d="M340.518 221.163C339.049 220.878 337.581 221.815 337.295 223.281L327.506 273.336L277.702 280.056L277.866 281.155C278.151 283.273 280.109 284.78 282.23 284.495L329.627 278.101C331.748 277.816 333.257 275.861 332.972 273.743L342.598 224.421C342.924 222.955 341.986 221.489 340.518 221.163Z" fill="#363636"/>
<path d="M309.191 243.115C315.391 236.192 320.449 230.408 323.631 226.865C324.528 225.847 325.507 224.951 326.568 224.095C325.915 222.711 325.14 221.407 324.243 220.186C319.593 214.158 300.381 191.309 300.381 191.309L284.392 204.994L287.165 208.782C276.315 206.175 265.506 204.668 260 204.953L259.551 206.867C260.897 214.199 252.413 219.29 246.539 214.647L236.138 206.419L236.995 204.75C227.695 204.342 219.455 206.175 216.845 213.017C211.95 222.059 190.046 302.823 190.046 302.823L218.272 303.556L221.128 292.356C221.862 299.605 222.678 306.244 223.657 311.376C224.962 318.422 239.442 320.051 246.621 319.969L265.221 319.725L292.957 286.572L278.844 240.224C287.328 241.771 299.769 243.645 309.191 243.115Z" fill="#363636"/>
<path d="M278.64 164.836C278.64 164.836 269.667 167.565 266.771 161.782C265.547 159.338 261.713 157.994 257.716 157.668C258.205 158.116 258.654 158.605 259.021 159.094C262.692 164.062 265.629 169.927 267.546 174.611C267.546 174.611 267.954 175.588 268.443 177.055C270.075 175.996 271.91 174.326 271.992 172.33C271.992 172.33 267.423 173.511 266.281 170.09C266.363 170.131 276.234 172.493 278.64 164.836Z" fill="#363636"/>
<path d="M561.024 300.461C561.024 300.461 581.01 310.357 579.216 320.58L537.04 320.417L537.774 300.542L561.024 300.461Z" fill="#CCEA17"/>
<path d="M547.808 59.9208C545.932 54.4226 539.324 51.7345 533.002 53.9338C529.942 54.952 527.373 57.1106 525.782 59.9208L530.269 70.673L538.263 72.1392C537.652 72.9945 536.999 73.8091 536.306 74.5829C537.488 74.5015 538.671 74.2571 539.813 73.8498C546.054 71.6505 549.644 65.4191 547.808 59.9208Z" fill="#363636"/>
<path d="M551.893 82.762C556.762 80.9273 559.413 76.0109 557.814 71.7809C556.215 67.5509 550.972 65.6091 546.103 67.4438C541.235 69.2785 538.584 74.1949 540.183 78.4249C541.782 82.655 547.025 84.5967 551.893 82.762Z" fill="#363636"/>
<path d="M562.239 91.2043C566.602 89.5602 568.978 85.1566 567.546 81.3685C566.115 77.5805 561.417 75.8424 557.054 77.4865C552.692 79.1306 550.315 83.5342 551.747 87.3223C553.179 91.1104 557.877 92.8484 562.239 91.2043Z" fill="#363636"/>
<path d="M573.301 93.5215C574.403 96.6982 572.322 100.282 568.692 101.545C565.062 102.807 561.228 101.26 560.167 98.1237C559.107 94.9877 560.983 91.2 564.613 89.9374C568.243 88.6748 572.241 90.3447 573.301 93.5215Z" fill="#363636"/>
<path d="M579.991 102.074C580.072 105.495 581.785 106.88 583.417 107.41C583.866 107.573 584.11 108.061 583.947 108.509C583.866 108.754 583.702 108.917 583.458 109.039C579.134 110.749 571.343 112.827 568.896 106.758C567.754 103.907 569.141 100.486 572.322 98.9383C575.504 97.3906 579.909 98.979 579.991 102.074Z" fill="#363636"/>
<path d="M546.34 67.4555L540.14 73.8091" stroke="#CCEA17" stroke-width="2" stroke-linecap="round" stroke-linejoin="round"/>
<path d="M557.679 77.3117L552.091 82.362" stroke="#CCEA17" stroke-width="2" stroke-linecap="round" stroke-linejoin="round"/>
<path d="M564.532 90.1411L562.615 91.4444" stroke="#CCEA17" stroke-width="2" stroke-linecap="round" stroke-linejoin="round"/>
<path d="M571.67 99.1419L569.834 100.527" stroke="#CCEA17" stroke-width="2" stroke-linecap="round" stroke-linejoin="round"/>
<path d="M588.516 128.14C587.21 125.819 584.804 120.117 583.172 117.51C572.445 100.079 555.721 77.6375 547.522 74.9088C547.319 74.8273 547.115 74.7459 546.87 74.7051L537.611 72.9538C532.431 79.7147 521.948 86.7606 512.811 84.6835C498.372 81.3845 504.327 68.5552 504.857 67.6592L509.466 68.6774L508.936 67.4963L505.428 66.8446C501.879 65.9893 497.27 66.2337 491.519 68.1479C482.79 71.0803 467.086 76.4157 456.032 80.2034L456.277 80.4478C460.193 84.6835 468.677 96.3724 462.273 101.301C460.519 102.645 458.847 103.541 457.215 103.907L457.868 104.844C457.868 104.844 462.6 102.441 477.855 97.4721C480.873 96.4946 484.218 95.5171 487.562 94.5397C488.133 101.423 491.723 109.446 500.574 118.406C505.061 123.986 522.886 126.348 522.886 126.348C528.148 127.855 538.957 119.465 541.812 114.7C542.75 113.152 543.729 111.401 544.708 109.446C549.603 115.881 555.844 123.823 561.024 130.34C569.997 122.113 577.666 121.257 588.516 128.14Z" fill="#363636"/>
<path d="M469.452 210.085C481.118 178.276 492.212 148.301 494.13 144.187C498.412 135.064 503.226 131.358 509.548 129.606C515.87 127.855 522.437 123.253 522.437 123.253C541.119 126.308 540.548 134.29 546.87 146.264C553.192 158.238 570.038 300.542 570.038 300.542L520.561 301.234L517.706 197.622L504.898 258.959" stroke="#363636" stroke-width="2" stroke-linecap="round" stroke-linejoin="round"/>
<path d="M526.72 51.7752C526.72 51.7752 534.551 56.0517 537.121 47.9061C539.038 41.7154 533.409 39.8419 530.432 39.2717" stroke="#363636" stroke-width="2" stroke-linecap="round" stroke-linejoin="round"/>
<path d="M506.693 62.4053L509.507 68.6366L504.898 67.6184C504.408 68.5145 498.453 81.3438 512.852 84.6428C522.315 86.8013 533.287 79.1037 538.223 72.1393L530.228 70.673L523.865 55.3593" stroke="#363636" stroke-width="2" stroke-linecap="round" stroke-linejoin="round"/>
<path d="M496.251 35.4026C495.149 39.1495 492.008 56.8662 503.389 61.2648C514.769 65.6635 525.456 56.8255 529.494 45.9104C533.532 34.9953 531.003 24.3245 523.865 21.3921C516.727 18.4597 504.245 8.35915 496.251 35.4026Z" stroke="#363636" stroke-width="2" stroke-linecap="round" stroke-linejoin="round"/>
<path d="M507.876 49.7796C506.162 50.1054 504.368 49.861 502.818 49.0464C502.451 48.8835 502.043 49.0057 501.839 49.3723C501.798 49.4537 501.798 49.5352 501.757 49.6166C501.512 51.0014 501.594 53.4451 504.653 54.1782C507.876 54.952 508.528 52.1418 508.651 50.5534C508.691 50.1461 508.406 49.7795 507.998 49.7388C507.998 49.7795 507.916 49.7796 507.876 49.7796Z" fill="#363636"/>
<path d="M505.918 44.7293L502.369 43.8333L508.365 30.1894" stroke="#363636" stroke-width="2" stroke-linecap="round" stroke-linejoin="round"/>
<path d="M516.156 34.4658C516.156 34.4658 514.402 31.1261 511.669 32.348" stroke="#363636" stroke-width="2" stroke-linecap="round" stroke-linejoin="round"/>
<path d="M506.733 26.7275C506.733 26.7275 504.531 23.6729 502.002 25.2613" stroke="#363636" stroke-width="2" stroke-linecap="round" stroke-linejoin="round"/>
<path d="M511.894 40.7103C512.108 39.6748 511.744 38.7251 511.082 38.589C510.42 38.453 509.711 39.1821 509.497 40.2176C509.284 41.2532 509.647 42.2029 510.309 42.339C510.971 42.475 511.681 41.7458 511.894 40.7103Z" fill="#363636"/>
<path d="M500.28 38.5001C500.493 37.4646 500.13 36.5148 499.468 36.3788C498.806 36.2428 498.096 36.9719 497.883 38.0074C497.669 39.043 498.033 39.9927 498.695 40.1288C499.357 40.2648 500.066 39.5356 500.28 38.5001Z" fill="#363636"/>
<path d="M522.334 39.9144C523.291 34.2817 520.682 29.1419 516.507 28.4344C512.331 27.7269 508.17 31.7197 507.213 37.3525C506.256 42.9852 508.865 48.125 513.04 48.8325C517.215 49.54 521.376 45.5472 522.334 39.9144Z" stroke="#CCEA17" stroke-width="2" stroke-linecap="round" stroke-linejoin="round"/>
<path d="M502.452 36.0874C503.41 30.4546 500.801 25.3148 496.625 24.6073C492.45 23.8999 488.289 27.8926 487.332 33.5254C486.375 39.1582 488.983 44.2979 493.159 45.0054C497.334 45.7129 501.495 41.7202 502.452 36.0874Z" stroke="#CCEA17" stroke-width="2" stroke-linecap="round" stroke-linejoin="round"/>
<path d="M502.94 33.5698L507.631 34.4658" stroke="#CCEA17" stroke-width="2" stroke-linecap="round" stroke-linejoin="round"/>
<path d="M522.682 36.3393L533.328 39.9641" stroke="#CCEA17" stroke-width="2" stroke-linecap="round" stroke-linejoin="round"/>
<path d="M543.444 33.5291C542.587 27.8679 534.185 18.5005 526.475 18.5819C516.523 8.48137 501.594 -1.65991 492.947 16.1382C492.131 17.7674 492.824 19.7223 494.456 20.5369C494.66 20.6183 494.864 20.6998 495.068 20.7812L523.375 28.1123C524.15 32.348 526.353 39.1496 532.308 41.8783C534.021 42.6522 535.204 42.5707 535.938 41.8783C537.285 43.2224 538.019 45.1366 537.121 47.9061C534.756 55.5222 527.495 52.1825 526.598 51.6938C525.129 53.9746 524.885 54.7077 522.886 56.4182C529.045 59.7987 534.185 62.6903 538.223 57.355C543.484 50.3905 544.586 41.4303 543.444 33.5291Z" fill="#363636"/>
<path d="M420.505 47.906C417.201 47.9468 413.326 47.9875 413.326 47.9875C413.326 47.9875 405.536 49.4944 404.312 49.6981C403.088 49.9017 397.051 52.9156 397.337 53.5672C397.949 55.2371 403.007 54.1782 405.576 53.1192C408.146 52.0603 413.938 53.16 413.938 53.16C413.938 53.16 415.529 58.0066 414.468 58.0066C413.408 58.0066 407.575 57.5586 406.718 59.3506C405.862 61.1427 406.229 62.5274 408.472 62.2423C410.716 61.9572 413.857 63.4641 413.857 63.4641C413.857 63.4641 422.014 62.0794 424.013 61.0612C426.012 60.043 434.333 79.511 442.327 92.2589C450.322 105.007 455.625 106.31 462.232 101.219C468.636 96.2909 460.152 84.602 456.236 80.3663C453.137 76.9858 435.638 58.8619 428.296 51.205C426.297 49.0464 423.442 47.8653 420.505 47.906Z" stroke="#363636" stroke-width="2" stroke-linecap="round" stroke-linejoin="round"/>
<path d="M534.103 159.419L534.266 159.501C534.266 159.501 574.933 146.02 586.843 134.983C592.554 129.688 580.643 113.6 557.598 132.987C555.232 134.983 552.703 136.856 550.092 138.567" stroke="#363636" stroke-width="2" stroke-linecap="round" stroke-linejoin="round"/>
<path d="M565.633 145.776L556.007 146.02L547.767 107.328C547.645 106.514 546.911 105.903 546.095 105.862L485.156 106.799C484.055 106.799 483.239 107.98 483.484 109.161L491.193 150.419C491.723 152.984 494.945 154.939 497.27 154.899L514.646 154.573C513.871 153.595 513.178 152.577 512.607 151.477C509.548 145.776 505.958 138.119 508.365 136.938C509.466 136.734 510.649 138.363 511.669 140.359C510.772 137.671 510.16 134.901 511.465 134.657C512.77 134.412 513.994 136.001 515.258 138.892C514.646 137.1 514.157 135.471 514.157 134.942C514.279 131.724 516.482 130.869 519.133 137.834L518.236 134.82C517.665 131.561 520.643 132.05 522.274 134.983C523.294 136.856 525.374 141.336 527.087 145.368C527.985 143.821 529.942 140.929 531.778 142.151C533.613 143.373 530.84 148.708 529.453 151.111C529.616 151.518 529.738 151.885 529.861 152.211L532.838 154.247C546.217 154.003 558.005 153.758 558.903 153.758C567.02 153.717 565.633 145.776 565.633 145.776Z" fill="#363636"/>
<path d="M538.345 158.035C524.762 163.737 516.727 159.216 512.607 151.559C509.548 145.857 505.958 138.2 508.365 137.019C510.894 136.489 513.953 146.02 513.953 146.02C513.953 146.02 508.855 135.268 511.465 134.697C513.505 134.29 515.462 138.648 517.665 145.368C517.665 145.368 514.157 136.408 514.198 134.983C514.32 130.91 517.828 130.584 521.295 145.083L518.277 134.901C517.706 131.643 520.683 132.132 522.315 135.064C523.335 136.897 525.293 141.173 527.006 145.165" stroke="#363636" stroke-width="2" stroke-linecap="round" stroke-linejoin="round"/>
<path d="M527.169 145.572C527.169 145.572 529.372 140.684 531.778 142.273C534.185 143.861 528.719 152.455 528.719 152.455" stroke="#363636" stroke-width="2" stroke-linecap="round" stroke-linejoin="round"/>
<path d="M406.637 179.865C390.607 184.467 387.058 190.943 389.016 197.296C382.571 201.166 369.437 210.574 357.649 228.82C341.334 254.071 393.992 293.985 403.251 293.985C412.511 293.985 477.977 268.448 477.977 268.448L481.811 256.8C487.359 240.061 482.546 221.652 469.493 209.8L469.207 209.515C462.151 203.202 455.38 195.341 448.813 192.246C447.916 187.522 445.346 182.471 438.534 179.661" stroke="#363636" stroke-width="2" stroke-linecap="round" stroke-linejoin="round"/>
<path d="M447.385 191.676C448.119 195.341 447.834 198.803 447.712 200.921C447.344 209.759 444 214.524 443.021 217.823C449.465 213.995 455.421 205.157 458.357 199.333C456.522 197.582 450.608 193.224 447.385 191.676Z" fill="#363636"/>
<path d="M412.103 218.475C408.921 217.009 392.687 206.542 389.954 196.36C386.691 198.111 381.552 201.206 378.37 204.994C382.041 207.234 402.762 219.534 411.94 218.842L412.307 218.801C412.225 218.679 412.144 218.556 412.103 218.475Z" fill="#363636"/>
<path d="M437.065 218.556C440.573 208.415 437.922 197.093 435.475 193.794C433.925 199.862 431.029 205.483 426.95 210.207C420.995 203.446 414.183 197.5 406.678 192.531L406.963 192.205L406.27 192.246L402.558 196.075C402.558 196.075 420.22 209.474 425.971 241.812C429.723 262.787 431.6 282.54 431.6 282.54L442.531 281.97C442.531 281.929 433.231 229.634 437.065 218.556Z" fill="#CCEA17"/>
<path d="M401.824 169.805C400.152 170.538 397.011 172.493 398.969 176.607C400.682 180.272 404.108 179.172 406.148 178.073" stroke="#363636" stroke-width="2" stroke-linecap="round" stroke-linejoin="round"/>
<path d="M433.272 152.088C436.943 161.415 438.208 172.412 438.33 177.543" stroke="#363636" stroke-width="2" stroke-linecap="round" stroke-linejoin="round"/>
<path d="M410.308 185.933L410.145 188.499L406.637 192.531C414.142 197.5 420.995 203.446 426.909 210.207C426.909 210.207 434.659 202.062 436.331 189.192" stroke="#363636" stroke-width="2" stroke-linecap="round" stroke-linejoin="round"/>
<path d="M406.433 169.846C407.738 170.66 412.103 176.077 413.489 178.765C413.489 178.765 419.893 174.652 429.887 172.045C429.887 172.045 435.352 170.823 437.718 170.945C437.718 170.945 439.758 181.168 436.617 187.522C433.476 193.875 423.768 194.69 418.588 192.613C413.408 190.536 412.307 189.232 410.471 186.096C408.636 182.96 402.844 171.068 402.844 171.068L406.433 169.846Z" stroke="#363636" stroke-width="2" stroke-linecap="round" stroke-linejoin="round"/>
<path d="M404.149 172.697C404.149 172.697 399.988 168.787 397.623 164.225C395.379 159.949 396.399 154.695 400.07 151.559C403.17 148.993 406.107 149.685 406.107 149.685C406.107 149.685 400.804 144.228 405.005 137.223C406.515 134.738 408.962 132.987 411.776 132.376C415.692 131.439 419.812 132.946 422.259 136.164C422.259 136.164 426.257 120.891 443.306 125.126C445.02 125.574 447.304 127.366 448.487 128.67C455.747 136.612 442.001 151.477 433.68 154.451C424.543 157.709 418.67 157.505 415.08 155.957C417.691 156.813 418.629 171.434 404.149 172.697Z" fill="#363636"/>
<path d="M429.642 167.972L432.824 176.525L429.52 176.484" stroke="#363636" stroke-width="2" stroke-linecap="round" stroke-linejoin="round"/>
<path d="M433.948 168.416C434.451 168.292 434.705 167.572 434.516 166.808C434.327 166.044 433.766 165.525 433.263 165.649C432.76 165.773 432.505 166.493 432.694 167.257C432.883 168.022 433.445 168.541 433.948 168.416Z" fill="#363636"/>
<path d="M425.737 170.341C426.254 170.315 426.642 169.657 426.602 168.87C426.563 168.084 426.112 167.467 425.594 167.493C425.077 167.519 424.689 168.177 424.728 168.964C424.768 169.75 425.219 170.367 425.737 170.341Z" fill="#363636"/>
<path d="M419.486 165.569C420.179 164.185 421.607 163.289 423.157 163.248" stroke="#363636" stroke-width="2" stroke-linecap="round" stroke-linejoin="round"/>
<path d="M430.458 159.094C430.458 159.094 433.395 157.179 435.108 158.849" stroke="#363636" stroke-width="2" stroke-linecap="round" stroke-linejoin="round"/>
<path d="M429.479 182.553C426.583 182.268 425.563 180.842 425.563 180.842L430.58 180.516C430.621 180.476 431.437 182.471 429.479 182.553Z" fill="#363636" stroke="#363636" stroke-width="2" stroke-linecap="round" stroke-linejoin="round"/>
<path d="M414.101 216.072C414.101 216.072 419.037 227.476 419.812 235.499" stroke="#363636" stroke-width="2" stroke-linecap="round" stroke-linejoin="round"/>
<path d="M440.533 216.602C440.533 216.602 441.389 226.539 442.246 234.563" stroke="#363636" stroke-width="2" stroke-linecap="round" stroke-linejoin="round"/>
<path d="M380.287 240.346C380.287 240.346 385.508 234.563 394.074 239.898L401.701 233.137" stroke="#363636" stroke-width="2" stroke-linecap="round" stroke-linejoin="round"/>
<path d="M413.285 250.813C412.347 250.365 393.34 239.531 393.34 239.531" stroke="#363636" stroke-width="2" stroke-linecap="round" stroke-linejoin="round"/>
<path d="M460.438 239.287L456.644 230.693" stroke="#363636" stroke-width="2" stroke-linecap="round" stroke-linejoin="round"/>
<path d="M412.347 284.291C412.347 284.291 393.421 276.431 370.008 260.221C346.595 244.011 331.666 269.1 337.989 279.363C343.536 288.405 374.699 319.521 374.699 319.521L480.832 318.666C480.832 318.666 505.795 287.346 509.711 282.418C522.927 265.801 511.995 257.044 497.474 255.782C483.769 254.601 446.814 281.481 442.287 284.943L412.347 284.291Z" fill="#363636"/>
<path d="M477.284 238.391H409.043C408.146 238.391 407.371 239.002 407.167 239.857L397.908 278.915H380.777C380.777 278.915 379.227 286.939 388.282 286.939H397.908C398.071 286.979 398.275 287.02 398.438 287.02H466.679C467.576 287.02 468.351 286.409 468.555 285.554L479.16 240.794C479.405 239.776 478.752 238.717 477.732 238.472C477.569 238.432 477.447 238.391 477.284 238.391Z" fill="#363636"/>
<path d="M1.27441 319.358H641.827" stroke="#363636" stroke-width="2" stroke-linecap="round" stroke-linejoin="round"/>
</g>
<defs>
<clipPath id="clip0_637_1202">
<rect width="643" height="320" fill="white" transform="translate(0.0507812 0.580078)"/>
</clipPath>
</defs>
</svg>
