<svg width="193" height="134" viewBox="0 0 193 134" fill="none" xmlns="http://www.w3.org/2000/svg">
<rect x="0.620117" y="0.881897" width="191.683" height="133.1" rx="10" fill="#F8F8EF"/>
<path d="M63.9892 112.713L63.6993 113.12L63.8247 113.209L63.9786 113.213L63.9892 112.713ZM72.8335 112.901L72.8228 113.401L73.0679 113.406L73.2221 113.216L72.8335 112.901ZM82.7726 106.174L82.9202 106.651L82.7726 105.674V106.174ZM56.3681 106.174V105.674H55.1848L56.0096 106.522L56.3681 106.174ZM108.446 70.2796H108.946V69.6769L108.354 69.7881L108.446 70.2796ZM105.713 70.472L105.736 69.9725L105.733 69.9724L105.713 70.472ZM100.102 67.8504L100.473 67.5149L99.6023 66.5525V67.8504H100.102ZM100.102 101.47H99.6023V101.47L100.102 101.47ZM99.4009 103.937L98.976 103.674L98.4931 104.452L99.4089 104.437L99.4009 103.937ZM102.886 103.971L102.861 104.471L103.503 104.503L103.377 103.873L102.886 103.971ZM101.941 99.2671L101.869 98.7724L101.347 98.8485L101.451 99.3656L101.941 99.2671ZM108.446 98.3177L108.518 98.8124L108.946 98.75V98.3177H108.446ZM95.6158 55.5033L95.3923 55.9506L96.1399 56.3242L96.1156 55.4888L95.6158 55.5033ZM95.7698 50.645L96.2677 50.6911L96.3183 50.145H95.7698V50.645ZM43.2047 50.645V50.145H42.8381L42.7279 50.4946L43.2047 50.645ZM41.9217 55.4948L41.433 55.3891L41.3021 55.9948H41.9217V55.4948ZM95.5987 55.4948L95.8223 55.0475L95.7167 54.9948H95.5987V55.4948ZM104.862 70.7927C104.862 70.5166 104.638 70.2927 104.362 70.2927C104.086 70.2927 103.862 70.5166 103.862 70.7927H104.862ZM103.862 79.2563C103.862 79.5325 104.086 79.7563 104.362 79.7563C104.638 79.7563 104.862 79.5325 104.862 79.2563H103.862ZM54.0581 104.232C54.0581 104.508 54.282 104.732 54.5581 104.732C54.8343 104.732 55.0581 104.508 55.0581 104.232H54.0581ZM54.5581 59.3354V58.8354C54.282 58.8354 54.0581 59.0592 54.0581 59.3354H54.5581ZM95.4263 59.3354H95.9263C95.9263 59.0592 95.7025 58.8354 95.4263 58.8354V59.3354ZM94.9263 104.078C94.9263 104.354 95.1502 104.578 95.4263 104.578C95.7025 104.578 95.9263 104.354 95.9263 104.078H94.9263ZM59.3009 63.6334V63.1334C59.0248 63.1334 58.8009 63.3572 58.8009 63.6334H59.3009ZM70.848 63.6334H71.348C71.348 63.3572 71.1242 63.1334 70.848 63.1334V63.6334ZM70.848 67.4525V67.9525C71.1242 67.9525 71.348 67.7286 71.348 67.4525H70.848ZM59.3009 67.4525H58.8009C58.8009 67.7286 59.0248 67.9525 59.3009 67.9525V67.4525ZM59.3009 72.0247C59.0248 72.0247 58.8009 72.2485 58.8009 72.5247C58.8009 72.8008 59.0248 73.0247 59.3009 73.0247V72.0247ZM70.848 73.0247C71.1242 73.0247 71.348 72.8008 71.348 72.5247C71.348 72.2485 71.1242 72.0247 70.848 72.0247V73.0247ZM61.5596 75.0998C61.2834 75.0998 61.0596 75.3237 61.0596 75.5998C61.0596 75.876 61.2834 76.0998 61.5596 76.0998V75.0998ZM69.1593 76.0998C69.4354 76.0998 69.6593 75.876 69.6593 75.5998C69.6593 75.3237 69.4354 75.0998 69.1593 75.0998V76.0998ZM61.5596 78.0163C61.2834 78.0163 61.0596 78.2401 61.0596 78.5163C61.0596 78.7924 61.2834 79.0163 61.5596 79.0163V78.0163ZM65.5839 79.0163C65.8601 79.0163 66.0839 78.7924 66.0839 78.5163C66.0839 78.2401 65.8601 78.0163 65.5839 78.0163V79.0163ZM61.5596 80.9331C61.2834 80.9331 61.0596 81.157 61.0596 81.4331C61.0596 81.7093 61.2834 81.9331 61.5596 81.9331V80.9331ZM64.117 81.9331C64.3932 81.9331 64.617 81.7093 64.617 81.4331C64.617 81.157 64.3932 80.9331 64.117 80.9331V81.9331ZM61.5596 83.8458C61.2834 83.8458 61.0596 84.0696 61.0596 84.3458C61.0596 84.6219 61.2834 84.8458 61.5596 84.8458V83.8458ZM67.8934 84.8458C68.1695 84.8458 68.3934 84.6219 68.3934 84.3458C68.3934 84.0696 68.1695 83.8458 67.8934 83.8458V84.8458ZM59.3009 87.1686C59.0248 87.1686 58.8009 87.3924 58.8009 87.6686C58.8009 87.9447 59.0248 88.1686 59.3009 88.1686V87.1686ZM70.848 88.1686C71.1242 88.1686 71.348 87.9447 71.348 87.6686C71.348 87.3924 71.1242 87.1686 70.848 87.1686V88.1686ZM61.5596 90.2437C61.2834 90.2437 61.0596 90.4676 61.0596 90.7437C61.0596 91.0199 61.2834 91.2437 61.5596 91.2437V90.2437ZM69.1593 91.2437C69.4354 91.2437 69.6593 91.0199 69.6593 90.7437C69.6593 90.4676 69.4354 90.2437 69.1593 90.2437V91.2437ZM61.5596 93.1602C61.2834 93.1602 61.0596 93.384 61.0596 93.6602C61.0596 93.9363 61.2834 94.1602 61.5596 94.1602V93.1602ZM65.5839 94.1602C65.8601 94.1602 66.0839 93.9363 66.0839 93.6602C66.0839 93.384 65.8601 93.1602 65.5839 93.1602V94.1602ZM73.9787 71.2801V70.7801C73.7026 70.7801 73.4787 71.0039 73.4787 71.2801H73.9787ZM90.9872 71.2801H91.4872C91.4872 71.0039 91.2633 70.7801 90.9872 70.7801V71.2801ZM90.9872 84.9142V85.4142C91.2633 85.4142 91.4872 85.1904 91.4872 84.9142H90.9872ZM73.9787 84.9142H73.4787C73.4787 85.1904 73.7026 85.4142 73.9787 85.4142V84.9142ZM73.9787 88.1134V87.6134C73.7026 87.6134 73.4787 87.8372 73.4787 88.1134H73.9787ZM78.5377 88.1134H79.0377C79.0377 87.8372 78.8139 87.6134 78.5377 87.6134V88.1134ZM78.5377 92.6723V93.1723C78.8139 93.1723 79.0377 92.9485 79.0377 92.6723H78.5377ZM73.9787 92.6723H73.4787C73.4787 92.9485 73.7026 93.1723 73.9787 93.1723V92.6723ZM80.2017 88.1134V87.6134C79.9255 87.6134 79.7017 87.8372 79.7017 88.1134H80.2017ZM84.7607 88.1134H85.2607C85.2607 87.8372 85.0368 87.6134 84.7607 87.6134V88.1134ZM84.7607 92.6723V93.1723C85.0368 93.1723 85.2607 92.9485 85.2607 92.6723H84.7607ZM80.2017 92.6723H79.7017C79.7017 92.9485 79.9255 93.1723 80.2017 93.1723V92.6723ZM86.428 88.1134V87.6134C86.1518 87.6134 85.928 87.8372 85.928 88.1134H86.428ZM90.9869 88.1134H91.4869C91.4869 87.8372 91.2631 87.6134 90.9869 87.6134V88.1134ZM90.9869 92.6723V93.1723C91.2631 93.1723 91.4869 92.9485 91.4869 92.6723H90.9869ZM86.428 92.6723H85.928C85.928 92.9485 86.1518 93.1723 86.428 93.1723V92.6723ZM73.9787 65.5628C73.7026 65.5628 73.4787 65.7867 73.4787 66.0628C73.4787 66.339 73.7026 66.5628 73.9787 66.5628V65.5628ZM79.3503 66.5628C79.6264 66.5628 79.8503 66.339 79.8503 66.0628C79.8503 65.7867 79.6264 65.5628 79.3503 65.5628V66.5628ZM83.3875 65.5628C83.1114 65.5628 82.8875 65.7867 82.8875 66.0628C82.8875 66.339 83.1114 66.5628 83.3875 66.5628V65.5628ZM90.675 66.5628C90.9511 66.5628 91.175 66.339 91.175 66.0628C91.175 65.7867 90.9511 65.5628 90.675 65.5628V66.5628ZM73.9787 95.7689V95.2689C73.7026 95.2689 73.4787 95.4927 73.4787 95.7689H73.9787ZM91.1968 95.7689H91.6968C91.6968 95.4927 91.4729 95.2689 91.1968 95.2689V95.7689ZM91.1968 103.95V104.45C91.4729 104.45 91.6968 104.226 91.6968 103.95H91.1968ZM73.9787 103.95H73.4787C73.4787 104.226 73.7026 104.45 73.9787 104.45V103.95ZM41.7581 58.8354C41.4819 58.8354 41.2581 59.0592 41.2581 59.3354C41.2581 59.6115 41.4819 59.8354 41.7581 59.8354V58.8354ZM48.2544 59.3354H48.7544C48.7544 59.0592 48.5305 58.8354 48.2544 58.8354V59.3354ZM47.7544 95.3709C47.7544 95.6471 47.9782 95.8709 48.2544 95.8709C48.5305 95.8709 48.7544 95.6471 48.7544 95.3709H47.7544ZM110.435 69.8389C110.236 69.6471 109.919 69.6528 109.728 69.8515C109.536 70.0502 109.542 70.3667 109.74 70.5585L110.435 69.8389ZM114.116 74.0862L113.769 74.446C113.892 74.5649 114.068 74.6125 114.234 74.5722L114.116 74.0862ZM128.982 70.4852L129.1 70.9712C129.284 70.9266 129.427 70.7821 129.469 70.5977C129.512 70.4133 129.447 70.2207 129.301 70.1L128.982 70.4852ZM118.489 61.1531C118.277 60.9771 117.961 61.0068 117.785 61.2196C117.609 61.4323 117.639 61.7475 117.852 61.9236L118.489 61.1531ZM146.359 91.2661L146.809 91.4829L146.901 91.2932L146.829 91.0952L146.359 91.2661ZM141.428 77.7003L141.898 77.5295L141.896 77.5263L141.428 77.7003ZM124.932 69.0271L125.052 69.5125L125.055 69.512L124.932 69.0271ZM111.816 73.0002L111.982 73.4718L111.982 73.4718L111.816 73.0002ZM100.696 99.426L100.201 99.4944L100.27 99.9938L100.769 99.9207L100.696 99.426ZM124.992 95.8678L125.486 95.9458L125.592 95.2746L124.92 95.3731L124.992 95.8678ZM122.426 112.119L121.932 112.041L121.841 112.619H122.426V112.119ZM129.029 112.119V112.619H129.193L129.325 112.523L129.029 112.119ZM118.82 50.6507C118.868 50.9227 119.127 51.1044 119.399 51.0566C119.671 51.0088 119.853 50.7495 119.805 50.4776L118.82 50.6507ZM110.759 40.6122L110.792 40.1133L110.792 40.1133L110.759 40.6122ZM95.6238 55.5038L95.124 55.5156L95.124 55.516L95.6238 55.5038ZM105.721 70.4722L105.742 69.9727L105.742 69.9727L105.721 70.4722ZM119.393 59.5063C119.466 59.24 119.309 58.9649 119.043 58.892C118.776 58.819 118.501 58.9757 118.428 59.242L119.393 59.5063ZM119.904 30.6797L120.068 30.2071L119.595 30.0438L119.432 30.5164L119.904 30.6797ZM122.75 31.6629L123.223 31.8262L123.386 31.3536L122.914 31.1903L122.75 31.6629ZM121.02 36.6712L120.857 37.1438L121.329 37.3071L121.492 36.8345L121.02 36.6712ZM118.174 35.688L117.702 35.5247L117.538 35.9973L118.011 36.1606L118.174 35.688ZM118.734 34.0175L118.916 33.5518L118.91 33.5493L118.734 34.0175ZM104.553 32.8542L104.393 32.3805L104.382 32.3842L104.371 32.3884L104.553 32.8542ZM95.6142 53.3097L95.2779 53.6797L96.0894 54.4175L96.1141 53.321L95.6142 53.3097ZM100.28 41.1938L100.717 40.9511L100.468 40.502L100.026 40.7634L100.28 41.1938ZM119.269 50.346L119.761 50.259L119.693 49.8722L119.301 49.847L119.269 50.346ZM119.307 50.5641L118.815 50.6511L118.893 51.095L119.343 51.0628L119.307 50.5641ZM124.982 54.6826L124.482 54.6865L124.482 54.6869L124.982 54.6826ZM118.901 59.3869L118.962 58.8907L118.533 58.8377L118.419 59.2545L118.901 59.3869ZM118.516 61.953L118.06 61.747L117.91 62.0793L118.181 62.3239L118.516 61.953ZM122.519 65.5711L122.184 65.942L122.367 66.1077L122.61 66.0627L122.519 65.5711ZM137.329 62.8254L137.345 62.3257L137.291 62.324L137.238 62.3338L137.329 62.8254ZM138.916 60.8025L138.434 60.9364L138.434 60.9368L138.916 60.8025ZM117.889 58.6076C117.621 58.5389 117.349 58.7 117.28 58.9674C117.211 59.2349 117.372 59.5074 117.64 59.5761L117.889 58.6076ZM118.829 59.3656L118.705 59.8498C118.718 59.8533 118.731 59.8561 118.745 59.8584L118.829 59.3656ZM118.503 50.1411C118.229 50.177 118.036 50.428 118.072 50.7018C118.108 50.9756 118.359 51.1685 118.633 51.1326L118.503 50.1411ZM104.698 63.5201C104.458 63.3835 104.152 63.4673 104.016 63.7073C103.879 63.9473 103.963 64.2526 104.203 64.3892L104.698 63.5201ZM107.918 62.9918C108.045 62.7467 107.949 62.4449 107.704 62.3177C107.459 62.1905 107.157 62.286 107.03 62.5311L107.918 62.9918ZM103.933 59.8901C104.209 59.8713 104.417 59.6327 104.398 59.3572C104.379 59.0817 104.141 58.8736 103.865 58.8924L103.933 59.8901ZM101.397 59.5623L100.9 59.5101C100.885 59.657 100.935 59.8031 101.037 59.9094C101.14 60.0157 101.284 60.0712 101.431 60.0612L101.397 59.5623ZM102.942 49.6327C102.971 49.3581 102.772 49.1121 102.497 49.0832C102.223 49.0544 101.977 49.2537 101.948 49.5283L102.942 49.6327ZM111.09 49.1822C111.291 49.3721 111.607 49.3635 111.797 49.163C111.987 48.9625 111.979 48.646 111.778 48.4562L111.09 49.1822ZM107.712 48.063C107.507 48.2479 107.491 48.5641 107.676 48.7692C107.861 48.9742 108.177 48.9905 108.382 48.8056L107.712 48.063ZM99.2206 50.2909C99.4452 50.4515 99.7575 50.3995 99.9181 50.1748C100.079 49.9501 100.027 49.6378 99.802 49.4773L99.2206 50.2909ZM95.7086 49.6505C95.53 49.8611 95.5559 50.1766 95.7665 50.3552C95.977 50.5338 96.2926 50.5079 96.4712 50.2973L95.7086 49.6505ZM109.272 53.6695L109.77 53.6298L109.272 53.6695ZM108.547 55.0187L108.587 55.5171L108.547 55.0187ZM107.617 53.8014L108.116 53.7617L107.617 53.8014ZM108.342 52.4523L108.382 52.9507L108.342 52.4523ZM100.496 54.3946L100.994 54.3548L100.496 54.3946ZM98.8418 54.5265L99.3402 54.4867L98.8418 54.5265ZM110.767 58.8051L110.816 59.3027L110.767 58.8051ZM109.409 44.9551L109.458 45.4527L109.409 44.9551ZM95.8828 60.5613L95.9316 61.0589L95.8828 60.5613ZM94.5248 46.7113L94.5736 47.2089L94.5248 46.7113ZM100.503 51.6231C100.229 51.651 100.029 51.8964 100.057 52.1711C100.084 52.4458 100.33 52.6459 100.604 52.618L100.503 51.6231ZM104.774 52.1946C105.049 52.1667 105.249 51.9214 105.221 51.6467C105.193 51.372 104.948 51.1719 104.673 51.1998L104.774 52.1946ZM115.411 49.8169C115.135 49.8006 114.898 50.0109 114.882 50.2866C114.866 50.5622 115.076 50.7989 115.352 50.8152L115.411 49.8169ZM120.279 51.106C120.554 51.1222 120.791 50.912 120.807 50.6363C120.823 50.3606 120.613 50.124 120.338 50.1077L120.279 51.106ZM101.941 99.2461L101.868 98.7514C101.732 98.7714 101.611 98.8462 101.532 98.9583C101.453 99.0705 101.423 99.2101 101.45 99.3446L101.941 99.2461ZM102.886 103.95L102.861 104.45C103.015 104.457 103.164 104.394 103.265 104.277C103.365 104.16 103.406 104.003 103.376 103.852L102.886 103.95ZM72.8333 112.076L72.4383 111.77C72.3213 111.92 72.3003 112.125 72.3843 112.296C72.4682 112.468 72.6425 112.576 72.8333 112.576V112.076ZM124.295 112.076L124.298 111.576H124.295V112.076ZM128.144 107.132L128.628 107.007L128.628 107.007L128.144 107.132ZM125.206 95.8247L125.69 95.699C125.626 95.4519 125.386 95.2929 125.133 95.33L125.206 95.8247ZM129.2 112.098L129.498 112.5L130.718 111.598H129.2V112.098ZM63.1422 112.098V111.598H61.6249L62.845 112.5L63.1422 112.098ZM63.9786 113.213L72.8228 113.401L72.8441 112.401L63.9999 112.213L63.9786 113.213ZM73.2221 113.216C75.7324 110.114 79.1081 107.829 82.9202 106.651L82.6249 105.696C78.6234 106.933 75.0799 109.331 72.4448 112.586L73.2221 113.216ZM82.7726 105.674H56.3681V106.674H82.7726V105.674ZM56.0096 106.522C58.3686 108.949 60.9423 111.157 63.6993 113.12L64.2792 112.306C61.5714 110.378 59.0436 108.209 56.7267 105.825L56.0096 106.522ZM108.354 69.7881C107.491 69.9502 106.613 70.012 105.736 69.9725L105.691 70.9715C106.645 71.0145 107.6 70.9472 108.538 70.771L108.354 69.7881ZM105.733 69.9724C104.737 69.9337 103.758 69.6964 102.855 69.2744L102.432 70.1804C103.455 70.6588 104.565 70.9278 105.694 70.9716L105.733 69.9724ZM102.855 69.2744C101.952 68.8524 101.142 68.2542 100.473 67.5149L99.7315 68.1858C100.49 69.0239 101.408 69.702 102.432 70.1804L102.855 69.2744ZM99.6023 67.8504V101.47H100.602V67.8504H99.6023ZM99.6023 101.47C99.6035 102.249 99.3865 103.012 98.976 103.674L99.8257 104.201C100.335 103.381 100.604 102.434 100.602 101.469L99.6023 101.47ZM99.4089 104.437C100.471 104.42 101.336 104.429 101.935 104.441C102.234 104.448 102.467 104.455 102.624 104.461C102.703 104.464 102.763 104.466 102.802 104.468C102.822 104.469 102.837 104.47 102.847 104.47C102.852 104.47 102.856 104.471 102.858 104.471C102.859 104.471 102.86 104.471 102.86 104.471C102.861 104.471 102.861 104.471 102.861 104.471C102.861 104.471 102.861 104.471 102.861 104.471C102.861 104.471 102.861 104.471 102.861 104.471C102.861 104.471 102.861 104.471 102.886 103.971C102.912 103.472 102.912 103.472 102.912 103.472C102.912 103.472 102.912 103.472 102.912 103.472C102.912 103.472 102.911 103.472 102.911 103.472C102.911 103.472 102.911 103.472 102.91 103.472C102.91 103.472 102.908 103.472 102.907 103.472C102.904 103.472 102.9 103.472 102.894 103.471C102.883 103.471 102.867 103.47 102.846 103.469C102.804 103.467 102.742 103.465 102.661 103.462C102.499 103.456 102.261 103.448 101.956 103.442C101.347 103.429 100.469 103.42 99.3929 103.437L99.4089 104.437ZM103.377 103.873L102.431 99.1686L101.451 99.3656L102.396 104.07L103.377 103.873ZM102.013 99.7619L108.518 98.8124L108.374 97.8229L101.869 98.7724L102.013 99.7619ZM108.946 98.3177V70.2796H107.946V98.3177H108.946ZM96.1156 55.4888C96.0691 53.888 96.1198 52.2858 96.2677 50.6911L95.2719 50.5988C95.1204 52.2338 95.0683 53.8765 95.1161 55.5179L96.1156 55.4888ZM95.7698 50.145H43.2047V51.145H95.7698V50.145ZM42.7279 50.4946C42.2227 52.0964 41.7911 53.7323 41.433 55.3891L42.4104 55.6004C42.7622 53.9728 43.186 52.3668 43.6816 50.7954L42.7279 50.4946ZM41.9217 55.9948H95.3806V54.9948H41.9217V55.9948ZM95.3806 55.9948C95.3808 55.9948 95.3809 55.9948 95.3811 55.9948C95.3812 55.9948 95.3814 55.9948 95.3815 55.9948C95.3817 55.9948 95.3818 55.9948 95.382 55.9948C95.3821 55.9948 95.3823 55.9948 95.3824 55.9948C95.3826 55.9948 95.3827 55.9948 95.3829 55.9948C95.383 55.9948 95.3832 55.9948 95.3833 55.9948C95.3835 55.9948 95.3836 55.9948 95.3838 55.9948C95.3839 55.9948 95.3841 55.9948 95.3842 55.9948C95.3844 55.9948 95.3845 55.9948 95.3847 55.9948C95.3848 55.9948 95.385 55.9948 95.3851 55.9948C95.3853 55.9948 95.3854 55.9948 95.3856 55.9948C95.3857 55.9948 95.3859 55.9948 95.386 55.9948C95.3862 55.9948 95.3863 55.9948 95.3865 55.9948C95.3866 55.9948 95.3868 55.9948 95.3869 55.9948C95.3871 55.9948 95.3872 55.9948 95.3874 55.9948C95.3875 55.9948 95.3876 55.9948 95.3878 55.9948C95.388 55.9948 95.3881 55.9948 95.3882 55.9948C95.3884 55.9948 95.3885 55.9948 95.3887 55.9948C95.3888 55.9948 95.389 55.9948 95.3891 55.9948C95.3893 55.9948 95.3894 55.9948 95.3896 55.9948C95.3897 55.9948 95.3899 55.9948 95.39 55.9948C95.3902 55.9948 95.3903 55.9948 95.3905 55.9948C95.3906 55.9948 95.3908 55.9948 95.3909 55.9948C95.3911 55.9948 95.3912 55.9948 95.3914 55.9948C95.3915 55.9948 95.3917 55.9948 95.3918 55.9948C95.392 55.9948 95.3921 55.9948 95.3923 55.9948C95.3924 55.9948 95.3926 55.9948 95.3927 55.9948C95.3929 55.9948 95.393 55.9948 95.3932 55.9948C95.3933 55.9948 95.3935 55.9948 95.3936 55.9948C95.3938 55.9948 95.3939 55.9948 95.3941 55.9948C95.3942 55.9948 95.3944 55.9948 95.3945 55.9948C95.3946 55.9948 95.3948 55.9948 95.3949 55.9948C95.3951 55.9948 95.3952 55.9948 95.3954 55.9948C95.3955 55.9948 95.3957 55.9948 95.3958 55.9948C95.396 55.9948 95.3961 55.9948 95.3963 55.9948C95.3964 55.9948 95.3966 55.9948 95.3967 55.9948C95.3969 55.9948 95.397 55.9948 95.3972 55.9948C95.3973 55.9948 95.3975 55.9948 95.3976 55.9948C95.3978 55.9948 95.3979 55.9948 95.3981 55.9948C95.3982 55.9948 95.3983 55.9948 95.3985 55.9948C95.3986 55.9948 95.3988 55.9948 95.3989 55.9948C95.3991 55.9948 95.3992 55.9948 95.3994 55.9948C95.3995 55.9948 95.3997 55.9948 95.3998 55.9948C95.4 55.9948 95.4001 55.9948 95.4003 55.9948C95.4004 55.9948 95.4006 55.9948 95.4007 55.9948C95.4009 55.9948 95.401 55.9948 95.4012 55.9948C95.4013 55.9948 95.4015 55.9948 95.4016 55.9948C95.4017 55.9948 95.4019 55.9948 95.402 55.9948C95.4022 55.9948 95.4023 55.9948 95.4025 55.9948C95.4026 55.9948 95.4028 55.9948 95.4029 55.9948C95.4031 55.9948 95.4032 55.9948 95.4034 55.9948C95.4035 55.9948 95.4037 55.9948 95.4038 55.9948C95.404 55.9948 95.4041 55.9948 95.4043 55.9948C95.4044 55.9948 95.4045 55.9948 95.4047 55.9948C95.4048 55.9948 95.405 55.9948 95.4051 55.9948C95.4053 55.9948 95.4054 55.9948 95.4056 55.9948C95.4057 55.9948 95.4059 55.9948 95.406 55.9948C95.4062 55.9948 95.4063 55.9948 95.4065 55.9948C95.4066 55.9948 95.4068 55.9948 95.4069 55.9948C95.407 55.9948 95.4072 55.9948 95.4073 55.9948C95.4075 55.9948 95.4076 55.9948 95.4078 55.9948C95.4079 55.9948 95.4081 55.9948 95.4082 55.9948C95.4084 55.9948 95.4085 55.9948 95.4087 55.9948C95.4088 55.9948 95.409 55.9948 95.4091 55.9948C95.4092 55.9948 95.4094 55.9948 95.4095 55.9948C95.4097 55.9948 95.4098 55.9948 95.41 55.9948C95.4101 55.9948 95.4103 55.9948 95.4104 55.9948C95.4106 55.9948 95.4107 55.9948 95.4109 55.9948C95.411 55.9948 95.4112 55.9948 95.4113 55.9948C95.4114 55.9948 95.4116 55.9948 95.4117 55.9948C95.4119 55.9948 95.412 55.9948 95.4122 55.9948C95.4123 55.9948 95.4125 55.9948 95.4126 55.9948C95.4128 55.9948 95.4129 55.9948 95.4131 55.9948C95.4132 55.9948 95.4133 55.9948 95.4135 55.9948C95.4136 55.9948 95.4138 55.9948 95.4139 55.9948C95.4141 55.9948 95.4142 55.9948 95.4144 55.9948C95.4145 55.9948 95.4147 55.9948 95.4148 55.9948C95.4149 55.9948 95.4151 55.9948 95.4152 55.9948C95.4154 55.9948 95.4155 55.9948 95.4157 55.9948C95.4158 55.9948 95.416 55.9948 95.4161 55.9948C95.4163 55.9948 95.4164 55.9948 95.4166 55.9948C95.4167 55.9948 95.4168 55.9948 95.417 55.9948C95.4171 55.9948 95.4173 55.9948 95.4174 55.9948C95.4176 55.9948 95.4177 55.9948 95.4179 55.9948C95.418 55.9948 95.4182 55.9948 95.4183 55.9948C95.4184 55.9948 95.4186 55.9948 95.4187 55.9948C95.4189 55.9948 95.419 55.9948 95.4192 55.9948C95.4193 55.9948 95.4195 55.9948 95.4196 55.9948C95.4198 55.9948 95.4199 55.9948 95.42 55.9948C95.4202 55.9948 95.4203 55.9948 95.4205 55.9948C95.4206 55.9948 95.4208 55.9948 95.4209 55.9948C95.4211 55.9948 95.4212 55.9948 95.4214 55.9948C95.4215 55.9948 95.4216 55.9948 95.4218 55.9948C95.4219 55.9948 95.4221 55.9948 95.4222 55.9948C95.4224 55.9948 95.4225 55.9948 95.4227 55.9948C95.4228 55.9948 95.4229 55.9948 95.4231 55.9948C95.4232 55.9948 95.4234 55.9948 95.4235 55.9948C95.4237 55.9948 95.4238 55.9948 95.424 55.9948C95.4241 55.9948 95.4243 55.9948 95.4244 55.9948C95.4245 55.9948 95.4247 55.9948 95.4248 55.9948C95.425 55.9948 95.4251 55.9948 95.4253 55.9948C95.4254 55.9948 95.4256 55.9948 95.4257 55.9948C95.4258 55.9948 95.426 55.9948 95.4261 55.9948C95.4263 55.9948 95.4264 55.9948 95.4266 55.9948C95.4267 55.9948 95.4269 55.9948 95.427 55.9948C95.4271 55.9948 95.4273 55.9948 95.4274 55.9948C95.4276 55.9948 95.4277 55.9948 95.4279 55.9948C95.428 55.9948 95.4282 55.9948 95.4283 55.9948C95.4284 55.9948 95.4286 55.9948 95.4287 55.9948C95.4289 55.9948 95.429 55.9948 95.4292 55.9948C95.4293 55.9948 95.4295 55.9948 95.4296 55.9948C95.4297 55.9948 95.4299 55.9948 95.43 55.9948C95.4302 55.9948 95.4303 55.9948 95.4305 55.9948C95.4306 55.9948 95.4308 55.9948 95.4309 55.9948C95.431 55.9948 95.4312 55.9948 95.4313 55.9948C95.4315 55.9948 95.4316 55.9948 95.4318 55.9948C95.4319 55.9948 95.4321 55.9948 95.4322 55.9948C95.4323 55.9948 95.4325 55.9948 95.4326 55.9948C95.4328 55.9948 95.4329 55.9948 95.4331 55.9948C95.4332 55.9948 95.4333 55.9948 95.4335 55.9948C95.4336 55.9948 95.4338 55.9948 95.4339 55.9948C95.4341 55.9948 95.4342 55.9948 95.4344 55.9948C95.4345 55.9948 95.4346 55.9948 95.4348 55.9948C95.4349 55.9948 95.4351 55.9948 95.4352 55.9948C95.4354 55.9948 95.4355 55.9948 95.4356 55.9948C95.4358 55.9948 95.4359 55.9948 95.4361 55.9948C95.4362 55.9948 95.4364 55.9948 95.4365 55.9948C95.4367 55.9948 95.4368 55.9948 95.4369 55.9948C95.4371 55.9948 95.4372 55.9948 95.4374 55.9948C95.4375 55.9948 95.4377 55.9948 95.4378 55.9948C95.4379 55.9948 95.4381 55.9948 95.4382 55.9948C95.4384 55.9948 95.4385 55.9948 95.4387 55.9948C95.4388 55.9948 95.4389 55.9948 95.4391 55.9948C95.4392 55.9948 95.4394 55.9948 95.4395 55.9948C95.4397 55.9948 95.4398 55.9948 95.44 55.9948C95.4401 55.9948 95.4402 55.9948 95.4404 55.9948C95.4405 55.9948 95.4407 55.9948 95.4408 55.9948C95.441 55.9948 95.4411 55.9948 95.4412 55.9948C95.4414 55.9948 95.4415 55.9948 95.4417 55.9948C95.4418 55.9948 95.442 55.9948 95.4421 55.9948C95.4422 55.9948 95.4424 55.9948 95.4425 55.9948C95.4427 55.9948 95.4428 55.9948 95.443 55.9948C95.4431 55.9948 95.4432 55.9948 95.4434 55.9948C95.4435 55.9948 95.4437 55.9948 95.4438 55.9948C95.444 55.9948 95.4441 55.9948 95.4442 55.9948C95.4444 55.9948 95.4445 55.9948 95.4447 55.9948C95.4448 55.9948 95.445 55.9948 95.4451 55.9948C95.4452 55.9948 95.4454 55.9948 95.4455 55.9948C95.4457 55.9948 95.4458 55.9948 95.446 55.9948C95.4461 55.9948 95.4462 55.9948 95.4464 55.9948C95.4465 55.9948 95.4467 55.9948 95.4468 55.9948C95.447 55.9948 95.4471 55.9948 95.4472 55.9948C95.4474 55.9948 95.4475 55.9948 95.4477 55.9948C95.4478 55.9948 95.448 55.9948 95.4481 55.9948C95.4482 55.9948 95.4484 55.9948 95.4485 55.9948C95.4487 55.9948 95.4488 55.9948 95.449 55.9948C95.4491 55.9948 95.4492 55.9948 95.4494 55.9948C95.4495 55.9948 95.4497 55.9948 95.4498 55.9948C95.45 55.9948 95.4501 55.9948 95.4502 55.9948C95.4504 55.9948 95.4505 55.9948 95.4507 55.9948C95.4508 55.9948 95.4509 55.9948 95.4511 55.9948C95.4512 55.9948 95.4514 55.9948 95.4515 55.9948C95.4517 55.9948 95.4518 55.9948 95.4519 55.9948C95.4521 55.9948 95.4522 55.9948 95.4524 55.9948C95.4525 55.9948 95.4527 55.9948 95.4528 55.9948C95.4529 55.9948 95.4531 55.9948 95.4532 55.9948C95.4534 55.9948 95.4535 55.9948 95.4537 55.9948C95.4538 55.9948 95.4539 55.9948 95.4541 55.9948C95.4542 55.9948 95.4544 55.9948 95.4545 55.9948C95.4546 55.9948 95.4548 55.9948 95.4549 55.9948C95.4551 55.9948 95.4552 55.9948 95.4554 55.9948C95.4555 55.9948 95.4556 55.9948 95.4558 55.9948C95.4559 55.9948 95.4561 55.9948 95.4562 55.9948C95.4563 55.9948 95.4565 55.9948 95.4566 55.9948C95.4568 55.9948 95.4569 55.9948 95.4571 55.9948C95.4572 55.9948 95.4573 55.9948 95.4575 55.9948C95.4576 55.9948 95.4578 55.9948 95.4579 55.9948C95.458 55.9948 95.4582 55.9948 95.4583 55.9948C95.4585 55.9948 95.4586 55.9948 95.4588 55.9948C95.4589 55.9948 95.459 55.9948 95.4592 55.9948C95.4593 55.9948 95.4595 55.9948 95.4596 55.9948C95.4598 55.9948 95.4599 55.9948 95.46 55.9948C95.4602 55.9948 95.4603 55.9948 95.4605 55.9948C95.4606 55.9948 95.4607 55.9948 95.4609 55.9948C95.461 55.9948 95.4612 55.9948 95.4613 55.9948C95.4615 55.9948 95.4616 55.9948 95.4617 55.9948C95.4619 55.9948 95.462 55.9948 95.4622 55.9948C95.4623 55.9948 95.4624 55.9948 95.4626 55.9948C95.4627 55.9948 95.4629 55.9948 95.463 55.9948C95.4632 55.9948 95.4633 55.9948 95.4634 55.9948C95.4636 55.9948 95.4637 55.9948 95.4639 55.9948C95.464 55.9948 95.4641 55.9948 95.4643 55.9948C95.4644 55.9948 95.4646 55.9948 95.4647 55.9948C95.4648 55.9948 95.465 55.9948 95.4651 55.9948C95.4653 55.9948 95.4654 55.9948 95.4656 55.9948C95.4657 55.9948 95.4658 55.9948 95.466 55.9948C95.4661 55.9948 95.4663 55.9948 95.4664 55.9948C95.4665 55.9948 95.4667 55.9948 95.4668 55.9948C95.467 55.9948 95.4671 55.9948 95.4672 55.9948C95.4674 55.9948 95.4675 55.9948 95.4677 55.9948C95.4678 55.9948 95.468 55.9948 95.4681 55.9948C95.4682 55.9948 95.4684 55.9948 95.4685 55.9948C95.4687 55.9948 95.4688 55.9948 95.4689 55.9948C95.4691 55.9948 95.4692 55.9948 95.4694 55.9948C95.4695 55.9948 95.4696 55.9948 95.4698 55.9948C95.4699 55.9948 95.4701 55.9948 95.4702 55.9948C95.4703 55.9948 95.4705 55.9948 95.4706 55.9948C95.4708 55.9948 95.4709 55.9948 95.4711 55.9948C95.4712 55.9948 95.4713 55.9948 95.4715 55.9948C95.4716 55.9948 95.4718 55.9948 95.4719 55.9948C95.472 55.9948 95.4722 55.9948 95.4723 55.9948C95.4725 55.9948 95.4726 55.9948 95.4727 55.9948C95.4729 55.9948 95.473 55.9948 95.4732 55.9948C95.4733 55.9948 95.4734 55.9948 95.4736 55.9948C95.4737 55.9948 95.4739 55.9948 95.474 55.9948C95.4742 55.9948 95.4743 55.9948 95.4744 55.9948C95.4746 55.9948 95.4747 55.9948 95.4749 55.9948C95.475 55.9948 95.4751 55.9948 95.4753 55.9948C95.4754 55.9948 95.4756 55.9948 95.4757 55.9948C95.4758 55.9948 95.476 55.9948 95.4761 55.9948C95.4763 55.9948 95.4764 55.9948 95.4765 55.9948C95.4767 55.9948 95.4768 55.9948 95.477 55.9948C95.4771 55.9948 95.4772 55.9948 95.4774 55.9948C95.4775 55.9948 95.4777 55.9948 95.4778 55.9948C95.478 55.9948 95.4781 55.9948 95.4782 55.9948C95.4784 55.9948 95.4785 55.9948 95.4787 55.9948C95.4788 55.9948 95.4789 55.9948 95.4791 55.9948C95.4792 55.9948 95.4794 55.9948 95.4795 55.9948C95.4796 55.9948 95.4798 55.9948 95.4799 55.9948C95.4801 55.9948 95.4802 55.9948 95.4803 55.9948C95.4805 55.9948 95.4806 55.9948 95.4808 55.9948C95.4809 55.9948 95.481 55.9948 95.4812 55.9948C95.4813 55.9948 95.4815 55.9948 95.4816 55.9948C95.4817 55.9948 95.4819 55.9948 95.482 55.9948C95.4822 55.9948 95.4823 55.9948 95.4824 55.9948C95.4826 55.9948 95.4827 55.9948 95.4829 55.9948C95.483 55.9948 95.4831 55.9948 95.4833 55.9948C95.4834 55.9948 95.4836 55.9948 95.4837 55.9948C95.4838 55.9948 95.484 55.9948 95.4841 55.9948C95.4843 55.9948 95.4844 55.9948 95.4845 55.9948C95.4847 55.9948 95.4848 55.9948 95.485 55.9948C95.4851 55.9948 95.4852 55.9948 95.4854 55.9948C95.4855 55.9948 95.4857 55.9948 95.4858 55.9948C95.486 55.9948 95.4861 55.9948 95.4862 55.9948C95.4864 55.9948 95.4865 55.9948 95.4866 55.9948C95.4868 55.9948 95.4869 55.9948 95.4871 55.9948C95.4872 55.9948 95.4874 55.9948 95.4875 55.9948C95.4876 55.9948 95.4878 55.9948 95.4879 55.9948C95.488 55.9948 95.4882 55.9948 95.4883 55.9948C95.4885 55.9948 95.4886 55.9948 95.4888 55.9948C95.4889 55.9948 95.489 55.9948 95.4892 55.9948C95.4893 55.9948 95.4894 55.9948 95.4896 55.9948C95.4897 55.9948 95.4899 55.9948 95.49 55.9948C95.4902 55.9948 95.4903 55.9948 95.4904 55.9948C95.4906 55.9948 95.4907 55.9948 95.4908 55.9948C95.491 55.9948 95.4911 55.9948 95.4913 55.9948C95.4914 55.9948 95.4916 55.9948 95.4917 55.9948C95.4918 55.9948 95.492 55.9948 95.4921 55.9948C95.4922 55.9948 95.4924 55.9948 95.4925 55.9948C95.4927 55.9948 95.4928 55.9948 95.4929 55.9948C95.4931 55.9948 95.4932 55.9948 95.4934 55.9948C95.4935 55.9948 95.4936 55.9948 95.4938 55.9948C95.4939 55.9948 95.4941 55.9948 95.4942 55.9948C95.4943 55.9948 95.4945 55.9948 95.4946 55.9948C95.4948 55.9948 95.4949 55.9948 95.495 55.9948C95.4952 55.9948 95.4953 55.9948 95.4955 55.9948C95.4956 55.9948 95.4957 55.9948 95.4959 55.9948C95.496 55.9948 95.4962 55.9948 95.4963 55.9948C95.4964 55.9948 95.4966 55.9948 95.4967 55.9948C95.4969 55.9948 95.497 55.9948 95.4971 55.9948C95.4973 55.9948 95.4974 55.9948 95.4976 55.9948C95.4977 55.9948 95.4978 55.9948 95.498 55.9948C95.4981 55.9948 95.4983 55.9948 95.4984 55.9948C95.4985 55.9948 95.4987 55.9948 95.4988 55.9948C95.499 55.9948 95.4991 55.9948 95.4992 55.9948C95.4994 55.9948 95.4995 55.9948 95.4997 55.9948C95.4998 55.9948 95.4999 55.9948 95.5001 55.9948C95.5002 55.9948 95.5004 55.9948 95.5005 55.9948C95.5006 55.9948 95.5008 55.9948 95.5009 55.9948C95.5011 55.9948 95.5012 55.9948 95.5013 55.9948C95.5015 55.9948 95.5016 55.9948 95.5018 55.9948C95.5019 55.9948 95.502 55.9948 95.5022 55.9948C95.5023 55.9948 95.5024 55.9948 95.5026 55.9948C95.5027 55.9948 95.5029 55.9948 95.503 55.9948C95.5031 55.9948 95.5033 55.9948 95.5034 55.9948C95.5036 55.9948 95.5037 55.9948 95.5038 55.9948C95.504 55.9948 95.5041 55.9948 95.5043 55.9948C95.5044 55.9948 95.5045 55.9948 95.5047 55.9948C95.5048 55.9948 95.505 55.9948 95.5051 55.9948C95.5052 55.9948 95.5054 55.9948 95.5055 55.9948C95.5057 55.9948 95.5058 55.9948 95.5059 55.9948C95.5061 55.9948 95.5062 55.9948 95.5064 55.9948C95.5065 55.9948 95.5066 55.9948 95.5068 55.9948C95.5069 55.9948 95.507 55.9948 95.5072 55.9948C95.5073 55.9948 95.5075 55.9948 95.5076 55.9948C95.5077 55.9948 95.5079 55.9948 95.508 55.9948C95.5082 55.9948 95.5083 55.9948 95.5084 55.9948C95.5086 55.9948 95.5087 55.9948 95.5089 55.9948C95.509 55.9948 95.5091 55.9948 95.5093 55.9948C95.5094 55.9948 95.5096 55.9948 95.5097 55.9948C95.5098 55.9948 95.51 55.9948 95.5101 55.9948C95.5103 55.9948 95.5104 55.9948 95.5105 55.9948C95.5107 55.9948 95.5108 55.9948 95.511 55.9948C95.5111 55.9948 95.5112 55.9948 95.5114 55.9948C95.5115 55.9948 95.5117 55.9948 95.5118 55.9948C95.5119 55.9948 95.5121 55.9948 95.5122 55.9948C95.5123 55.9948 95.5125 55.9948 95.5126 55.9948C95.5128 55.9948 95.5129 55.9948 95.513 55.9948C95.5132 55.9948 95.5133 55.9948 95.5135 55.9948C95.5136 55.9948 95.5137 55.9948 95.5139 55.9948C95.514 55.9948 95.5142 55.9948 95.5143 55.9948C95.5144 55.9948 95.5146 55.9948 95.5147 55.9948C95.5149 55.9948 95.515 55.9948 95.5151 55.9948C95.5153 55.9948 95.5154 55.9948 95.5156 55.9948C95.5157 55.9948 95.5158 55.9948 95.516 55.9948C95.5161 55.9948 95.5162 55.9948 95.5164 55.9948C95.5165 55.9948 95.5167 55.9948 95.5168 55.9948C95.5169 55.9948 95.5171 55.9948 95.5172 55.9948C95.5174 55.9948 95.5175 55.9948 95.5176 55.9948C95.5178 55.9948 95.5179 55.9948 95.5181 55.9948C95.5182 55.9948 95.5183 55.9948 95.5185 55.9948C95.5186 55.9948 95.5188 55.9948 95.5189 55.9948C95.519 55.9948 95.5192 55.9948 95.5193 55.9948C95.5195 55.9948 95.5196 55.9948 95.5197 55.9948C95.5199 55.9948 95.52 55.9948 95.5201 55.9948C95.5203 55.9948 95.5204 55.9948 95.5206 55.9948C95.5207 55.9948 95.5208 55.9948 95.521 55.9948C95.5211 55.9948 95.5213 55.9948 95.5214 55.9948C95.5215 55.9948 95.5217 55.9948 95.5218 55.9948C95.522 55.9948 95.5221 55.9948 95.5222 55.9948C95.5224 55.9948 95.5225 55.9948 95.5227 55.9948C95.5228 55.9948 95.5229 55.9948 95.5231 55.9948C95.5232 55.9948 95.5233 55.9948 95.5235 55.9948C95.5236 55.9948 95.5238 55.9948 95.5239 55.9948C95.524 55.9948 95.5242 55.9948 95.5243 55.9948C95.5245 55.9948 95.5246 55.9948 95.5247 55.9948C95.5249 55.9948 95.525 55.9948 95.5252 55.9948C95.5253 55.9948 95.5254 55.9948 95.5256 55.9948C95.5257 55.9948 95.5259 55.9948 95.526 55.9948C95.5261 55.9948 95.5263 55.9948 95.5264 55.9948C95.5266 55.9948 95.5267 55.9948 95.5268 55.9948C95.527 55.9948 95.5271 55.9948 95.5272 55.9948C95.5274 55.9948 95.5275 55.9948 95.5277 55.9948C95.5278 55.9948 95.5279 55.9948 95.5281 55.9948C95.5282 55.9948 95.5284 55.9948 95.5285 55.9948C95.5286 55.9948 95.5288 55.9948 95.5289 55.9948C95.5291 55.9948 95.5292 55.9948 95.5293 55.9948C95.5295 55.9948 95.5296 55.9948 95.5298 55.9948C95.5299 55.9948 95.53 55.9948 95.5302 55.9948C95.5303 55.9948 95.5304 55.9948 95.5306 55.9948C95.5307 55.9948 95.5309 55.9948 95.531 55.9948C95.5311 55.9948 95.5313 55.9948 95.5314 55.9948C95.5316 55.9948 95.5317 55.9948 95.5318 55.9948C95.532 55.9948 95.5321 55.9948 95.5323 55.9948C95.5324 55.9948 95.5325 55.9948 95.5327 55.9948C95.5328 55.9948 95.533 55.9948 95.5331 55.9948C95.5332 55.9948 95.5334 55.9948 95.5335 55.9948C95.5337 55.9948 95.5338 55.9948 95.5339 55.9948C95.5341 55.9948 95.5342 55.9948 95.5343 55.9948C95.5345 55.9948 95.5346 55.9948 95.5348 55.9948C95.5349 55.9948 95.535 55.9948 95.5352 55.9948C95.5353 55.9948 95.5355 55.9948 95.5356 55.9948C95.5357 55.9948 95.5359 55.9948 95.536 55.9948C95.5362 55.9948 95.5363 55.9948 95.5364 55.9948C95.5366 55.9948 95.5367 55.9948 95.5369 55.9948C95.537 55.9948 95.5371 55.9948 95.5373 55.9948C95.5374 55.9948 95.5376 55.9948 95.5377 55.9948C95.5378 55.9948 95.538 55.9948 95.5381 55.9948C95.5382 55.9948 95.5384 55.9948 95.5385 55.9948C95.5387 55.9948 95.5388 55.9948 95.5389 55.9948C95.5391 55.9948 95.5392 55.9948 95.5394 55.9948C95.5395 55.9948 95.5396 55.9948 95.5398 55.9948C95.5399 55.9948 95.5401 55.9948 95.5402 55.9948C95.5403 55.9948 95.5405 55.9948 95.5406 55.9948C95.5408 55.9948 95.5409 55.9948 95.541 55.9948C95.5412 55.9948 95.5413 55.9948 95.5415 55.9948C95.5416 55.9948 95.5417 55.9948 95.5419 55.9948C95.542 55.9948 95.5421 55.9948 95.5423 55.9948C95.5424 55.9948 95.5426 55.9948 95.5427 55.9948C95.5428 55.9948 95.543 55.9948 95.5431 55.9948C95.5433 55.9948 95.5434 55.9948 95.5435 55.9948C95.5437 55.9948 95.5438 55.9948 95.544 55.9948C95.5441 55.9948 95.5442 55.9948 95.5444 55.9948C95.5445 55.9948 95.5447 55.9948 95.5448 55.9948C95.5449 55.9948 95.5451 55.9948 95.5452 55.9948C95.5454 55.9948 95.5455 55.9948 95.5456 55.9948C95.5458 55.9948 95.5459 55.9948 95.5461 55.9948C95.5462 55.9948 95.5463 55.9948 95.5465 55.9948C95.5466 55.9948 95.5467 55.9948 95.5469 55.9948C95.547 55.9948 95.5472 55.9948 95.5473 55.9948C95.5474 55.9948 95.5476 55.9948 95.5477 55.9948C95.5479 55.9948 95.548 55.9948 95.5481 55.9948C95.5483 55.9948 95.5484 55.9948 95.5486 55.9948C95.5487 55.9948 95.5488 55.9948 95.549 55.9948C95.5491 55.9948 95.5493 55.9948 95.5494 55.9948C95.5495 55.9948 95.5497 55.9948 95.5498 55.9948C95.55 55.9948 95.5501 55.9948 95.5502 55.9948C95.5504 55.9948 95.5505 55.9948 95.5507 55.9948C95.5508 55.9948 95.5509 55.9948 95.5511 55.9948C95.5512 55.9948 95.5514 55.9948 95.5515 55.9948C95.5516 55.9948 95.5518 55.9948 95.5519 55.9948C95.552 55.9948 95.5522 55.9948 95.5523 55.9948C95.5525 55.9948 95.5526 55.9948 95.5527 55.9948C95.5529 55.9948 95.553 55.9948 95.5532 55.9948C95.5533 55.9948 95.5534 55.9948 95.5536 55.9948C95.5537 55.9948 95.5539 55.9948 95.554 55.9948C95.5541 55.9948 95.5543 55.9948 95.5544 55.9948C95.5546 55.9948 95.5547 55.9948 95.5548 55.9948C95.555 55.9948 95.5551 55.9948 95.5553 55.9948C95.5554 55.9948 95.5555 55.9948 95.5557 55.9948C95.5558 55.9948 95.556 55.9948 95.5561 55.9948C95.5562 55.9948 95.5564 55.9948 95.5565 55.9948C95.5567 55.9948 95.5568 55.9948 95.5569 55.9948C95.5571 55.9948 95.5572 55.9948 95.5574 55.9948C95.5575 55.9948 95.5576 55.9948 95.5578 55.9948C95.5579 55.9948 95.5581 55.9948 95.5582 55.9948C95.5583 55.9948 95.5585 55.9948 95.5586 55.9948C95.5588 55.9948 95.5589 55.9948 95.559 55.9948C95.5592 55.9948 95.5593 55.9948 95.5595 55.9948C95.5596 55.9948 95.5597 55.9948 95.5599 55.9948C95.56 55.9948 95.5602 55.9948 95.5603 55.9948C95.5604 55.9948 95.5606 55.9948 95.5607 55.9948C95.5609 55.9948 95.561 55.9948 95.5611 55.9948C95.5613 55.9948 95.5614 55.9948 95.5616 55.9948C95.5617 55.9948 95.5618 55.9948 95.562 55.9948C95.5621 55.9948 95.5622 55.9948 95.5624 55.9948C95.5625 55.9948 95.5627 55.9948 95.5628 55.9948C95.563 55.9948 95.5631 55.9948 95.5632 55.9948C95.5634 55.9948 95.5635 55.9948 95.5636 55.9948C95.5638 55.9948 95.5639 55.9948 95.5641 55.9948C95.5642 55.9948 95.5644 55.9948 95.5645 55.9948C95.5646 55.9948 95.5648 55.9948 95.5649 55.9948C95.565 55.9948 95.5652 55.9948 95.5653 55.9948C95.5655 55.9948 95.5656 55.9948 95.5658 55.9948C95.5659 55.9948 95.566 55.9948 95.5662 55.9948C95.5663 55.9948 95.5664 55.9948 95.5666 55.9948C95.5667 55.9948 95.5669 55.9948 95.567 55.9948C95.5672 55.9948 95.5673 55.9948 95.5674 55.9948C95.5676 55.9948 95.5677 55.9948 95.5678 55.9948C95.568 55.9948 95.5681 55.9948 95.5683 55.9948C95.5684 55.9948 95.5686 55.9948 95.5687 55.9948C95.5688 55.9948 95.569 55.9948 95.5691 55.9948C95.5693 55.9948 95.5694 55.9948 95.5695 55.9948C95.5697 55.9948 95.5698 55.9948 95.57 55.9948C95.5701 55.9948 95.5702 55.9948 95.5704 55.9948C95.5705 55.9948 95.5707 55.9948 95.5708 55.9948C95.5709 55.9948 95.5711 55.9948 95.5712 55.9948C95.5714 55.9948 95.5715 55.9948 95.5716 55.9948C95.5718 55.9948 95.5719 55.9948 95.5721 55.9948C95.5722 55.9948 95.5723 55.9948 95.5725 55.9948C95.5726 55.9948 95.5728 55.9948 95.5729 55.9948C95.573 55.9948 95.5732 55.9948 95.5733 55.9948C95.5735 55.9948 95.5736 55.9948 95.5737 55.9948C95.5739 55.9948 95.574 55.9948 95.5742 55.9948C95.5743 55.9948 95.5744 55.9948 95.5746 55.9948C95.5747 55.9948 95.5749 55.9948 95.575 55.9948C95.5751 55.9948 95.5753 55.9948 95.5754 55.9948C95.5756 55.9948 95.5757 55.9948 95.5758 55.9948C95.576 55.9948 95.5761 55.9948 95.5763 55.9948C95.5764 55.9948 95.5765 55.9948 95.5767 55.9948C95.5768 55.9948 95.577 55.9948 95.5771 55.9948C95.5773 55.9948 95.5774 55.9948 95.5775 55.9948C95.5777 55.9948 95.5778 55.9948 95.578 55.9948C95.5781 55.9948 95.5782 55.9948 95.5784 55.9948C95.5785 55.9948 95.5787 55.9948 95.5788 55.9948C95.5789 55.9948 95.5791 55.9948 95.5792 55.9948C95.5794 55.9948 95.5795 55.9948 95.5796 55.9948C95.5798 55.9948 95.5799 55.9948 95.5801 55.9948C95.5802 55.9948 95.5803 55.9948 95.5805 55.9948C95.5806 55.9948 95.5808 55.9948 95.5809 55.9948C95.5811 55.9948 95.5812 55.9948 95.5813 55.9948C95.5815 55.9948 95.5816 55.9948 95.5818 55.9948C95.5819 55.9948 95.582 55.9948 95.5822 55.9948C95.5823 55.9948 95.5825 55.9948 95.5826 55.9948C95.5827 55.9948 95.5829 55.9948 95.583 55.9948C95.5832 55.9948 95.5833 55.9948 95.5834 55.9948C95.5836 55.9948 95.5837 55.9948 95.5839 55.9948C95.584 55.9948 95.5842 55.9948 95.5843 55.9948C95.5844 55.9948 95.5846 55.9948 95.5847 55.9948C95.5849 55.9948 95.585 55.9948 95.5851 55.9948C95.5853 55.9948 95.5854 55.9948 95.5856 55.9948C95.5857 55.9948 95.5858 55.9948 95.586 55.9948C95.5861 55.9948 95.5863 55.9948 95.5864 55.9948C95.5866 55.9948 95.5867 55.9948 95.5868 55.9948C95.587 55.9948 95.5871 55.9948 95.5873 55.9948C95.5874 55.9948 95.5875 55.9948 95.5877 55.9948C95.5878 55.9948 95.588 55.9948 95.5881 55.9948C95.5882 55.9948 95.5884 55.9948 95.5885 55.9948C95.5887 55.9948 95.5888 55.9948 95.589 55.9948C95.5891 55.9948 95.5892 55.9948 95.5894 55.9948C95.5895 55.9948 95.5897 55.9948 95.5898 55.9948C95.5899 55.9948 95.5901 55.9948 95.5902 55.9948C95.5904 55.9948 95.5905 55.9948 95.5906 55.9948C95.5908 55.9948 95.5909 55.9948 95.5911 55.9948C95.5912 55.9948 95.5914 55.9948 95.5915 55.9948C95.5916 55.9948 95.5918 55.9948 95.5919 55.9948C95.5921 55.9948 95.5922 55.9948 95.5923 55.9948C95.5925 55.9948 95.5926 55.9948 95.5928 55.9948C95.5929 55.9948 95.5931 55.9948 95.5932 55.9948C95.5933 55.9948 95.5935 55.9948 95.5936 55.9948C95.5938 55.9948 95.5939 55.9948 95.594 55.9948C95.5942 55.9948 95.5943 55.9948 95.5945 55.9948C95.5946 55.9948 95.5948 55.9948 95.5949 55.9948C95.595 55.9948 95.5952 55.9948 95.5953 55.9948C95.5955 55.9948 95.5956 55.9948 95.5957 55.9948C95.5959 55.9948 95.596 55.9948 95.5962 55.9948C95.5963 55.9948 95.5965 55.9948 95.5966 55.9948C95.5967 55.9948 95.5969 55.9948 95.597 55.9948C95.5972 55.9948 95.5973 55.9948 95.5974 55.9948C95.5976 55.9948 95.5977 55.9948 95.5979 55.9948C95.598 55.9948 95.5982 55.9948 95.5983 55.9948C95.5984 55.9948 95.5986 55.9948 95.5987 55.9948V54.9948C95.5986 54.9948 95.5984 54.9948 95.5983 54.9948C95.5982 54.9948 95.598 54.9948 95.5979 54.9948C95.5977 54.9948 95.5976 54.9948 95.5974 54.9948C95.5973 54.9948 95.5972 54.9948 95.597 54.9948C95.5969 54.9948 95.5967 54.9948 95.5966 54.9948C95.5965 54.9948 95.5963 54.9948 95.5962 54.9948C95.596 54.9948 95.5959 54.9948 95.5957 54.9948C95.5956 54.9948 95.5955 54.9948 95.5953 54.9948C95.5952 54.9948 95.595 54.9948 95.5949 54.9948C95.5948 54.9948 95.5946 54.9948 95.5945 54.9948C95.5943 54.9948 95.5942 54.9948 95.594 54.9948C95.5939 54.9948 95.5938 54.9948 95.5936 54.9948C95.5935 54.9948 95.5933 54.9948 95.5932 54.9948C95.5931 54.9948 95.5929 54.9948 95.5928 54.9948C95.5926 54.9948 95.5925 54.9948 95.5923 54.9948C95.5922 54.9948 95.5921 54.9948 95.5919 54.9948C95.5918 54.9948 95.5916 54.9948 95.5915 54.9948C95.5914 54.9948 95.5912 54.9948 95.5911 54.9948C95.5909 54.9948 95.5908 54.9948 95.5906 54.9948C95.5905 54.9948 95.5904 54.9948 95.5902 54.9948C95.5901 54.9948 95.5899 54.9948 95.5898 54.9948C95.5897 54.9948 95.5895 54.9948 95.5894 54.9948C95.5892 54.9948 95.5891 54.9948 95.589 54.9948C95.5888 54.9948 95.5887 54.9948 95.5885 54.9948C95.5884 54.9948 95.5882 54.9948 95.5881 54.9948C95.588 54.9948 95.5878 54.9948 95.5877 54.9948C95.5875 54.9948 95.5874 54.9948 95.5873 54.9948C95.5871 54.9948 95.587 54.9948 95.5868 54.9948C95.5867 54.9948 95.5866 54.9948 95.5864 54.9948C95.5863 54.9948 95.5861 54.9948 95.586 54.9948C95.5858 54.9948 95.5857 54.9948 95.5856 54.9948C95.5854 54.9948 95.5853 54.9948 95.5851 54.9948C95.585 54.9948 95.5849 54.9948 95.5847 54.9948C95.5846 54.9948 95.5844 54.9948 95.5843 54.9948C95.5842 54.9948 95.584 54.9948 95.5839 54.9948C95.5837 54.9948 95.5836 54.9948 95.5834 54.9948C95.5833 54.9948 95.5832 54.9948 95.583 54.9948C95.5829 54.9948 95.5827 54.9948 95.5826 54.9948C95.5825 54.9948 95.5823 54.9948 95.5822 54.9948C95.582 54.9948 95.5819 54.9948 95.5818 54.9948C95.5816 54.9948 95.5815 54.9948 95.5813 54.9948C95.5812 54.9948 95.5811 54.9948 95.5809 54.9948C95.5808 54.9948 95.5806 54.9948 95.5805 54.9948C95.5803 54.9948 95.5802 54.9948 95.5801 54.9948C95.5799 54.9948 95.5798 54.9948 95.5796 54.9948C95.5795 54.9948 95.5794 54.9948 95.5792 54.9948C95.5791 54.9948 95.5789 54.9948 95.5788 54.9948C95.5787 54.9948 95.5785 54.9948 95.5784 54.9948C95.5782 54.9948 95.5781 54.9948 95.578 54.9948C95.5778 54.9948 95.5777 54.9948 95.5775 54.9948C95.5774 54.9948 95.5773 54.9948 95.5771 54.9948C95.577 54.9948 95.5768 54.9948 95.5767 54.9948C95.5765 54.9948 95.5764 54.9948 95.5763 54.9948C95.5761 54.9948 95.576 54.9948 95.5758 54.9948C95.5757 54.9948 95.5756 54.9948 95.5754 54.9948C95.5753 54.9948 95.5751 54.9948 95.575 54.9948C95.5749 54.9948 95.5747 54.9948 95.5746 54.9948C95.5744 54.9948 95.5743 54.9948 95.5742 54.9948C95.574 54.9948 95.5739 54.9948 95.5737 54.9948C95.5736 54.9948 95.5735 54.9948 95.5733 54.9948C95.5732 54.9948 95.573 54.9948 95.5729 54.9948C95.5728 54.9948 95.5726 54.9948 95.5725 54.9948C95.5723 54.9948 95.5722 54.9948 95.5721 54.9948C95.5719 54.9948 95.5718 54.9948 95.5716 54.9948C95.5715 54.9948 95.5714 54.9948 95.5712 54.9948C95.5711 54.9948 95.5709 54.9948 95.5708 54.9948C95.5707 54.9948 95.5705 54.9948 95.5704 54.9948C95.5702 54.9948 95.5701 54.9948 95.57 54.9948C95.5698 54.9948 95.5697 54.9948 95.5695 54.9948C95.5694 54.9948 95.5693 54.9948 95.5691 54.9948C95.569 54.9948 95.5688 54.9948 95.5687 54.9948C95.5686 54.9948 95.5684 54.9948 95.5683 54.9948C95.5681 54.9948 95.568 54.9948 95.5678 54.9948C95.5677 54.9948 95.5676 54.9948 95.5674 54.9948C95.5673 54.9948 95.5672 54.9948 95.567 54.9948C95.5669 54.9948 95.5667 54.9948 95.5666 54.9948C95.5664 54.9948 95.5663 54.9948 95.5662 54.9948C95.566 54.9948 95.5659 54.9948 95.5658 54.9948C95.5656 54.9948 95.5655 54.9948 95.5653 54.9948C95.5652 54.9948 95.565 54.9948 95.5649 54.9948C95.5648 54.9948 95.5646 54.9948 95.5645 54.9948C95.5644 54.9948 95.5642 54.9948 95.5641 54.9948C95.5639 54.9948 95.5638 54.9948 95.5636 54.9948C95.5635 54.9948 95.5634 54.9948 95.5632 54.9948C95.5631 54.9948 95.563 54.9948 95.5628 54.9948C95.5627 54.9948 95.5625 54.9948 95.5624 54.9948C95.5622 54.9948 95.5621 54.9948 95.562 54.9948C95.5618 54.9948 95.5617 54.9948 95.5616 54.9948C95.5614 54.9948 95.5613 54.9948 95.5611 54.9948C95.561 54.9948 95.5609 54.9948 95.5607 54.9948C95.5606 54.9948 95.5604 54.9948 95.5603 54.9948C95.5602 54.9948 95.56 54.9948 95.5599 54.9948C95.5597 54.9948 95.5596 54.9948 95.5595 54.9948C95.5593 54.9948 95.5592 54.9948 95.559 54.9948C95.5589 54.9948 95.5588 54.9948 95.5586 54.9948C95.5585 54.9948 95.5583 54.9948 95.5582 54.9948C95.5581 54.9948 95.5579 54.9948 95.5578 54.9948C95.5576 54.9948 95.5575 54.9948 95.5574 54.9948C95.5572 54.9948 95.5571 54.9948 95.5569 54.9948C95.5568 54.9948 95.5567 54.9948 95.5565 54.9948C95.5564 54.9948 95.5562 54.9948 95.5561 54.9948C95.556 54.9948 95.5558 54.9948 95.5557 54.9948C95.5555 54.9948 95.5554 54.9948 95.5553 54.9948C95.5551 54.9948 95.555 54.9948 95.5548 54.9948C95.5547 54.9948 95.5546 54.9948 95.5544 54.9948C95.5543 54.9948 95.5541 54.9948 95.554 54.9948C95.5539 54.9948 95.5537 54.9948 95.5536 54.9948C95.5534 54.9948 95.5533 54.9948 95.5532 54.9948C95.553 54.9948 95.5529 54.9948 95.5527 54.9948C95.5526 54.9948 95.5525 54.9948 95.5523 54.9948C95.5522 54.9948 95.552 54.9948 95.5519 54.9948C95.5518 54.9948 95.5516 54.9948 95.5515 54.9948C95.5514 54.9948 95.5512 54.9948 95.5511 54.9948C95.5509 54.9948 95.5508 54.9948 95.5507 54.9948C95.5505 54.9948 95.5504 54.9948 95.5502 54.9948C95.5501 54.9948 95.55 54.9948 95.5498 54.9948C95.5497 54.9948 95.5495 54.9948 95.5494 54.9948C95.5493 54.9948 95.5491 54.9948 95.549 54.9948C95.5488 54.9948 95.5487 54.9948 95.5486 54.9948C95.5484 54.9948 95.5483 54.9948 95.5481 54.9948C95.548 54.9948 95.5479 54.9948 95.5477 54.9948C95.5476 54.9948 95.5474 54.9948 95.5473 54.9948C95.5472 54.9948 95.547 54.9948 95.5469 54.9948C95.5467 54.9948 95.5466 54.9948 95.5465 54.9948C95.5463 54.9948 95.5462 54.9948 95.5461 54.9948C95.5459 54.9948 95.5458 54.9948 95.5456 54.9948C95.5455 54.9948 95.5454 54.9948 95.5452 54.9948C95.5451 54.9948 95.5449 54.9948 95.5448 54.9948C95.5447 54.9948 95.5445 54.9948 95.5444 54.9948C95.5442 54.9948 95.5441 54.9948 95.544 54.9948C95.5438 54.9948 95.5437 54.9948 95.5435 54.9948C95.5434 54.9948 95.5433 54.9948 95.5431 54.9948C95.543 54.9948 95.5428 54.9948 95.5427 54.9948C95.5426 54.9948 95.5424 54.9948 95.5423 54.9948C95.5421 54.9948 95.542 54.9948 95.5419 54.9948C95.5417 54.9948 95.5416 54.9948 95.5415 54.9948C95.5413 54.9948 95.5412 54.9948 95.541 54.9948C95.5409 54.9948 95.5408 54.9948 95.5406 54.9948C95.5405 54.9948 95.5403 54.9948 95.5402 54.9948C95.5401 54.9948 95.5399 54.9948 95.5398 54.9948C95.5396 54.9948 95.5395 54.9948 95.5394 54.9948C95.5392 54.9948 95.5391 54.9948 95.5389 54.9948C95.5388 54.9948 95.5387 54.9948 95.5385 54.9948C95.5384 54.9948 95.5382 54.9948 95.5381 54.9948C95.538 54.9948 95.5378 54.9948 95.5377 54.9948C95.5376 54.9948 95.5374 54.9948 95.5373 54.9948C95.5371 54.9948 95.537 54.9948 95.5369 54.9948C95.5367 54.9948 95.5366 54.9948 95.5364 54.9948C95.5363 54.9948 95.5362 54.9948 95.536 54.9948C95.5359 54.9948 95.5357 54.9948 95.5356 54.9948C95.5355 54.9948 95.5353 54.9948 95.5352 54.9948C95.535 54.9948 95.5349 54.9948 95.5348 54.9948C95.5346 54.9948 95.5345 54.9948 95.5343 54.9948C95.5342 54.9948 95.5341 54.9948 95.5339 54.9948C95.5338 54.9948 95.5337 54.9948 95.5335 54.9948C95.5334 54.9948 95.5332 54.9948 95.5331 54.9948C95.533 54.9948 95.5328 54.9948 95.5327 54.9948C95.5325 54.9948 95.5324 54.9948 95.5323 54.9948C95.5321 54.9948 95.532 54.9948 95.5318 54.9948C95.5317 54.9948 95.5316 54.9948 95.5314 54.9948C95.5313 54.9948 95.5311 54.9948 95.531 54.9948C95.5309 54.9948 95.5307 54.9948 95.5306 54.9948C95.5304 54.9948 95.5303 54.9948 95.5302 54.9948C95.53 54.9948 95.5299 54.9948 95.5298 54.9948C95.5296 54.9948 95.5295 54.9948 95.5293 54.9948C95.5292 54.9948 95.5291 54.9948 95.5289 54.9948C95.5288 54.9948 95.5286 54.9948 95.5285 54.9948C95.5284 54.9948 95.5282 54.9948 95.5281 54.9948C95.5279 54.9948 95.5278 54.9948 95.5277 54.9948C95.5275 54.9948 95.5274 54.9948 95.5272 54.9948C95.5271 54.9948 95.527 54.9948 95.5268 54.9948C95.5267 54.9948 95.5266 54.9948 95.5264 54.9948C95.5263 54.9948 95.5261 54.9948 95.526 54.9948C95.5259 54.9948 95.5257 54.9948 95.5256 54.9948C95.5254 54.9948 95.5253 54.9948 95.5252 54.9948C95.525 54.9948 95.5249 54.9948 95.5247 54.9948C95.5246 54.9948 95.5245 54.9948 95.5243 54.9948C95.5242 54.9948 95.524 54.9948 95.5239 54.9948C95.5238 54.9948 95.5236 54.9948 95.5235 54.9948C95.5233 54.9948 95.5232 54.9948 95.5231 54.9948C95.5229 54.9948 95.5228 54.9948 95.5227 54.9948C95.5225 54.9948 95.5224 54.9948 95.5222 54.9948C95.5221 54.9948 95.522 54.9948 95.5218 54.9948C95.5217 54.9948 95.5215 54.9948 95.5214 54.9948C95.5213 54.9948 95.5211 54.9948 95.521 54.9948C95.5208 54.9948 95.5207 54.9948 95.5206 54.9948C95.5204 54.9948 95.5203 54.9948 95.5201 54.9948C95.52 54.9948 95.5199 54.9948 95.5197 54.9948C95.5196 54.9948 95.5195 54.9948 95.5193 54.9948C95.5192 54.9948 95.519 54.9948 95.5189 54.9948C95.5188 54.9948 95.5186 54.9948 95.5185 54.9948C95.5183 54.9948 95.5182 54.9948 95.5181 54.9948C95.5179 54.9948 95.5178 54.9948 95.5176 54.9948C95.5175 54.9948 95.5174 54.9948 95.5172 54.9948C95.5171 54.9948 95.5169 54.9948 95.5168 54.9948C95.5167 54.9948 95.5165 54.9948 95.5164 54.9948C95.5162 54.9948 95.5161 54.9948 95.516 54.9948C95.5158 54.9948 95.5157 54.9948 95.5156 54.9948C95.5154 54.9948 95.5153 54.9948 95.5151 54.9948C95.515 54.9948 95.5149 54.9948 95.5147 54.9948C95.5146 54.9948 95.5144 54.9948 95.5143 54.9948C95.5142 54.9948 95.514 54.9948 95.5139 54.9948C95.5137 54.9948 95.5136 54.9948 95.5135 54.9948C95.5133 54.9948 95.5132 54.9948 95.513 54.9948C95.5129 54.9948 95.5128 54.9948 95.5126 54.9948C95.5125 54.9948 95.5123 54.9948 95.5122 54.9948C95.5121 54.9948 95.5119 54.9948 95.5118 54.9948C95.5117 54.9948 95.5115 54.9948 95.5114 54.9948C95.5112 54.9948 95.5111 54.9948 95.511 54.9948C95.5108 54.9948 95.5107 54.9948 95.5105 54.9948C95.5104 54.9948 95.5103 54.9948 95.5101 54.9948C95.51 54.9948 95.5098 54.9948 95.5097 54.9948C95.5096 54.9948 95.5094 54.9948 95.5093 54.9948C95.5091 54.9948 95.509 54.9948 95.5089 54.9948C95.5087 54.9948 95.5086 54.9948 95.5084 54.9948C95.5083 54.9948 95.5082 54.9948 95.508 54.9948C95.5079 54.9948 95.5077 54.9948 95.5076 54.9948C95.5075 54.9948 95.5073 54.9948 95.5072 54.9948C95.507 54.9948 95.5069 54.9948 95.5068 54.9948C95.5066 54.9948 95.5065 54.9948 95.5064 54.9948C95.5062 54.9948 95.5061 54.9948 95.5059 54.9948C95.5058 54.9948 95.5057 54.9948 95.5055 54.9948C95.5054 54.9948 95.5052 54.9948 95.5051 54.9948C95.505 54.9948 95.5048 54.9948 95.5047 54.9948C95.5045 54.9948 95.5044 54.9948 95.5043 54.9948C95.5041 54.9948 95.504 54.9948 95.5038 54.9948C95.5037 54.9948 95.5036 54.9948 95.5034 54.9948C95.5033 54.9948 95.5031 54.9948 95.503 54.9948C95.5029 54.9948 95.5027 54.9948 95.5026 54.9948C95.5024 54.9948 95.5023 54.9948 95.5022 54.9948C95.502 54.9948 95.5019 54.9948 95.5018 54.9948C95.5016 54.9948 95.5015 54.9948 95.5013 54.9948C95.5012 54.9948 95.5011 54.9948 95.5009 54.9948C95.5008 54.9948 95.5006 54.9948 95.5005 54.9948C95.5004 54.9948 95.5002 54.9948 95.5001 54.9948C95.4999 54.9948 95.4998 54.9948 95.4997 54.9948C95.4995 54.9948 95.4994 54.9948 95.4992 54.9948C95.4991 54.9948 95.499 54.9948 95.4988 54.9948C95.4987 54.9948 95.4985 54.9948 95.4984 54.9948C95.4983 54.9948 95.4981 54.9948 95.498 54.9948C95.4978 54.9948 95.4977 54.9948 95.4976 54.9948C95.4974 54.9948 95.4973 54.9948 95.4971 54.9948C95.497 54.9948 95.4969 54.9948 95.4967 54.9948C95.4966 54.9948 95.4964 54.9948 95.4963 54.9948C95.4962 54.9948 95.496 54.9948 95.4959 54.9948C95.4957 54.9948 95.4956 54.9948 95.4955 54.9948C95.4953 54.9948 95.4952 54.9948 95.495 54.9948C95.4949 54.9948 95.4948 54.9948 95.4946 54.9948C95.4945 54.9948 95.4943 54.9948 95.4942 54.9948C95.4941 54.9948 95.4939 54.9948 95.4938 54.9948C95.4936 54.9948 95.4935 54.9948 95.4934 54.9948C95.4932 54.9948 95.4931 54.9948 95.4929 54.9948C95.4928 54.9948 95.4927 54.9948 95.4925 54.9948C95.4924 54.9948 95.4922 54.9948 95.4921 54.9948C95.492 54.9948 95.4918 54.9948 95.4917 54.9948C95.4916 54.9948 95.4914 54.9948 95.4913 54.9948C95.4911 54.9948 95.491 54.9948 95.4908 54.9948C95.4907 54.9948 95.4906 54.9948 95.4904 54.9948C95.4903 54.9948 95.4902 54.9948 95.49 54.9948C95.4899 54.9948 95.4897 54.9948 95.4896 54.9948C95.4894 54.9948 95.4893 54.9948 95.4892 54.9948C95.489 54.9948 95.4889 54.9948 95.4888 54.9948C95.4886 54.9948 95.4885 54.9948 95.4883 54.9948C95.4882 54.9948 95.488 54.9948 95.4879 54.9948C95.4878 54.9948 95.4876 54.9948 95.4875 54.9948C95.4874 54.9948 95.4872 54.9948 95.4871 54.9948C95.4869 54.9948 95.4868 54.9948 95.4866 54.9948C95.4865 54.9948 95.4864 54.9948 95.4862 54.9948C95.4861 54.9948 95.486 54.9948 95.4858 54.9948C95.4857 54.9948 95.4855 54.9948 95.4854 54.9948C95.4852 54.9948 95.4851 54.9948 95.485 54.9948C95.4848 54.9948 95.4847 54.9948 95.4845 54.9948C95.4844 54.9948 95.4843 54.9948 95.4841 54.9948C95.484 54.9948 95.4838 54.9948 95.4837 54.9948C95.4836 54.9948 95.4834 54.9948 95.4833 54.9948C95.4831 54.9948 95.483 54.9948 95.4829 54.9948C95.4827 54.9948 95.4826 54.9948 95.4824 54.9948C95.4823 54.9948 95.4822 54.9948 95.482 54.9948C95.4819 54.9948 95.4817 54.9948 95.4816 54.9948C95.4815 54.9948 95.4813 54.9948 95.4812 54.9948C95.481 54.9948 95.4809 54.9948 95.4808 54.9948C95.4806 54.9948 95.4805 54.9948 95.4803 54.9948C95.4802 54.9948 95.4801 54.9948 95.4799 54.9948C95.4798 54.9948 95.4796 54.9948 95.4795 54.9948C95.4794 54.9948 95.4792 54.9948 95.4791 54.9948C95.4789 54.9948 95.4788 54.9948 95.4787 54.9948C95.4785 54.9948 95.4784 54.9948 95.4782 54.9948C95.4781 54.9948 95.478 54.9948 95.4778 54.9948C95.4777 54.9948 95.4775 54.9948 95.4774 54.9948C95.4772 54.9948 95.4771 54.9948 95.477 54.9948C95.4768 54.9948 95.4767 54.9948 95.4765 54.9948C95.4764 54.9948 95.4763 54.9948 95.4761 54.9948C95.476 54.9948 95.4758 54.9948 95.4757 54.9948C95.4756 54.9948 95.4754 54.9948 95.4753 54.9948C95.4751 54.9948 95.475 54.9948 95.4749 54.9948C95.4747 54.9948 95.4746 54.9948 95.4744 54.9948C95.4743 54.9948 95.4742 54.9948 95.474 54.9948C95.4739 54.9948 95.4737 54.9948 95.4736 54.9948C95.4734 54.9948 95.4733 54.9948 95.4732 54.9948C95.473 54.9948 95.4729 54.9948 95.4727 54.9948C95.4726 54.9948 95.4725 54.9948 95.4723 54.9948C95.4722 54.9948 95.472 54.9948 95.4719 54.9948C95.4718 54.9948 95.4716 54.9948 95.4715 54.9948C95.4713 54.9948 95.4712 54.9948 95.4711 54.9948C95.4709 54.9948 95.4708 54.9948 95.4706 54.9948C95.4705 54.9948 95.4703 54.9948 95.4702 54.9948C95.4701 54.9948 95.4699 54.9948 95.4698 54.9948C95.4696 54.9948 95.4695 54.9948 95.4694 54.9948C95.4692 54.9948 95.4691 54.9948 95.4689 54.9948C95.4688 54.9948 95.4687 54.9948 95.4685 54.9948C95.4684 54.9948 95.4682 54.9948 95.4681 54.9948C95.468 54.9948 95.4678 54.9948 95.4677 54.9948C95.4675 54.9948 95.4674 54.9948 95.4672 54.9948C95.4671 54.9948 95.467 54.9948 95.4668 54.9948C95.4667 54.9948 95.4665 54.9948 95.4664 54.9948C95.4663 54.9948 95.4661 54.9948 95.466 54.9948C95.4658 54.9948 95.4657 54.9948 95.4656 54.9948C95.4654 54.9948 95.4653 54.9948 95.4651 54.9948C95.465 54.9948 95.4648 54.9948 95.4647 54.9948C95.4646 54.9948 95.4644 54.9948 95.4643 54.9948C95.4641 54.9948 95.464 54.9948 95.4639 54.9948C95.4637 54.9948 95.4636 54.9948 95.4634 54.9948C95.4633 54.9948 95.4632 54.9948 95.463 54.9948C95.4629 54.9948 95.4627 54.9948 95.4626 54.9948C95.4624 54.9948 95.4623 54.9948 95.4622 54.9948C95.462 54.9948 95.4619 54.9948 95.4617 54.9948C95.4616 54.9948 95.4615 54.9948 95.4613 54.9948C95.4612 54.9948 95.461 54.9948 95.4609 54.9948C95.4607 54.9948 95.4606 54.9948 95.4605 54.9948C95.4603 54.9948 95.4602 54.9948 95.46 54.9948C95.4599 54.9948 95.4598 54.9948 95.4596 54.9948C95.4595 54.9948 95.4593 54.9948 95.4592 54.9948C95.459 54.9948 95.4589 54.9948 95.4588 54.9948C95.4586 54.9948 95.4585 54.9948 95.4583 54.9948C95.4582 54.9948 95.458 54.9948 95.4579 54.9948C95.4578 54.9948 95.4576 54.9948 95.4575 54.9948C95.4573 54.9948 95.4572 54.9948 95.4571 54.9948C95.4569 54.9948 95.4568 54.9948 95.4566 54.9948C95.4565 54.9948 95.4563 54.9948 95.4562 54.9948C95.4561 54.9948 95.4559 54.9948 95.4558 54.9948C95.4556 54.9948 95.4555 54.9948 95.4554 54.9948C95.4552 54.9948 95.4551 54.9948 95.4549 54.9948C95.4548 54.9948 95.4546 54.9948 95.4545 54.9948C95.4544 54.9948 95.4542 54.9948 95.4541 54.9948C95.4539 54.9948 95.4538 54.9948 95.4537 54.9948C95.4535 54.9948 95.4534 54.9948 95.4532 54.9948C95.4531 54.9948 95.4529 54.9948 95.4528 54.9948C95.4527 54.9948 95.4525 54.9948 95.4524 54.9948C95.4522 54.9948 95.4521 54.9948 95.4519 54.9948C95.4518 54.9948 95.4517 54.9948 95.4515 54.9948C95.4514 54.9948 95.4512 54.9948 95.4511 54.9948C95.4509 54.9948 95.4508 54.9948 95.4507 54.9948C95.4505 54.9948 95.4504 54.9948 95.4502 54.9948C95.4501 54.9948 95.45 54.9948 95.4498 54.9948C95.4497 54.9948 95.4495 54.9948 95.4494 54.9948C95.4492 54.9948 95.4491 54.9948 95.449 54.9948C95.4488 54.9948 95.4487 54.9948 95.4485 54.9948C95.4484 54.9948 95.4482 54.9948 95.4481 54.9948C95.448 54.9948 95.4478 54.9948 95.4477 54.9948C95.4475 54.9948 95.4474 54.9948 95.4472 54.9948C95.4471 54.9948 95.447 54.9948 95.4468 54.9948C95.4467 54.9948 95.4465 54.9948 95.4464 54.9948C95.4462 54.9948 95.4461 54.9948 95.446 54.9948C95.4458 54.9948 95.4457 54.9948 95.4455 54.9948C95.4454 54.9948 95.4452 54.9948 95.4451 54.9948C95.445 54.9948 95.4448 54.9948 95.4447 54.9948C95.4445 54.9948 95.4444 54.9948 95.4442 54.9948C95.4441 54.9948 95.444 54.9948 95.4438 54.9948C95.4437 54.9948 95.4435 54.9948 95.4434 54.9948C95.4432 54.9948 95.4431 54.9948 95.443 54.9948C95.4428 54.9948 95.4427 54.9948 95.4425 54.9948C95.4424 54.9948 95.4422 54.9948 95.4421 54.9948C95.442 54.9948 95.4418 54.9948 95.4417 54.9948C95.4415 54.9948 95.4414 54.9948 95.4412 54.9948C95.4411 54.9948 95.441 54.9948 95.4408 54.9948C95.4407 54.9948 95.4405 54.9948 95.4404 54.9948C95.4402 54.9948 95.4401 54.9948 95.44 54.9948C95.4398 54.9948 95.4397 54.9948 95.4395 54.9948C95.4394 54.9948 95.4392 54.9948 95.4391 54.9948C95.4389 54.9948 95.4388 54.9948 95.4387 54.9948C95.4385 54.9948 95.4384 54.9948 95.4382 54.9948C95.4381 54.9948 95.4379 54.9948 95.4378 54.9948C95.4377 54.9948 95.4375 54.9948 95.4374 54.9948C95.4372 54.9948 95.4371 54.9948 95.4369 54.9948C95.4368 54.9948 95.4367 54.9948 95.4365 54.9948C95.4364 54.9948 95.4362 54.9948 95.4361 54.9948C95.4359 54.9948 95.4358 54.9948 95.4356 54.9948C95.4355 54.9948 95.4354 54.9948 95.4352 54.9948C95.4351 54.9948 95.4349 54.9948 95.4348 54.9948C95.4346 54.9948 95.4345 54.9948 95.4344 54.9948C95.4342 54.9948 95.4341 54.9948 95.4339 54.9948C95.4338 54.9948 95.4336 54.9948 95.4335 54.9948C95.4333 54.9948 95.4332 54.9948 95.4331 54.9948C95.4329 54.9948 95.4328 54.9948 95.4326 54.9948C95.4325 54.9948 95.4323 54.9948 95.4322 54.9948C95.4321 54.9948 95.4319 54.9948 95.4318 54.9948C95.4316 54.9948 95.4315 54.9948 95.4313 54.9948C95.4312 54.9948 95.431 54.9948 95.4309 54.9948C95.4308 54.9948 95.4306 54.9948 95.4305 54.9948C95.4303 54.9948 95.4302 54.9948 95.43 54.9948C95.4299 54.9948 95.4297 54.9948 95.4296 54.9948C95.4295 54.9948 95.4293 54.9948 95.4292 54.9948C95.429 54.9948 95.4289 54.9948 95.4287 54.9948C95.4286 54.9948 95.4284 54.9948 95.4283 54.9948C95.4282 54.9948 95.428 54.9948 95.4279 54.9948C95.4277 54.9948 95.4276 54.9948 95.4274 54.9948C95.4273 54.9948 95.4271 54.9948 95.427 54.9948C95.4269 54.9948 95.4267 54.9948 95.4266 54.9948C95.4264 54.9948 95.4263 54.9948 95.4261 54.9948C95.426 54.9948 95.4258 54.9948 95.4257 54.9948C95.4256 54.9948 95.4254 54.9948 95.4253 54.9948C95.4251 54.9948 95.425 54.9948 95.4248 54.9948C95.4247 54.9948 95.4245 54.9948 95.4244 54.9948C95.4243 54.9948 95.4241 54.9948 95.424 54.9948C95.4238 54.9948 95.4237 54.9948 95.4235 54.9948C95.4234 54.9948 95.4232 54.9948 95.4231 54.9948C95.4229 54.9948 95.4228 54.9948 95.4227 54.9948C95.4225 54.9948 95.4224 54.9948 95.4222 54.9948C95.4221 54.9948 95.4219 54.9948 95.4218 54.9948C95.4216 54.9948 95.4215 54.9948 95.4214 54.9948C95.4212 54.9948 95.4211 54.9948 95.4209 54.9948C95.4208 54.9948 95.4206 54.9948 95.4205 54.9948C95.4203 54.9948 95.4202 54.9948 95.42 54.9948C95.4199 54.9948 95.4198 54.9948 95.4196 54.9948C95.4195 54.9948 95.4193 54.9948 95.4192 54.9948C95.419 54.9948 95.4189 54.9948 95.4187 54.9948C95.4186 54.9948 95.4184 54.9948 95.4183 54.9948C95.4182 54.9948 95.418 54.9948 95.4179 54.9948C95.4177 54.9948 95.4176 54.9948 95.4174 54.9948C95.4173 54.9948 95.4171 54.9948 95.417 54.9948C95.4168 54.9948 95.4167 54.9948 95.4166 54.9948C95.4164 54.9948 95.4163 54.9948 95.4161 54.9948C95.416 54.9948 95.4158 54.9948 95.4157 54.9948C95.4155 54.9948 95.4154 54.9948 95.4152 54.9948C95.4151 54.9948 95.4149 54.9948 95.4148 54.9948C95.4147 54.9948 95.4145 54.9948 95.4144 54.9948C95.4142 54.9948 95.4141 54.9948 95.4139 54.9948C95.4138 54.9948 95.4136 54.9948 95.4135 54.9948C95.4133 54.9948 95.4132 54.9948 95.4131 54.9948C95.4129 54.9948 95.4128 54.9948 95.4126 54.9948C95.4125 54.9948 95.4123 54.9948 95.4122 54.9948C95.412 54.9948 95.4119 54.9948 95.4117 54.9948C95.4116 54.9948 95.4114 54.9948 95.4113 54.9948C95.4112 54.9948 95.411 54.9948 95.4109 54.9948C95.4107 54.9948 95.4106 54.9948 95.4104 54.9948C95.4103 54.9948 95.4101 54.9948 95.41 54.9948C95.4098 54.9948 95.4097 54.9948 95.4095 54.9948C95.4094 54.9948 95.4092 54.9948 95.4091 54.9948C95.409 54.9948 95.4088 54.9948 95.4087 54.9948C95.4085 54.9948 95.4084 54.9948 95.4082 54.9948C95.4081 54.9948 95.4079 54.9948 95.4078 54.9948C95.4076 54.9948 95.4075 54.9948 95.4073 54.9948C95.4072 54.9948 95.407 54.9948 95.4069 54.9948C95.4068 54.9948 95.4066 54.9948 95.4065 54.9948C95.4063 54.9948 95.4062 54.9948 95.406 54.9948C95.4059 54.9948 95.4057 54.9948 95.4056 54.9948C95.4054 54.9948 95.4053 54.9948 95.4051 54.9948C95.405 54.9948 95.4048 54.9948 95.4047 54.9948C95.4045 54.9948 95.4044 54.9948 95.4043 54.9948C95.4041 54.9948 95.404 54.9948 95.4038 54.9948C95.4037 54.9948 95.4035 54.9948 95.4034 54.9948C95.4032 54.9948 95.4031 54.9948 95.4029 54.9948C95.4028 54.9948 95.4026 54.9948 95.4025 54.9948C95.4023 54.9948 95.4022 54.9948 95.402 54.9948C95.4019 54.9948 95.4017 54.9948 95.4016 54.9948C95.4015 54.9948 95.4013 54.9948 95.4012 54.9948C95.401 54.9948 95.4009 54.9948 95.4007 54.9948C95.4006 54.9948 95.4004 54.9948 95.4003 54.9948C95.4001 54.9948 95.4 54.9948 95.3998 54.9948C95.3997 54.9948 95.3995 54.9948 95.3994 54.9948C95.3992 54.9948 95.3991 54.9948 95.3989 54.9948C95.3988 54.9948 95.3986 54.9948 95.3985 54.9948C95.3983 54.9948 95.3982 54.9948 95.3981 54.9948C95.3979 54.9948 95.3978 54.9948 95.3976 54.9948C95.3975 54.9948 95.3973 54.9948 95.3972 54.9948C95.397 54.9948 95.3969 54.9948 95.3967 54.9948C95.3966 54.9948 95.3964 54.9948 95.3963 54.9948C95.3961 54.9948 95.396 54.9948 95.3958 54.9948C95.3957 54.9948 95.3955 54.9948 95.3954 54.9948C95.3952 54.9948 95.3951 54.9948 95.3949 54.9948C95.3948 54.9948 95.3946 54.9948 95.3945 54.9948C95.3944 54.9948 95.3942 54.9948 95.3941 54.9948C95.3939 54.9948 95.3938 54.9948 95.3936 54.9948C95.3935 54.9948 95.3933 54.9948 95.3932 54.9948C95.393 54.9948 95.3929 54.9948 95.3927 54.9948C95.3926 54.9948 95.3924 54.9948 95.3923 54.9948C95.3921 54.9948 95.392 54.9948 95.3918 54.9948C95.3917 54.9948 95.3915 54.9948 95.3914 54.9948C95.3912 54.9948 95.3911 54.9948 95.3909 54.9948C95.3908 54.9948 95.3906 54.9948 95.3905 54.9948C95.3903 54.9948 95.3902 54.9948 95.39 54.9948C95.3899 54.9948 95.3897 54.9948 95.3896 54.9948C95.3894 54.9948 95.3893 54.9948 95.3891 54.9948C95.389 54.9948 95.3888 54.9948 95.3887 54.9948C95.3885 54.9948 95.3884 54.9948 95.3882 54.9948C95.3881 54.9948 95.388 54.9948 95.3878 54.9948C95.3876 54.9948 95.3875 54.9948 95.3874 54.9948C95.3872 54.9948 95.3871 54.9948 95.3869 54.9948C95.3868 54.9948 95.3866 54.9948 95.3865 54.9948C95.3863 54.9948 95.3862 54.9948 95.386 54.9948C95.3859 54.9948 95.3857 54.9948 95.3856 54.9948C95.3854 54.9948 95.3853 54.9948 95.3851 54.9948C95.385 54.9948 95.3848 54.9948 95.3847 54.9948C95.3845 54.9948 95.3844 54.9948 95.3842 54.9948C95.3841 54.9948 95.3839 54.9948 95.3838 54.9948C95.3836 54.9948 95.3835 54.9948 95.3833 54.9948C95.3832 54.9948 95.383 54.9948 95.3829 54.9948C95.3827 54.9948 95.3826 54.9948 95.3824 54.9948C95.3823 54.9948 95.3821 54.9948 95.382 54.9948C95.3818 54.9948 95.3817 54.9948 95.3815 54.9948C95.3814 54.9948 95.3812 54.9948 95.3811 54.9948C95.3809 54.9948 95.3808 54.9948 95.3806 54.9948V55.9948ZM95.3752 55.942L95.3923 55.9506L95.8394 55.0561L95.8223 55.0475L95.3752 55.942ZM103.862 70.7927V79.2563H104.862V70.7927H103.862ZM55.0581 104.232V59.3354H54.0581V104.232H55.0581ZM54.5581 59.8354H95.4263V58.8354H54.5581V59.8354ZM94.9263 59.3354V104.078H95.9263V59.3354H94.9263ZM59.3009 64.1334H70.848V63.1334H59.3009V64.1334ZM70.348 63.6334V67.4525H71.348V63.6334H70.348ZM70.848 66.9525H59.3009V67.9525H70.848V66.9525ZM59.8009 67.4525V63.6334H58.8009V67.4525H59.8009ZM59.3009 73.0247H70.848V72.0247H59.3009V73.0247ZM61.5596 76.0998H69.1593V75.0998H61.5596V76.0998ZM61.5596 79.0163H65.5839V78.0163H61.5596V79.0163ZM61.5596 81.9331H64.117V80.9331H61.5596V81.9331ZM61.5596 84.8458H67.8934V83.8458H61.5596V84.8458ZM59.3009 88.1686H70.848V87.1686H59.3009V88.1686ZM61.5596 91.2437H69.1593V90.2437H61.5596V91.2437ZM61.5596 94.1602H65.5839V93.1602H61.5596V94.1602ZM73.9787 71.7801H90.9872V70.7801H73.9787V71.7801ZM90.4872 71.2801V84.9142H91.4872V71.2801H90.4872ZM90.9872 84.4142H73.9787V85.4142H90.9872V84.4142ZM74.4787 84.9142V71.2801H73.4787V84.9142H74.4787ZM73.9787 88.6134H78.5377V87.6134H73.9787V88.6134ZM78.0377 88.1134V92.6723H79.0377V88.1134H78.0377ZM78.5377 92.1723H73.9787V93.1723H78.5377V92.1723ZM74.4787 92.6723V88.1134H73.4787V92.6723H74.4787ZM80.2017 88.6134H84.7607V87.6134H80.2017V88.6134ZM84.2607 88.1134V92.6723H85.2607V88.1134H84.2607ZM84.7607 92.1723H80.2017V93.1723H84.7607V92.1723ZM80.7017 92.6723V88.1134H79.7017V92.6723H80.7017ZM86.428 88.6134H90.9869V87.6134H86.428V88.6134ZM90.4869 88.1134V92.6723H91.4869V88.1134H90.4869ZM90.9869 92.1723H86.428V93.1723H90.9869V92.1723ZM86.928 92.6723V88.1134H85.928V92.6723H86.928ZM73.9787 66.5628H79.3503V65.5628H73.9787V66.5628ZM83.3875 66.5628H90.675V65.5628H83.3875V66.5628ZM73.9787 96.2689H91.1968V95.2689H73.9787V96.2689ZM90.6968 95.7689V103.95H91.6968V95.7689H90.6968ZM91.1968 103.45H73.9787V104.45H91.1968V103.45ZM74.4787 103.95V95.7689H73.4787V103.95H74.4787ZM41.7581 59.8354H48.2544V58.8354H41.7581V59.8354ZM47.7544 59.3354V95.3709H48.7544V59.3354H47.7544ZM109.74 70.5585L113.769 74.446L114.463 73.7264L110.435 69.8389L109.74 70.5585ZM114.234 74.5722L129.1 70.9712L128.864 69.9993L113.998 73.6003L114.234 74.5722ZM129.301 70.1L118.489 61.1531L117.852 61.9236L128.663 70.8704L129.301 70.1ZM146.829 91.0952L141.898 77.5295L140.958 77.8711L145.889 91.4369L146.829 91.0952ZM141.896 77.5263C140.656 74.1863 138.226 71.4221 135.073 69.7641L134.607 70.6492C137.543 72.1925 139.804 74.7655 140.959 77.8744L141.896 77.5263ZM135.073 69.7641C131.919 68.106 128.265 67.6709 124.81 68.5423L125.055 69.512C128.27 68.7008 131.672 69.1058 134.607 70.6492L135.073 69.7641ZM124.812 68.5418C121.2 69.4353 116.813 70.7101 111.65 72.5286L111.982 73.4718C117.116 71.6636 121.472 70.3981 125.052 69.5125L124.812 68.5418ZM111.65 72.5286C107.287 74.0647 104.314 76.1684 102.337 78.5746C100.36 80.9814 99.405 83.6609 99.0299 86.3082C98.6555 88.9502 98.8582 91.5647 99.1972 93.8552C99.3668 95.0012 99.5715 96.0715 99.7565 97.0241C99.9427 97.983 100.107 98.8105 100.201 99.4944L101.192 99.3576C101.092 98.6398 100.922 97.7793 100.738 96.8335C100.553 95.8815 100.352 94.8306 100.186 93.7088C99.8541 91.4638 99.6647 88.9561 100.02 86.4484C100.375 83.946 101.271 81.4482 103.11 79.2094C104.949 76.9699 107.757 74.9593 111.982 73.4718L111.65 72.5286ZM100.769 99.9207L125.065 96.3625L124.92 95.3731L100.624 98.9313L100.769 99.9207ZM124.498 95.7898L121.932 112.041L122.92 112.197L125.486 95.9458L124.498 95.7898ZM122.426 112.619H129.029V111.619H122.426V112.619ZM129.325 112.523C136.79 107.049 142.795 99.8237 146.809 91.4829L145.908 91.0492C141.965 99.2422 136.067 106.34 128.734 111.716L129.325 112.523ZM119.805 50.4776C118.799 44.7536 115.352 40.4133 110.792 40.1133L110.726 41.1112C114.617 41.3672 117.851 45.1355 118.82 50.6507L119.805 50.4776ZM110.792 40.1133C110.148 40.0712 109.426 39.9773 108.632 39.8782C107.845 39.7799 106.996 39.6777 106.128 39.6253C104.395 39.5208 102.533 39.6103 100.837 40.3543C97.3674 41.8763 94.8981 45.9725 95.124 55.5156L96.1237 55.4919C95.9005 46.0592 98.3516 42.5365 101.238 41.2701C102.721 40.6198 104.396 40.5227 106.067 40.6235C106.901 40.6738 107.721 40.7722 108.508 40.8705C109.289 40.968 110.046 41.0667 110.726 41.1112L110.792 40.1133ZM95.124 55.516C95.1572 56.8744 95.5934 60.5946 97.0932 64.0377C98.5898 67.4735 101.22 70.7822 105.7 70.9718L105.742 69.9727C101.836 69.8074 99.4493 66.9426 98.0099 63.6383C96.5738 60.3413 96.1546 56.7548 96.1237 55.4915L95.124 55.516ZM105.7 70.9718C112.841 71.2762 117.664 65.815 119.393 59.5063L118.428 59.242C116.77 65.293 112.244 70.2499 105.742 69.9727L105.7 70.9718ZM119.741 31.1523L122.587 32.1355L122.914 31.1903L120.068 30.2071L119.741 31.1523ZM122.278 31.4996L120.547 36.5079L121.492 36.8345L123.223 31.8262L122.278 31.4996ZM121.183 36.1986L118.337 35.2154L118.011 36.1606L120.857 37.1438L121.183 36.1986ZM118.647 35.8513L120.377 30.8429L119.432 30.5164L117.702 35.5247L118.647 35.8513ZM127.814 27.2559C127.814 29.9063 125.665 32.0548 123.015 32.0548V33.0548C126.217 33.0548 128.814 30.4586 128.814 27.2559H127.814ZM123.015 32.0548C120.365 32.0548 118.216 29.9063 118.216 27.2559H117.216C117.216 30.4586 119.812 33.0548 123.015 33.0548V32.0548ZM118.216 27.2559C118.216 24.6056 120.365 22.4571 123.015 22.4571V21.4571C119.812 21.4571 117.216 24.0533 117.216 27.2559H118.216ZM123.015 22.4571C125.665 22.4571 127.814 24.6056 127.814 27.2559H128.814C128.814 24.0533 126.217 21.4571 123.015 21.4571V22.4571ZM118.91 33.5493C114.244 31.7987 109.094 30.7943 104.393 32.3805L104.712 33.328C109.087 31.852 113.969 32.7635 118.558 34.4856L118.91 33.5493ZM104.371 32.3884C97.3857 35.1118 93.6509 39.0857 92.4034 43.1021C91.1546 47.1226 92.432 51.0921 95.2779 53.6797L95.9506 52.9398C93.3779 50.6006 92.2304 47.0302 93.3584 43.3987C94.4877 39.7629 97.9314 35.9724 104.734 33.3201L104.371 32.3884ZM96.1141 53.321C96.2752 46.1798 98.1953 43.0067 100.535 41.6242L100.026 40.7634C97.2416 42.4088 95.2784 46.0272 95.1144 53.2985L96.1141 53.321ZM99.843 41.4365C101.152 43.7946 104.012 46.0116 107.489 47.6969C110.982 49.39 115.174 50.5838 119.237 50.8449L119.301 49.847C115.379 49.5949 111.312 48.4386 107.925 46.797C104.522 45.1476 101.88 43.0451 100.717 40.9511L99.843 41.4365ZM118.776 50.4329L118.815 50.6511L119.8 50.4771L119.761 50.259L118.776 50.4329ZM119.343 51.0628C120.418 50.9857 121.721 51.0484 122.74 51.5513C123.24 51.7982 123.665 52.1476 123.969 52.637C124.273 53.1268 124.476 53.7874 124.482 54.6864L125.482 54.6787C125.474 53.6297 125.236 52.7817 124.818 52.1093C124.4 51.4364 123.822 50.9701 123.182 50.6546C121.923 50.0328 120.403 49.9842 119.271 50.0654L119.343 51.0628ZM124.482 54.6869C124.493 55.9436 124.185 56.8042 123.746 57.4016C123.306 58.0018 122.702 58.3791 122.051 58.6119C120.728 59.0848 119.297 58.932 118.962 58.8907L118.84 59.8832C119.198 59.9274 120.831 60.1103 122.387 59.5536C123.176 59.2716 123.966 58.7928 124.552 57.9935C125.141 57.1915 125.495 56.1094 125.482 54.6782L124.482 54.6869ZM118.419 59.2545C118.262 59.8251 118.273 60.3022 118.265 60.681C118.256 61.0587 118.23 61.3707 118.06 61.747L118.972 62.1589C119.225 61.5986 119.255 61.1258 119.264 60.7038C119.274 60.2829 119.266 59.9453 119.383 59.5194L118.419 59.2545ZM118.181 62.3239L122.184 65.942L122.854 65.2001L118.851 61.582L118.181 62.3239ZM122.61 66.0627L137.42 63.317L137.238 62.3338L122.428 65.0794L122.61 66.0627ZM137.314 63.3252C137.642 63.3355 137.969 63.2683 138.266 63.1292L137.843 62.2232C137.687 62.296 137.517 62.331 137.345 62.3257L137.314 63.3252ZM138.266 63.1292C138.564 62.99 138.825 62.7827 139.028 62.5241L138.241 61.9069C138.135 62.0421 137.999 62.1505 137.843 62.2232L138.266 63.1292ZM139.028 62.5241C139.231 62.2654 139.37 61.9627 139.434 61.6403L138.453 61.4449C138.42 61.6134 138.347 61.7717 138.241 61.9069L139.028 62.5241ZM139.434 61.6403C139.498 61.3179 139.486 60.9849 139.398 60.6682L138.434 60.9368C138.48 61.1023 138.487 61.2764 138.453 61.4449L139.434 61.6403ZM139.398 60.6687C137.602 54.205 134.035 39.4707 118.916 33.5519L118.552 34.4831C133.147 40.1969 136.62 54.4074 138.434 60.9364L139.398 60.6687ZM117.64 59.5761L118.705 59.8498L118.953 58.8813L117.889 58.6076L117.64 59.5761ZM118.829 59.3656C118.745 59.8584 118.745 59.8585 118.745 59.8585C118.745 59.8585 118.746 59.8586 118.746 59.8586C118.746 59.8587 118.747 59.8588 118.748 59.8589C118.749 59.8591 118.751 59.8594 118.753 59.8598C118.757 59.8605 118.763 59.8614 118.77 59.8625C118.784 59.8647 118.804 59.8677 118.829 59.8713C118.88 59.8784 118.952 59.8877 119.043 59.8972C119.225 59.9163 119.482 59.9364 119.789 59.9415C120.4 59.9517 121.229 59.9031 122.066 59.6577C122.904 59.4119 123.775 58.9613 124.431 58.1523C125.091 57.3381 125.496 56.2082 125.482 54.6781L124.482 54.687C124.494 56.0287 124.143 56.9201 123.654 57.5224C123.161 58.13 122.49 58.4911 121.784 58.6981C121.077 58.9056 120.357 58.9508 119.806 58.9416C119.532 58.9371 119.305 58.9192 119.148 58.9027C119.069 58.8944 119.008 58.8866 118.968 58.8809C118.948 58.8781 118.933 58.8759 118.924 58.8744C118.919 58.8737 118.916 58.8732 118.914 58.8729C118.913 58.8727 118.913 58.8727 118.913 58.8726C118.913 58.8726 118.913 58.8726 118.913 58.8726C118.913 58.8726 118.913 58.8727 118.913 58.8727C118.913 58.8727 118.913 58.8727 118.829 59.3656ZM125.482 54.6786C125.473 53.5042 125.175 52.5831 124.664 51.8793C124.153 51.1776 123.459 50.7309 122.72 50.4545C121.264 49.9094 119.568 50.0014 118.503 50.1411L118.633 51.1326C119.656 50.9985 121.15 50.9345 122.37 51.3911C122.97 51.6157 123.485 51.9593 123.855 52.4675C124.223 52.9736 124.475 53.6819 124.482 54.6865L125.482 54.6786ZM104.45 63.9547C104.203 64.3892 104.203 64.3894 104.204 64.3895C104.204 64.3896 104.204 64.3897 104.204 64.3898C104.205 64.39 104.205 64.3903 104.205 64.3905C104.206 64.3911 104.207 64.3916 104.208 64.3923C104.211 64.3935 104.214 64.3951 104.217 64.3968C104.223 64.4003 104.231 64.4047 104.242 64.41C104.262 64.4204 104.289 64.434 104.323 64.4496C104.39 64.4807 104.485 64.5204 104.601 64.559C104.831 64.6356 105.159 64.7121 105.538 64.7014C105.922 64.6907 106.354 64.5906 106.779 64.3176C107.203 64.0451 107.593 63.6175 107.918 62.9918L107.03 62.5311C106.771 63.0302 106.491 63.3141 106.239 63.4763C105.987 63.6378 105.737 63.6955 105.51 63.7018C105.279 63.7083 105.07 63.6612 104.916 63.6101C104.84 63.5848 104.781 63.5595 104.742 63.5417C104.723 63.5328 104.709 63.5259 104.701 63.522C104.698 63.52 104.695 63.5188 104.695 63.5184C104.694 63.5182 104.694 63.5183 104.695 63.5185C104.695 63.5187 104.696 63.5189 104.696 63.5191C104.696 63.5193 104.696 63.5194 104.697 63.5196C104.697 63.5197 104.697 63.5198 104.697 63.5198C104.697 63.52 104.698 63.5201 104.45 63.9547ZM103.865 58.8924L101.363 59.0635L101.431 60.0612L103.933 59.8901L103.865 58.8924ZM101.895 59.6145L102.942 49.6327L101.948 49.5283L100.9 59.5101L101.895 59.6145ZM111.434 48.8192C111.778 48.4562 111.778 48.456 111.778 48.4559C111.778 48.4558 111.778 48.4557 111.777 48.4555C111.777 48.4553 111.777 48.455 111.777 48.4548C111.776 48.4542 111.775 48.4535 111.774 48.4527C111.773 48.4511 111.771 48.4491 111.768 48.4467C111.763 48.442 111.756 48.4355 111.747 48.4277C111.73 48.412 111.705 48.3904 111.674 48.3642C111.612 48.3119 111.524 48.2406 111.413 48.1605C111.194 48.0016 110.878 47.8013 110.503 47.6475C109.747 47.3385 108.672 47.1974 107.712 48.063L108.382 48.8056C108.949 48.294 109.567 48.3454 110.124 48.5731C110.404 48.6877 110.649 48.8418 110.826 48.9703C110.914 49.0338 110.983 49.0895 111.029 49.1281C111.052 49.1474 111.069 49.1623 111.079 49.1718C111.084 49.1765 111.088 49.1798 111.09 49.1816C111.091 49.1825 111.091 49.183 111.091 49.1831C111.092 49.1832 111.091 49.1831 111.091 49.183C111.091 49.1829 111.091 49.1828 111.091 49.1827C111.091 49.1826 111.091 49.1825 111.091 49.1824C111.091 49.1823 111.09 49.1822 111.434 48.8192ZM99.5113 49.8841C99.802 49.4773 99.8018 49.4772 99.8016 49.477C99.8015 49.477 99.8014 49.4769 99.8012 49.4768C99.8009 49.4766 99.8006 49.4763 99.8003 49.4761C99.7996 49.4756 99.7988 49.475 99.7978 49.4744C99.7959 49.473 99.7935 49.4714 99.7906 49.4693C99.7848 49.4653 99.777 49.4599 99.7672 49.4533C99.7477 49.4402 99.7205 49.4222 99.6861 49.4005C99.6175 49.3572 99.5201 49.2988 99.3995 49.2347C99.1603 49.1076 98.8199 48.9528 98.4257 48.8526C97.6326 48.6511 96.5471 48.6619 95.7086 49.6505L96.4712 50.2973C96.9713 49.7078 97.5965 49.6737 98.1794 49.8218C98.4732 49.8965 98.7371 50.0151 98.9303 50.1177C99.0259 50.1685 99.1016 50.2141 99.1522 50.246C99.1774 50.2619 99.1962 50.2744 99.2078 50.2822C99.2137 50.2862 99.2177 50.2889 99.2199 50.2904C99.2209 50.2912 99.2215 50.2916 99.2217 50.2917C99.2217 50.2917 99.2217 50.2917 99.2215 50.2916C99.2214 50.2915 99.2213 50.2914 99.2211 50.2913C99.221 50.2912 99.2209 50.2911 99.2209 50.2911C99.2207 50.291 99.2206 50.2909 99.5113 49.8841ZM108.773 53.7093C108.795 53.9823 108.74 54.212 108.661 54.3596C108.579 54.5127 108.509 54.5201 108.507 54.5203L108.587 55.5171C109.041 55.4808 109.362 55.168 109.542 54.8328C109.725 54.4921 109.805 54.0655 109.77 53.6298L108.773 53.7093ZM108.507 54.5203C108.505 54.5204 108.435 54.5242 108.329 54.3861C108.228 54.2529 108.138 54.0347 108.116 53.7617L107.119 53.8412C107.154 54.2769 107.3 54.6856 107.535 54.9929C107.766 55.2954 108.132 55.5534 108.587 55.5171L108.507 54.5203ZM108.116 53.7617C108.094 53.4887 108.148 53.259 108.228 53.1114C108.31 52.9583 108.38 52.9508 108.382 52.9507L108.302 51.9538C107.848 51.9901 107.527 52.3029 107.347 52.6381C107.164 52.9788 107.084 53.4055 107.119 53.8412L108.116 53.7617ZM108.382 52.9507C108.384 52.9505 108.454 52.9468 108.56 53.0849C108.661 53.2181 108.751 53.4363 108.773 53.7093L109.77 53.6298C109.735 53.1941 109.589 52.7854 109.354 52.478C109.123 52.1756 108.757 51.9176 108.302 51.9538L108.382 52.9507ZM99.9974 54.4343C100.019 54.7073 99.9648 54.937 99.8855 55.0847C99.8033 55.2377 99.7333 55.2452 99.7314 55.2453L99.8109 56.2422C100.266 56.2059 100.586 55.8931 100.766 55.5578C100.949 55.2172 101.029 54.7905 100.994 54.3548L99.9974 54.4343ZM99.7314 55.2453C99.7295 55.2455 99.6592 55.2492 99.5538 55.1111C99.4521 54.9779 99.362 54.7597 99.3402 54.4867L98.3434 54.5662C98.3781 55.0019 98.5243 55.4106 98.759 55.7179C98.9899 56.0204 99.3561 56.2784 99.8109 56.2422L99.7314 55.2453ZM99.3402 54.4867C99.3184 54.2137 99.3728 53.984 99.4521 53.8364C99.5343 53.6833 99.6043 53.6759 99.6062 53.6757L99.5267 52.6789C99.0719 52.7152 98.7512 53.028 98.5712 53.3632C98.3882 53.7039 98.3086 54.1305 98.3434 54.5662L99.3402 54.4867ZM99.6062 53.6757C99.6081 53.6756 99.6784 53.6718 99.7838 53.8099C99.8855 53.9431 99.9757 54.1613 99.9974 54.4343L100.994 54.3548C100.96 53.9191 100.813 53.5105 100.579 53.2031C100.348 52.9006 99.9816 52.6426 99.5267 52.6789L99.6062 53.6757ZM114.843 51.4139C115.02 53.2276 114.621 54.9056 113.856 56.1508C113.091 57.3956 111.979 58.1838 110.718 58.3075L110.816 59.3027C112.455 59.1419 113.818 58.1224 114.708 56.6745C115.598 55.2269 116.035 53.3272 115.838 51.3163L114.843 51.4139ZM110.718 58.3075C109.457 58.4311 108.213 57.8739 107.221 56.8014C106.228 55.7285 105.511 54.16 105.333 52.3463L104.338 52.4439C104.535 54.4547 105.333 56.2334 106.487 57.4805C107.641 58.728 109.176 59.4635 110.816 59.3027L110.718 58.3075ZM105.333 52.3463C105.155 50.5326 105.554 48.8545 106.32 47.6093C107.085 46.3645 108.197 45.5763 109.458 45.4527L109.36 44.4575C107.72 44.6182 106.358 45.6378 105.468 47.0857C104.578 48.5332 104.141 50.433 104.338 52.4439L105.333 52.3463ZM109.458 45.4527C110.719 45.329 111.962 45.8863 112.955 46.9588C113.947 48.0316 114.665 49.6002 114.843 51.4139L115.838 51.3163C115.641 49.3054 114.843 47.5268 113.689 46.2796C112.534 45.0322 111 44.2967 109.36 44.4575L109.458 45.4527ZM99.9585 53.1701C100.136 54.9838 99.7373 56.6618 98.9719 57.907C98.2067 59.1518 97.095 59.94 95.834 60.0637L95.9316 61.0589C97.5713 60.8981 98.9338 59.8786 99.8238 58.4307C100.714 56.9831 101.151 55.0834 100.954 53.0725L99.9585 53.1701ZM95.834 60.0637C94.573 60.1873 93.3294 59.6301 92.337 58.5576C91.3443 57.4848 90.6269 55.9162 90.4491 54.1025L89.4539 54.2001C89.651 56.2109 90.449 57.9896 91.603 59.2367C92.7573 60.4842 94.2919 61.2197 95.9316 61.0589L95.834 60.0637ZM90.4491 54.1025C90.2713 52.2888 90.6703 50.6108 91.4357 49.3656C92.2009 48.1207 93.3126 47.3325 94.5736 47.2089L94.476 46.2137C92.8363 46.3744 91.4738 47.394 90.5838 48.8419C89.694 50.2894 89.2567 52.1892 89.4539 54.2001L90.4491 54.1025ZM94.5736 47.2089C95.8346 47.0853 97.0782 47.6425 98.0706 48.715C99.0633 49.7878 99.7806 51.3564 99.9585 53.1701L100.954 53.0725C100.757 51.0616 99.9586 49.283 98.8046 48.0358C97.6503 46.7884 96.1157 46.0529 94.476 46.2137L94.5736 47.2089ZM100.604 52.618L104.774 52.1946L104.673 51.1998L100.503 51.6231L100.604 52.618ZM115.352 50.8152L120.279 51.106L120.338 50.1077L115.411 49.8169L115.352 50.8152ZM101.45 99.3446L102.396 104.049L103.376 103.852L102.431 99.1476L101.45 99.3446ZM102.886 103.95C102.911 103.451 102.91 103.451 102.91 103.451C102.91 103.451 102.909 103.451 102.909 103.451C102.908 103.451 102.907 103.451 102.906 103.451C102.902 103.451 102.898 103.45 102.892 103.45C102.881 103.45 102.864 103.449 102.841 103.448C102.797 103.446 102.731 103.443 102.645 103.44C102.473 103.434 102.222 103.426 101.899 103.42C101.255 103.407 100.327 103.399 99.1919 103.418C96.9229 103.457 93.82 103.605 90.4884 104.045C87.1592 104.485 83.5859 105.219 80.3829 106.433C77.1851 107.645 74.3134 109.353 72.4383 111.77L73.2283 112.383C74.9456 110.17 77.6268 108.547 80.7374 107.368C83.8428 106.191 87.3336 105.471 90.6194 105.037C93.9027 104.603 96.9658 104.456 99.209 104.418C100.33 104.399 101.245 104.407 101.879 104.42C102.196 104.426 102.443 104.434 102.609 104.44C102.693 104.443 102.756 104.445 102.799 104.447C102.82 104.448 102.836 104.449 102.846 104.449C102.851 104.449 102.855 104.45 102.858 104.45C102.859 104.45 102.86 104.45 102.86 104.45C102.861 104.45 102.861 104.45 102.861 104.45C102.861 104.45 102.861 104.45 102.886 103.95ZM72.8333 112.576H124.295V111.576H72.8333V112.576ZM124.292 112.576C124.974 112.58 125.648 112.428 126.262 112.13L125.825 111.23C125.349 111.461 124.827 111.579 124.298 111.576L124.292 112.576ZM126.262 112.13C126.875 111.832 127.413 111.398 127.832 110.859L127.043 110.245C126.718 110.662 126.301 110.999 125.825 111.23L126.262 112.13ZM127.832 110.859C128.251 110.321 128.54 109.694 128.678 109.026L127.699 108.823C127.592 109.341 127.367 109.828 127.043 110.245L127.832 110.859ZM128.678 109.026C128.817 108.358 128.799 107.667 128.628 107.007L127.66 107.258C127.793 107.77 127.806 108.305 127.699 108.823L128.678 109.026ZM128.628 107.007L125.69 95.699L124.722 95.9504L127.66 107.258L128.628 107.007ZM125.133 95.33L101.868 98.7514L102.013 99.7408L125.279 96.3194L125.133 95.33ZM129.2 111.598H63.1422V112.598H129.2V111.598ZM62.845 112.5C72.4924 119.632 84.1735 123.481 96.1712 123.481V122.481C84.3876 122.481 72.9148 118.701 63.4395 111.695L62.845 112.5ZM96.1712 123.481C108.169 123.481 119.85 119.632 129.498 112.5L128.903 111.695C119.428 118.701 107.955 122.481 96.1712 122.481V123.481ZM151.221 67.4321C151.221 97.8355 126.574 122.482 96.1703 122.482V123.482C127.126 123.482 152.221 98.3878 152.221 67.4321H151.221ZM96.1703 122.482C65.7669 122.482 41.1201 97.8355 41.1201 67.4321H40.1201C40.1201 98.3878 65.2146 123.482 96.1703 123.482V122.482ZM41.1201 67.4321C41.1201 37.0287 65.7669 12.3819 96.1703 12.3819V11.3819C65.2146 11.3819 40.1201 36.4764 40.1201 67.4321H41.1201ZM96.1703 12.3819C126.574 12.3819 151.221 37.0287 151.221 67.4321H152.221C152.221 36.4764 127.126 11.3819 96.1703 11.3819V12.3819Z" fill="#363636"/>
</svg>
